<svg width="96" height="92" viewBox="0 0 96 92" fill="none" xmlns="http://www.w3.org/2000/svg">
<circle cx="4.74604" cy="87.254" r="4.74604" transform="rotate(-90 4.74604 87.254)" fill="#43B9FA"/>
<circle cx="19.3491" cy="87.254" r="4.74604" transform="rotate(-90 19.3491 87.254)" fill="#43B9FA"/>
<ellipse cx="33.5877" cy="87.254" rx="4.74604" ry="5.11112" transform="rotate(-90 33.5877 87.254)" fill="#43B9FA"/>
<circle cx="47.8254" cy="87.254" r="4.74604" transform="rotate(-90 47.8254 87.254)" fill="#43B9FA"/>
<circle cx="62.4287" cy="87.254" r="4.74604" transform="rotate(-90 62.4287 87.254)" fill="#43B9FA"/>
<ellipse cx="76.6668" cy="87.254" rx="4.74604" ry="5.11112" transform="rotate(-90 76.6668 87.254)" fill="#43B9FA"/>
<circle cx="90.9047" cy="87.254" r="4.74604" transform="rotate(-90 90.9047 87.254)" fill="#43B9FA"/>
<circle cx="4.74604" cy="70.4605" r="4.74604" transform="rotate(-90 4.74604 70.4605)" fill="#43B9FA"/>
<circle cx="19.3491" cy="70.4605" r="4.74604" transform="rotate(-90 19.3491 70.4605)" fill="#43B9FA"/>
<ellipse cx="33.5877" cy="70.4605" rx="4.74604" ry="5.11112" transform="rotate(-90 33.5877 70.4605)" fill="#43B9FA"/>
<circle cx="47.8254" cy="70.4605" r="4.74604" transform="rotate(-90 47.8254 70.4605)" fill="#43B9FA"/>
<circle cx="62.4287" cy="70.4605" r="4.74604" transform="rotate(-90 62.4287 70.4605)" fill="#43B9FA"/>
<ellipse cx="76.6668" cy="70.4605" rx="4.74604" ry="5.11112" transform="rotate(-90 76.6668 70.4605)" fill="#43B9FA"/>
<circle cx="90.9047" cy="70.4605" r="4.74604" transform="rotate(-90 90.9047 70.4605)" fill="#43B9FA"/>
<ellipse cx="4.74604" cy="54.0315" rx="5.11112" ry="4.74604" transform="rotate(-90 4.74604 54.0315)" fill="#43B9FA"/>
<ellipse cx="19.3491" cy="54.0315" rx="5.11112" ry="4.74604" transform="rotate(-90 19.3491 54.0315)" fill="#43B9FA"/>
<circle cx="33.5877" cy="54.0315" r="5.11112" transform="rotate(-90 33.5877 54.0315)" fill="#43B9FA"/>
<ellipse cx="47.8254" cy="54.0315" rx="5.11112" ry="4.74604" transform="rotate(-90 47.8254 54.0315)" fill="#43B9FA"/>
<ellipse cx="62.4287" cy="54.0315" rx="5.11112" ry="4.74604" transform="rotate(-90 62.4287 54.0315)" fill="#43B9FA"/>
<circle cx="76.6668" cy="54.0315" r="5.11112" transform="rotate(-90 76.6668 54.0315)" fill="#43B9FA"/>
<ellipse cx="90.9047" cy="54.0315" rx="5.11112" ry="4.74604" transform="rotate(-90 90.9047 54.0315)" fill="#43B9FA"/>
<circle cx="4.74604" cy="37.6031" r="4.74604" transform="rotate(-90 4.74604 37.6031)" fill="#43B9FA"/>
<circle cx="19.3491" cy="37.6031" r="4.74604" transform="rotate(-90 19.3491 37.6031)" fill="#43B9FA"/>
<ellipse cx="33.5877" cy="37.6031" rx="4.74604" ry="5.11112" transform="rotate(-90 33.5877 37.6031)" fill="#43B9FA"/>
<circle cx="47.8254" cy="37.6031" r="4.74604" transform="rotate(-90 47.8254 37.6031)" fill="#43B9FA"/>
<circle cx="62.4287" cy="37.6031" r="4.74604" transform="rotate(-90 62.4287 37.6031)" fill="#43B9FA"/>
<ellipse cx="76.6668" cy="37.6031" rx="4.74604" ry="5.11112" transform="rotate(-90 76.6668 37.6031)" fill="#43B9FA"/>
<circle cx="90.9047" cy="37.6031" r="4.74604" transform="rotate(-90 90.9047 37.6031)" fill="#43B9FA"/>
<circle cx="4.74604" cy="20.8096" r="4.74604" transform="rotate(-90 4.74604 20.8096)" fill="#43B9FA"/>
<circle cx="19.3491" cy="20.8096" r="4.74604" transform="rotate(-90 19.3491 20.8096)" fill="#43B9FA"/>
<ellipse cx="33.5877" cy="20.8096" rx="4.74604" ry="5.11112" transform="rotate(-90 33.5877 20.8096)" fill="#43B9FA"/>
<circle cx="47.8254" cy="20.8096" r="4.74604" transform="rotate(-90 47.8254 20.8096)" fill="#43B9FA"/>
<circle cx="62.4287" cy="20.8096" r="4.74604" transform="rotate(-90 62.4287 20.8096)" fill="#43B9FA"/>
<ellipse cx="76.6668" cy="20.8096" rx="4.74604" ry="5.11112" transform="rotate(-90 76.6668 20.8096)" fill="#43B9FA"/>
<circle cx="90.9047" cy="20.8096" r="4.74604" transform="rotate(-90 90.9047 20.8096)" fill="#43B9FA"/>
<circle cx="4.74604" cy="4.74615" r="4.74604" transform="rotate(-90 4.74604 4.74615)" fill="#43B9FA"/>
<circle cx="19.3491" cy="4.74615" r="4.74604" transform="rotate(-90 19.3491 4.74615)" fill="#43B9FA"/>
<ellipse cx="33.5877" cy="4.74615" rx="4.74604" ry="5.11112" transform="rotate(-90 33.5877 4.74615)" fill="#43B9FA"/>
<circle cx="47.8254" cy="4.74615" r="4.74604" transform="rotate(-90 47.8254 4.74615)" fill="#43B9FA"/>
<circle cx="62.4287" cy="4.74615" r="4.74604" transform="rotate(-90 62.4287 4.74615)" fill="#43B9FA"/>
<ellipse cx="76.6668" cy="4.74615" rx="4.74604" ry="5.11112" transform="rotate(-90 76.6668 4.74615)" fill="#43B9FA"/>
<circle cx="90.9047" cy="4.74615" r="4.74604" transform="rotate(-90 90.9047 4.74615)" fill="#43B9FA"/>
</svg>
