<svg width="92" height="111" viewBox="0 0 92 111" fill="none" xmlns="http://www.w3.org/2000/svg">
<circle cx="4.74604" cy="4.74604" r="4.74604" fill="#43B9FA"/>
<circle cx="4.74604" cy="19.3491" r="4.74604" fill="#43B9FA"/>
<ellipse cx="4.74604" cy="33.5876" rx="4.74604" ry="5.11112" fill="#43B9FA"/>
<circle cx="4.74604" cy="47.8253" r="4.74604" fill="#43B9FA"/>
<circle cx="4.74604" cy="62.4288" r="4.74604" fill="#43B9FA"/>
<ellipse cx="4.74604" cy="76.6669" rx="4.74604" ry="5.11112" fill="#43B9FA"/>
<circle cx="4.74604" cy="90.9046" r="4.74604" fill="#43B9FA"/>
<circle cx="4.74604" cy="105.508" r="4.74604" fill="#43B9FA"/>
<circle cx="21.5397" cy="4.74604" r="4.74604" fill="#43B9FA"/>
<circle cx="21.5397" cy="19.3491" r="4.74604" fill="#43B9FA"/>
<ellipse cx="21.5397" cy="33.5876" rx="4.74604" ry="5.11112" fill="#43B9FA"/>
<circle cx="21.5397" cy="47.8253" r="4.74604" fill="#43B9FA"/>
<circle cx="21.5397" cy="62.4288" r="4.74604" fill="#43B9FA"/>
<ellipse cx="21.5397" cy="76.6669" rx="4.74604" ry="5.11112" fill="#43B9FA"/>
<circle cx="21.5397" cy="90.9046" r="4.74604" fill="#43B9FA"/>
<circle cx="21.5397" cy="105.508" r="4.74604" fill="#43B9FA"/>
<ellipse cx="37.9685" cy="4.74604" rx="5.11112" ry="4.74604" fill="#43B9FA"/>
<ellipse cx="37.9685" cy="19.3491" rx="5.11112" ry="4.74604" fill="#43B9FA"/>
<circle cx="37.9685" cy="33.5876" r="5.11112" fill="#43B9FA"/>
<ellipse cx="37.9685" cy="47.8253" rx="5.11112" ry="4.74604" fill="#43B9FA"/>
<ellipse cx="37.9685" cy="62.4288" rx="5.11112" ry="4.74604" fill="#43B9FA"/>
<circle cx="37.9685" cy="76.6669" r="5.11112" fill="#43B9FA"/>
<ellipse cx="37.9685" cy="90.9046" rx="5.11112" ry="4.74604" fill="#43B9FA"/>
<ellipse cx="37.9685" cy="105.508" rx="5.11112" ry="4.74604" fill="#43B9FA"/>
<circle cx="54.3972" cy="4.74604" r="4.74604" fill="#43B9FA"/>
<circle cx="54.3972" cy="19.3491" r="4.74604" fill="#43B9FA"/>
<ellipse cx="54.3972" cy="33.5876" rx="4.74604" ry="5.11112" fill="#43B9FA"/>
<circle cx="54.3972" cy="47.8253" r="4.74604" fill="#43B9FA"/>
<circle cx="54.3972" cy="62.4288" r="4.74604" fill="#43B9FA"/>
<ellipse cx="54.3972" cy="76.6669" rx="4.74604" ry="5.11112" fill="#43B9FA"/>
<circle cx="54.3972" cy="90.9046" r="4.74604" fill="#43B9FA"/>
<circle cx="54.3972" cy="105.508" r="4.74604" fill="#43B9FA"/>
<circle cx="71.1904" cy="4.74604" r="4.74604" fill="#43B9FA"/>
<circle cx="71.1904" cy="19.3491" r="4.74604" fill="#43B9FA"/>
<ellipse cx="71.1904" cy="33.5876" rx="4.74604" ry="5.11112" fill="#43B9FA"/>
<circle cx="71.1904" cy="47.8253" r="4.74604" fill="#43B9FA"/>
<circle cx="71.1904" cy="62.4288" r="4.74604" fill="#43B9FA"/>
<ellipse cx="71.1904" cy="76.6669" rx="4.74604" ry="5.11112" fill="#43B9FA"/>
<circle cx="71.1904" cy="90.9046" r="4.74604" fill="#43B9FA"/>
<circle cx="71.1904" cy="105.508" r="4.74604" fill="#43B9FA"/>
<circle cx="87.2539" cy="4.74604" r="4.74604" fill="#43B9FA"/>
<circle cx="87.2539" cy="19.3491" r="4.74604" fill="#43B9FA"/>
<ellipse cx="87.2539" cy="33.5876" rx="4.74604" ry="5.11112" fill="#43B9FA"/>
<circle cx="87.2539" cy="47.8253" r="4.74604" fill="#43B9FA"/>
<circle cx="87.2539" cy="62.4288" r="4.74604" fill="#43B9FA"/>
<ellipse cx="87.2539" cy="76.6669" rx="4.74604" ry="5.11112" fill="#43B9FA"/>
<circle cx="87.2539" cy="90.9046" r="4.74604" fill="#43B9FA"/>
<circle cx="87.2539" cy="105.508" r="4.74604" fill="#43B9FA"/>
</svg>
