<?xml version="1.0" encoding="utf-8"?>
<!-- Generator: Adobe Illustrator 21.0.2, SVG Export Plug-In . SVG Version: 6.00 Build 0)  -->
<svg version="1.1" id="Layer_1" xmlns="http://www.w3.org/2000/svg" xmlns:xlink="http://www.w3.org/1999/xlink" x="0px" y="0px"
	 viewBox="0 0 690 496" style="enable-background:new 0 0 690 496;" xml:space="preserve">
<style type="text/css">
	.st0{fill:#202020;}
	.st1{fill:url(#SVGID_1_);}
	.st2{fill:url(#SVGID_2_);}
	.st3{fill:url(#SVGID_3_);}
	.st4{fill:url(#SVGID_4_);}
	.st5{fill:url(#SVGID_5_);}
	.st6{fill:url(#SVGID_6_);}
	.st7{fill:url(#SVGID_7_);}
	.st8{fill:url(#SVGID_8_);}
	.st9{fill:url(#SVGID_9_);}
	.st10{fill:url(#SVGID_10_);}
	.st11{fill:url(#SVGID_11_);}
	.st12{fill:url(#SVGID_12_);}
	.st13{fill:url(#SVGID_13_);}
	.st14{fill:url(#SVGID_14_);}
	.st15{fill:url(#SVGID_15_);}
	.st16{fill:#A0A0A0;}
	.st17{fill:none;}
	.st18{fill:url(#SVGID_16_);}
	.st19{fill:url(#SVGID_17_);}
	.st20{fill:url(#SVGID_18_);}
	.st21{fill:url(#SVGID_19_);}
	.st22{fill:url(#SVGID_20_);}
	.st23{fill:url(#SVGID_21_);}
	.st24{fill:url(#SVGID_22_);}
	.st25{fill:url(#SVGID_23_);}
	.st26{fill:url(#SVGID_24_);}
	.st27{fill:url(#SVGID_25_);}
	.st28{fill:url(#SVGID_26_);}
	.st29{fill:url(#SVGID_27_);}
	.st30{fill:url(#SVGID_28_);}
	.st31{fill:url(#SVGID_29_);}
	.st32{fill:url(#SVGID_30_);}
	.st33{fill:url(#SVGID_31_);}
	.st34{fill:url(#SVGID_32_);}
	.st35{fill:url(#SVGID_33_);}
	.st36{fill:url(#SVGID_34_);}
	.st37{fill:url(#SVGID_35_);}
	.st38{fill:url(#SVGID_36_);}
	.st39{fill:url(#SVGID_37_);}
	.st40{fill:url(#SVGID_38_);}
	.st41{fill:url(#SVGID_39_);}
	.st42{fill:url(#SVGID_40_);}
	.st43{fill:url(#SVGID_41_);}
	.st44{fill:url(#SVGID_42_);}
	.st45{fill:url(#SVGID_43_);}
	.st46{fill:url(#SVGID_44_);}
	.st47{fill:url(#SVGID_45_);}
	.st48{fill:url(#SVGID_46_);}
	.st49{fill:url(#SVGID_47_);}
	.st50{fill:url(#SVGID_48_);}
	.st51{fill:url(#SVGID_49_);}
	.st52{fill:url(#SVGID_50_);}
	.st53{fill:url(#SVGID_51_);}
	.st54{fill:url(#SVGID_52_);}
	.st55{fill:url(#SVGID_53_);}
	.st56{fill:url(#SVGID_54_);}
	.st57{fill:url(#SVGID_55_);}
	.st58{fill:url(#SVGID_56_);}
	.st59{fill:url(#SVGID_57_);}
	.st60{fill:url(#SVGID_58_);}
	.st61{fill:url(#SVGID_59_);}
	.st62{fill:url(#SVGID_60_);}
	.st63{fill:url(#SVGID_61_);}
	.st64{fill:url(#SVGID_62_);}
	.st65{fill:url(#SVGID_63_);}
	.st66{fill:url(#SVGID_64_);}
	.st67{fill:url(#SVGID_65_);}
	.st68{fill:url(#SVGID_66_);}
	.st69{fill:url(#SVGID_67_);}
	.st70{fill:url(#SVGID_68_);}
	.st71{fill:url(#SVGID_69_);}
	.st72{fill:url(#SVGID_70_);}
	.st73{fill:url(#SVGID_71_);}
	.st74{fill:url(#SVGID_72_);}
	.st75{fill:url(#SVGID_73_);}
	.st76{fill:url(#SVGID_74_);}
	.st77{fill:url(#SVGID_75_);}
	.st78{fill:url(#SVGID_76_);}
	.st79{fill:url(#SVGID_77_);}
	.st80{fill:url(#SVGID_78_);}
	.st81{fill:url(#SVGID_79_);}
	.st82{fill:url(#SVGID_80_);}
	.st83{fill:url(#SVGID_81_);}
	.st84{fill:url(#SVGID_82_);}
	.st85{fill:url(#SVGID_83_);}
	.st86{fill:url(#SVGID_84_);}
	.st87{fill:url(#SVGID_85_);}
	.st88{fill:url(#SVGID_86_);}
	.st89{fill:url(#SVGID_87_);}
	.st90{fill:url(#SVGID_88_);}
	.st91{fill:url(#SVGID_89_);}
	.st92{fill:url(#SVGID_90_);}
	.st93{fill:url(#SVGID_91_);}
	.st94{fill:url(#SVGID_92_);}
	.st95{fill:url(#SVGID_93_);}
	.st96{fill:url(#SVGID_94_);}
	.st97{fill:url(#SVGID_95_);}
	.st98{fill:url(#SVGID_96_);}
	.st99{fill:url(#SVGID_97_);}
	.st100{fill:url(#SVGID_98_);}
	.st101{fill:url(#SVGID_99_);}
	.st102{fill:url(#SVGID_100_);}
	.st103{fill:url(#SVGID_101_);}
	.st104{fill:url(#SVGID_102_);}
	.st105{fill:url(#SVGID_103_);}
	.st106{fill:url(#SVGID_104_);}
	.st107{fill:url(#SVGID_105_);}
	.st108{fill:url(#SVGID_106_);}
	.st109{fill:url(#SVGID_107_);}
	.st110{fill:url(#SVGID_108_);}
	.st111{fill:url(#SVGID_109_);}
	.st112{fill:url(#SVGID_110_);}
	.st113{fill:url(#SVGID_111_);}
	.st114{fill:url(#SVGID_112_);}
	.st115{fill:url(#SVGID_113_);}
	.st116{fill:url(#SVGID_114_);}
	.st117{fill:url(#SVGID_115_);}
	.st118{fill:url(#SVGID_116_);}
	.st119{fill:url(#SVGID_117_);}
	.st120{fill:url(#SVGID_118_);}
	.st121{fill:url(#SVGID_119_);}
	.st122{fill:url(#SVGID_120_);}
	.st123{fill:url(#SVGID_121_);}
	.st124{fill:url(#SVGID_122_);}
	.st125{fill:url(#SVGID_123_);}
	.st126{fill:url(#SVGID_124_);}
	.st127{fill:url(#SVGID_125_);}
	.st128{fill:url(#SVGID_126_);}
	.st129{fill:url(#SVGID_127_);}
	.st130{fill:url(#SVGID_128_);}
	.st131{fill:url(#SVGID_129_);}
	.st132{fill:url(#SVGID_130_);}
	.st133{fill:url(#SVGID_131_);}
	.st134{fill:url(#SVGID_132_);}
	.st135{fill:url(#SVGID_133_);}
	.st136{fill:url(#SVGID_134_);}
	.st137{fill:url(#SVGID_135_);}
	.st138{fill:url(#SVGID_136_);}
	.st139{fill:url(#SVGID_137_);}
	.st140{fill:url(#SVGID_138_);}
	.st141{fill:url(#SVGID_139_);}
	.st142{fill:url(#SVGID_140_);}
	.st143{fill:url(#SVGID_141_);}
	.st144{fill:url(#SVGID_142_);}
	.st145{fill:url(#SVGID_143_);}
	.st146{fill:url(#SVGID_144_);}
	.st147{fill:url(#SVGID_145_);}
	.st148{fill:url(#SVGID_146_);}
	.st149{fill:url(#SVGID_147_);}
	.st150{fill:url(#SVGID_148_);}
	.st151{fill:url(#SVGID_149_);}
	.st152{fill:url(#SVGID_150_);}
	.st153{fill:url(#SVGID_151_);}
	.st154{fill:url(#SVGID_152_);}
	.st155{fill:url(#SVGID_153_);}
	.st156{fill:url(#SVGID_154_);}
	.st157{fill:url(#SVGID_155_);}
	.st158{fill:url(#SVGID_156_);}
	.st159{fill:url(#SVGID_157_);}
	.st160{fill:url(#SVGID_158_);}
	.st161{fill:url(#SVGID_159_);}
	.st162{fill:url(#SVGID_160_);}
	.st163{fill:url(#SVGID_161_);}
	.st164{fill:url(#SVGID_162_);}
	.st165{fill:url(#SVGID_163_);}
	.st166{fill:url(#SVGID_164_);}
	.st167{fill:url(#SVGID_165_);}
	.st168{fill:url(#SVGID_166_);}
	.st169{fill:url(#SVGID_167_);}
	.st170{fill:url(#SVGID_168_);}
	.st171{fill:url(#SVGID_169_);}
	.st172{fill:url(#SVGID_170_);}
	.st173{fill:url(#SVGID_171_);}
	.st174{fill:url(#SVGID_172_);}
	.st175{fill:url(#SVGID_173_);}
	.st176{fill:url(#SVGID_174_);}
	.st177{fill:url(#SVGID_175_);}
	.st178{fill:url(#SVGID_176_);}
	.st179{fill:url(#SVGID_177_);}
	.st180{fill:url(#SVGID_178_);}
	.st181{fill:url(#SVGID_179_);}
	.st182{fill:url(#SVGID_180_);}
	.st183{fill:url(#SVGID_181_);}
	.st184{fill:url(#SVGID_182_);}
	.st185{fill:url(#SVGID_183_);}
	.st186{fill:url(#SVGID_184_);}
	.st187{fill:url(#SVGID_185_);}
	.st188{fill:url(#SVGID_186_);}
	.st189{fill:url(#SVGID_187_);}
	.st190{fill:url(#SVGID_188_);}
	.st191{fill:#323232;}
	.st192{fill:#FFFFFF;}
</style>
<g>
	<path class="st192" d="M507.5,217C507.5,217,507.5,217,507.5,217c0.9-0.2,1.6-0.5,1.6-1.2c0-0.5-0.6-0.8-1.7-0.8
		c-1.6,0.1-4-0.1-5.5-0.2c-3.2-0.3-4-2.2-4.5-5.1c-0.6-4.6-0.9-13-1.3-23.4l-0.7-18.8c-0.6-16.3-0.7-19.2-0.6-22.7
		c0-2.2,0.4-3.7,1.1-4.7c0.3-0.1,0.7-0.2,1-0.3c1.3-0.3,2.1-0.4,3.2-0.4c1,0,3-0.2,3.2-2c0-0.1,0-0.2,0-0.3c0-0.6-0.9-0.8-2.3-0.8
		c-4.1,0.1-10.4,0.7-13,0.8c-3.1,0.1-9.8,0-13.9,0.2c-0.5,0-0.9,0.1-1.2,0.1c-0.1,0-0.2,0-0.4,0c-1.7,0.1-2.9,0.6-2.5,2
		c0.2,0.8,0.7,1,1.7,1c1.3,0,2.7,0,3.9,0.3c2.4,0.5,3.5,2.2,3.8,5.9c0.3,3.4,0.4,6.4,1,22.7l0.7,18.8c0.4,10.4,0.7,18.8,0.3,23.3
		c-0.1,1.8-0.4,3.2-1,4.2c-0.1,0-0.2,0.1-0.3,0.1c-1,0.2-2.2,0.5-3.8,0.6c-0.4,0-0.7,0.1-0.9,0.1c0,0,0,0,0,0c-1.3,0-2.3,0.7-2.3,2
		c0,0.7,0.8,1,2.2,1c4.3-0.2,11-0.7,13.5-0.8c2.9-0.1,9.6,0,16.7-0.3C506.7,218.1,507.6,217.7,507.5,217z"/>
	<path class="st192" d="M643.5,133.3c-9.4-4.8-23.3-10.3-37.9-16.2c3.9-15.4,7.8-30.2,9.5-40.8c7.3-44.8-44.6-80.9-84-61.1
		c-1.6,0.8-3.1,1.7-4.7,2.7c-4.2,2.6-9,6-14.2,9.9c-5.3,3.8-11.1,8.2-17.2,12.8c-7.2-7.1-13.8-13.4-19.3-17.9
		c-18.2-15-42.4-14.9-61.8-5.2c-3.9,2-7.7,4.3-11.1,7.1c-15.8,10.6-26.9,28-26,48.6c0.3,6.7,1.2,15.2,2.3,24.6
		c-12.5,3.6-24,7-32.3,10.2c-1.7,0.6-3.3,1.4-4.9,2.1c-3.3,1.7-6.4,3.7-9.2,5.9c-34.4,22.6-34.7,81.1,3.8,100.9
		c9.4,4.8,23.3,10.3,37.9,16.2c-3.9,15.4-7.8,30.2-9.5,40.8c-7.3,44.8,44.6,80.9,84,61.1c1.6-0.8,3.1-1.7,4.7-2.7
		c4.2-2.6,9-6,14.2-9.9c5.3-3.8,11.1-8.2,17.2-12.8c7.2,7.1,13.8,13.4,19.3,17.9c18.2,15,42.4,14.9,61.8,5.2c3.9-2,7.7-4.3,11.1-7.1
		c15.8-10.6,26.9-28,26-48.6c-0.3-6.7-1.2-15.2-2.3-24.6c12.5-3.6,24-7,32.3-10.2c1.7-0.6,3.3-1.4,4.9-2.1c3.3-1.7,6.4-3.7,9.2-5.9
		C681.7,211.6,682.1,153,643.5,133.3z M444,239.1c-10.7-7-26.3-13.9-42.8-20.7c4.1-16.8,7.6-32.8,8.3-45.1
		c0.9-15.9-1.8-38.6-4.8-61.1c16.8-5,32.7-10.1,43.8-15.7c9.3-4.7,20.4-12.2,31.9-20.7c2.9-2.1,5.9-4.3,8.9-6.5
		c16.3,16.3,33,32.8,46.4,41.6c10.7,7,26.3,13.9,42.8,20.7c-4.1,16.8-7.6,32.8-8.3,45.1c-0.9,15.9,1.8,38.6,4.8,61.1
		c-16.8,5-32.7,10.1-43.8,15.7c-9.3,4.7-20.4,12.2-31.9,20.7c-2.9,2.1-5.9,4.3-8.9,6.5C474.2,264.5,457.5,248,444,239.1z
		 M532.8,37.2c1-0.6,2-1.2,3-1.7c14.5-7.3,30.2-2.1,40,5.1c12.2,9,18.3,22.3,16.1,35.5c-1.3,8.2-4.2,19.8-7.4,32.4
		c-13.4-5.6-25.8-11.3-33.9-16.7c-11.4-7.5-26.8-22.6-41.6-37.3c5.2-3.9,10.1-7.7,14.7-11.1C527.1,41,530.1,38.9,532.8,37.2z
		 M418.6,37.7c11.2-5.6,27.8-7.9,40.7,2.8c4.5,3.7,10,9,16.1,14.9c-2.1,1.6-4.3,3.2-6.4,4.7c-9.3,6.7-18.1,12.5-25.1,16.1
		c-10,5-25.5,10-41.8,14.8c-1-8.3-1.8-15.8-2-21.6c-0.5-12.7,6-22.6,14.1-29.2C415.6,39.3,417.1,38.5,418.6,37.7z M346.5,130.3
		c1-0.5,2-1,3.1-1.4c7.9-3,19.5-6.4,32.1-10c2.7,20.9,5.3,42.4,4.5,56.2c-0.5,9.2-3,21.5-6.2,34.8c-12.1-4.9-23.3-9.4-30.8-13.2
		c-11.8-6.1-18.8-18.7-18.7-33.8c0-10.3,3.7-22.9,13.4-31.1C344.8,131.3,345.6,130.8,346.5,130.3z M447.1,313c-1,0.6-2,1.2-3,1.7
		c-14.5,7.3-30.2,2.1-40-5.1c-12.2-9-18.3-22.3-16.1-35.5c1.3-8.2,4.2-19.8,7.4-32.4c13.4,5.6,25.8,11.3,33.9,16.7
		c11.4,7.5,26.8,22.6,41.6,37.3c-5.2,3.9-10.1,7.7-14.7,11.1C452.9,309.1,449.8,311.2,447.1,313z M561.4,312.4
		c-11.2,5.6-27.8,7.9-40.7-2.8c-4.5-3.7-10-9-16.1-14.9c2.1-1.6,4.3-3.2,6.4-4.7c9.3-6.7,18.1-12.5,25.1-16.1
		c10-5,25.5-10,41.8-14.8c1,8.3,1.8,15.8,2,21.6c0.5,12.7-6,22.6-14.1,29.2C564.3,310.8,562.8,311.7,561.4,312.4z M633.4,219.8
		c-1,0.5-2,1-3.1,1.4c-7.9,3-19.5,6.4-32.1,10c-2.7-20.9-5.3-42.4-4.5-56.2c0.5-9.2,3-21.5,6.2-34.8c12.1,4.9,23.3,9.4,30.8,13.2
		c11.8,6.1,18.8,18.7,18.7,33.8c0,10.3-3.7,22.9-13.4,31.1C635.2,218.9,634.3,219.4,633.4,219.8z"/>
	<path class="st192" d="M363.9,349.1l-1.8-4.4l-1-2.4c-0.1-0.3-0.4-0.5-0.5-0.7l-0.3-0.6l-1-2.4c-2-3.5-5.8-5.9-10.1-5.9
		c-2.1,0-4,0.6-5.6,1.5l-0.1,0l-2.5,1.4c-4.5,2.5-8.9,5.1-13.3,7.8c-8.8,5.3-17.4,10.8-25.8,16.5c-8.5,5.7-16.7,11.6-24.9,17.7
		c-8.1,6.2-16.1,12.4-23.9,19.1c-6.2,5.3-12.1,10.7-18,16.2c-8.9,8.3-17.6,16.7-26,25.5c-10.1,10.7-19.9,21.7-28.8,33.2
		c-3.3,4.3-6.6,8.6-9.7,13.1c13.6-14.7,28.6-27.8,44.1-40.2c8.6-6.9,17.5-13.4,26.4-19.7c7.2-4.7,14.4-9.4,21.7-13.8
		c8.4-5.1,17-9.9,25.6-14.5c8.7-4.5,17.5-9,26.4-13.1c8.9-4.1,17.9-8.1,26.9-11.7c4.5-1.8,9-3.6,13.5-5.3c0,0,0,0,0.1,0l4.6-1.7
		c3.2-2,5.3-5.5,5.4-9.5c0-1.2-0.2-2.2-0.4-3.3L363.9,349.1z"/>
	<path class="st192" d="M145.7,309.7c1.4-1.1,2.7-2.3,4.1-3.4c0,0,0.1-0.1,0.1-0.1c23.9-19,48.9-36.5,74.7-52.2
		c12.9-7.8,26-15.1,39.3-21.8c3.3-1.6,6.6-3.3,10-4.9l5-2.4l5-2.2c2.5-1.1,4.9-2.1,7.3-3.1c0.6-0.2,1.2-0.5,1.8-0.8
		c3.6-1.9,6.2-5.6,6.3-10c0-1.3-0.2-2.6-0.6-3.8l-0.9-2.1l-11.3-26.8l-1-2.4c-2-3.4-5.6-5.8-9.8-5.9c-0.4,0-0.8,0.1-1.2,0.2
		c-1.6-0.9-3.4-1.4-5.4-1.4c-1.1,0-2.1,0.2-3.1,0.5c-0.2,0.1-0.5,0.1-0.7,0.2c-1,0.3-1.9,0.7-2.7,1.3l0-0.1
		c-3.5,2.3-7.1,4.6-10.4,6.9l-5.1,3.5l-5,3.6c-3.4,2.4-6.6,4.9-9.8,7.3c-12.9,9.9-25.3,20.2-37.3,30.9c-23.9,21.5-46.2,44.2-67,68.1
		c-6.4,7.4-12.6,14.9-18.5,22.6c-13.6,17.4-26.1,35.4-38,53.6c-8.5,13.2-16.7,26.5-24.6,40c-3.6,6.2-7.1,12.4-10.6,18.6
		c-4.1,7.4-8.2,14.8-12.1,22.3c9.1-12.6,18.6-24.9,28.4-37c9.7-12.1,19.7-24,29.9-35.5C102.3,350.7,123.3,328.9,145.7,309.7z"/>
	<path class="st192" d="M155.1,369.3c9.3-7.6,18.6-15,27.9-22.4c1.6-1.2,3.3-2.5,4.9-3.7c21.4-15.6,43.7-30.1,66.5-43.1
		c11.4-6.5,23-12.6,34.7-18.2c5.8-2.8,11.7-5.4,17.6-8c1.7-0.7,3.4-1.4,5.2-2.1c0.7-0.3,1.4-0.6,2.1-0.8c3.6-1.9,6.2-5.6,6.3-10
		c0-1.4-0.2-2.8-0.7-4.1l-0.4-1l-6.9-17.7l-0.2-0.4c-1.5-3.5-4.6-6.1-8.5-6.9c-1.9-1.4-4.3-2.4-6.9-2.4c-2.2,0-4.3,0.6-6,1.7
		c-0.2,0.1-0.4,0.3-0.6,0.4c-2.3,1.4-4.6,2.7-6.9,4.1c-6,3.7-11.9,7.6-17.7,11.5c-11.6,7.8-22.7,16.2-33.7,24.7
		c-21.7,17.2-42.3,35.5-61.8,54.7c-3.4,3.3-6.6,6.7-9.9,10.1c-15.8,16.3-30.5,33.6-44.4,51.4c-8.3,10.8-16.4,21.8-23.9,33.1
		c-3.6,5.4-7.1,10.8-10.5,16.3c-3.7,6.1-7.3,12.2-10.6,18.5c8-10.8,16.9-21,26-30.8c9.1-9.8,18.6-19.3,28.4-28.5
		C134.8,386.7,144.8,377.9,155.1,369.3z"/>
	<path class="st192" d="M213.6,385.1c3.9-2.9,7.8-5.7,11.7-8.4c4.7-3.3,9.5-6.4,14.4-9.4c5-2.9,10-5.8,15.1-8.5
		c10.1-5.6,20.4-10.8,30.8-15.8c10.4-5,20.9-9.7,31.5-14.1c5.3-2.2,10.6-4.4,15.9-6.4c0.7-0.3,1.3-0.5,2-0.8c1.4-0.5,2.8-1,4.1-1.6
		c3.3-2,5.5-5.5,5.6-9.7c0-1.4-0.2-2.7-0.6-4l-0.2-0.5l0.3-0.1l-7.9-17.1c-0.1-0.2-0.2-0.4-0.3-0.7l-0.4-0.9l0,0
		c-1.1-1.9-2.6-3.4-4.5-4.5c-2.1-2.5-5.3-4.2-8.9-4.2c-1.7,0-3.3,0.4-4.8,1l0,0c-0.1,0.1-0.2,0.1-0.3,0.2c-0.6,0.3-1.2,0.7-1.8,1.1
		c-1.2,0.7-2.2,1.2-3.9,2.4c-5.1,3.3-10.1,6.7-15.1,10.2c-10,6.9-19.7,14-29.3,21.4c-9.6,7.3-18.9,14.9-28.1,22.8
		c-4.6,3.9-9,8-13.5,12c-4.5,4-9,8.1-13.4,12.3c-4.8,4.6-9.5,9.4-14,14.2c-11.9,12.5-23.1,25.6-33.9,38.9
		c-10.7,13.4-21,27-30.8,40.9c-3.8,5.3-7.5,10.7-11.1,16.2c15.6-17.6,32.1-34.4,49.1-50.5C184.9,408.8,199,396.5,213.6,385.1z"/>
</g>
</svg>
