<svg width="2968" height="475" viewBox="0 0 2968 475" fill="none" xmlns="http://www.w3.org/2000/svg">
<path d="M456.6 159.456C456 143.156 455.9 140.256 455.6 136.756C455.3 133.156 454.1 131.356 451.8 130.856C450.6 130.556 449.2 130.556 447.9 130.556C446.8 130.556 446.4 130.356 446.2 129.556C445.8 128.156 447 127.556 448.7 127.556C452.8 127.456 459.5 128.556 462.6 128.456C465.3 128.356 471.6 127.856 475.6 127.656C477 127.656 479.4 126.656 479.4 127.256C479.5 129.356 477.2 129.556 476.2 129.556C475.2 129.556 474.3 129.756 473 129.956C470.1 130.556 469.3 132.456 469.3 136.156C469.2 139.556 469.3 142.556 469.9 158.856L470.6 177.656C471 188.056 471.3 196.456 471.9 201.056C472.3 203.956 473.1 205.856 476.4 206.156C477.9 206.356 480.3 206.456 481.9 206.356C483.1 206.356 483.6 206.656 483.6 207.156C483.6 207.856 482.8 208.256 481.6 208.256C474.5 208.456 467.8 208.456 464.9 208.556C462.4 208.656 455.7 209.156 451.4 209.356C450 209.356 449.3 209.156 449.2 208.356C449.2 207.056 450.2 206.456 451.5 206.356C453.1 206.256 453.8 207.056 454.7 206.856C456.8 206.356 457.4 204.556 457.6 201.356C458 196.856 457.7 188.356 457.3 178.056L456.6 159.456Z" fill="url(#paint0_linear)"/>
<path d="M458.1 158.256C457.5 141.956 457.4 139.056 457.1 135.556C456.8 131.956 455.6 130.156 453.3 129.656C452.1 129.356 450.7 129.356 449.4 129.356C448.3 129.356 447.7 129.156 447.7 128.356C447.7 127.756 448.5 127.456 450.2 127.456C454.3 127.356 461 127.356 464.1 127.256C466.8 127.156 473.1 126.656 477.1 126.456C478.5 126.456 479.4 126.556 479.4 127.256C479.4 128.156 478.8 128.356 477.7 128.356C476.6 128.356 475.8 128.556 474.5 128.756C471.6 129.356 470.8 131.256 470.8 134.956C470.7 138.356 470.8 141.356 471.4 157.656L472.1 176.456C472.5 186.856 472.8 195.256 473.4 199.856C473.8 202.756 474.6 204.656 477.9 204.956C479.4 205.156 481.8 205.256 483.4 205.156C484.6 205.156 485.1 205.456 485.1 205.956C485.1 206.656 484.3 207.056 483.1 207.056C476 207.256 469.3 207.256 466.4 207.356C463.9 207.456 457.2 207.956 452.9 208.156C451.5 208.156 450.8 207.956 450.7 207.156C450.7 206.656 451.1 206.256 452.4 206.256C454 206.156 455.3 205.956 456.2 205.656C458.3 205.156 458.9 203.356 459.1 200.156C459.5 195.656 459.2 187.156 458.8 176.856L458.1 158.256Z" fill="url(#paint1_linear)"/>
<path d="M428.7 322.356C389.2 342.156 337.4 306.056 344.7 261.256C346.3 251.656 349.6 238.556 353.1 224.556C352.1 224.156 351.1 223.756 350.2 223.356C346.3 238.756 342.4 253.556 340.7 264.156C333.4 308.956 385.3 345.056 424.7 325.256C426.3 324.456 427.8 323.556 429.4 322.556C433.6 319.956 438.4 316.556 443.6 312.656C439.9 315.356 436.4 317.656 433.4 319.656C431.9 320.756 430.3 321.556 428.7 322.356Z" fill="url(#paint2_linear)"/>
<path d="M613.1 229.656C603.9 233.156 590.6 236.956 576.6 241.056C576.7 241.656 576.7 242.156 576.8 242.756C589.3 239.156 600.8 235.756 609.1 232.556C610.8 231.956 612.4 231.156 614 230.456C617.3 228.756 620.4 226.756 623.2 224.556C621.5 225.656 619.8 226.656 617.9 227.556C616.4 228.356 614.8 229.056 613.1 229.656Z" fill="url(#paint3_linear)"/>
<path d="M484.1 314.956C478.6 310.356 471.9 304.056 464.7 296.956C463.4 297.956 462.1 298.956 460.8 299.956C468 307.056 474.6 313.356 480.1 317.856C498.3 332.856 522.5 332.756 541.9 323.056C545.8 321.056 549.6 318.756 553 315.956C550.7 317.456 548.3 318.856 545.9 320.156C526.5 329.856 502.3 329.956 484.1 314.956Z" fill="url(#paint4_linear)"/>
<path d="M488.1 18.1562C482.8 21.9562 477 26.3562 470.9 30.9562L471 31.0563C476.9 26.4563 482.7 22.0563 488.1 18.1562Z" fill="#A0A0A0"/>
<path d="M325.5 119.356C333.4 116.356 345 112.956 357.6 109.356C357.5 108.756 357.5 108.256 357.4 107.656C346.4 110.856 336.5 113.756 329.5 116.456C328.4 116.856 327.4 117.356 326.4 117.856C323.9 119.056 321.8 120.556 319.8 122.256C320.6 121.756 321.5 121.256 322.4 120.756C323.4 120.156 324.5 119.756 325.5 119.356Z" fill="url(#paint5_linear)"/>
<path d="M553.7 249.456C553.6 248.956 553.6 248.356 553.5 247.756C538.8 252.156 525 256.756 515.9 261.256C507.8 265.356 497.6 272.356 486.8 280.256C496.1 273.556 504.9 267.756 511.9 264.156C521.9 259.156 537.4 254.256 553.7 249.456Z" fill="url(#paint6_linear)"/>
<path d="M466.4 271.156C469.4 268.956 472.3 266.756 475.2 264.556C472.3 266.756 469.4 268.856 466.4 271.156Z" fill="#A0A0A0"/>
<path d="M424.6 86.9563C433.9 82.2563 445 74.7563 456.5 66.2563C446.4 73.5563 436.8 79.9563 428.6 84.0563C416.6 90.0563 398.9 95.6563 380.6 100.956C380.7 101.556 380.7 102.056 380.8 102.656C397.6 97.6563 413.5 92.4563 424.6 86.9563Z" fill="url(#paint7_linear)"/>
<path d="M450.1 283.456C449 284.256 447.9 285.156 446.8 285.956C441.6 289.856 436.7 293.656 432.1 297.056C437.7 293.056 444.1 288.156 450.8 283.056L450.7 282.956C450.5 283.156 450.3 283.356 450.1 283.456Z" fill="#A0A0A0"/>
<path d="M511.7 25.8563C526.2 18.5563 541.9 23.7563 551.7 30.9563C563.9 39.9563 570 53.2563 567.8 66.4563C566.5 74.6563 563.6 86.2563 560.4 98.8563C561.4 99.2563 562.4 99.6563 563.3 100.056C566.9 85.9563 570.3 72.6563 571.8 63.5563C574 50.3563 567.9 37.0563 555.7 28.0563C545.9 20.8563 530.2 15.6563 515.7 22.9563C514.7 23.4563 513.7 24.0563 512.7 24.6563C509 27.0563 504.5 30.1563 499.6 33.7563C502.9 31.3563 506 29.2563 508.7 27.5563C509.7 26.9563 510.7 26.3563 511.7 25.8563Z" fill="url(#paint8_linear)"/>
<path d="M445 50.556C448.4 48.156 451.9 45.556 455.4 42.956C455.4 42.956 455.4 42.956 455.3 42.856C454 43.856 452.7 44.856 451.4 45.856C449.2 47.456 447.1 48.956 445 50.556Z" fill="#A0A0A0"/>
<path d="M435.2 30.8562C439.7 34.5562 445.2 39.8562 451.3 45.7562C452.6 44.7562 453.9 43.7562 455.2 42.7562C449.1 36.8562 443.6 31.5562 439.1 27.8562C426.2 17.1562 409.6 19.4562 398.4 25.0562C395.6 26.4562 392.7 28.2562 390 30.4562C391.5 29.5562 392.9 28.6562 394.4 27.9562C405.7 22.4562 422.3 20.2562 435.2 30.8562Z" fill="url(#paint9_linear)"/>
<path d="M443.7 312.756C449 308.956 454.8 304.556 460.9 299.956L460.8 299.856C454.8 304.356 449 308.756 443.7 312.756Z" fill="url(#paint10_linear)"/>
<path d="M486.7 280.256C483.3 282.656 479.8 285.256 476.3 287.856C476.3 287.856 476.3 287.856 476.4 287.956C477.7 286.956 479 285.956 480.3 284.956C482.5 283.456 484.6 281.856 486.7 280.256Z" fill="url(#paint11_linear)"/>
<path d="M476.4 287.956C479.9 285.356 483.4 282.756 486.8 280.356C497.6 272.456 507.8 265.456 515.9 261.356C525 256.756 538.8 252.256 553.5 247.856C552.9 242.856 552.2 237.656 551.5 232.356C551.4 231.556 551.3 230.756 551.2 229.956C532.8 235.256 515.2 240.856 503.2 246.856C495 250.956 485.4 257.356 475.3 264.656C472.4 266.756 469.5 268.956 466.5 271.256C462.4 274.356 458.3 277.556 454.1 280.656C453 281.456 451.9 282.356 450.8 283.156C444.1 288.256 437.7 293.156 432.1 297.156C427.2 300.756 422.7 303.956 419 306.256C418 306.856 417 307.456 416 307.956C401.5 315.256 385.8 310.056 376 302.856C363.8 293.856 357.7 280.556 359.9 267.356C361.4 258.256 364.8 244.956 368.4 230.856C363.4 228.756 358.2 226.756 353.1 224.656C349.5 238.656 346.2 251.756 344.7 261.356C337.4 306.156 389.3 342.256 428.7 322.456C430.3 321.656 431.8 320.756 433.4 319.756C436.5 317.756 439.9 315.456 443.6 312.756C449 308.856 454.7 304.356 460.7 299.856C465.9 295.856 471.2 291.856 476.4 287.956Z" fill="#A0A0A0"/>
<path d="M507.2 243.956C497.9 248.656 486.8 256.156 475.3 264.656C472.4 266.756 469.5 268.956 466.5 271.256C462.4 274.356 458.3 277.556 454.1 280.656C453 281.456 451.9 282.356 450.8 283.156C444.1 288.256 437.7 293.156 432.1 297.156C428.8 299.556 425.7 301.656 423 303.356C422 303.956 421 304.556 420 305.056C405.5 312.356 389.8 307.156 380 299.956C367.8 290.956 361.7 277.656 363.9 264.456C365.2 256.256 368.1 244.656 371.3 232.056C370.3 231.656 369.3 231.256 368.4 230.856C363.4 228.756 358.2 226.756 353.1 224.656C349.5 238.656 346.2 251.756 344.7 261.356C337.4 306.156 389.3 342.256 428.7 322.456C430.3 321.656 431.8 320.756 433.4 319.756C436.5 317.756 439.9 315.456 443.6 312.756C449 308.856 454.7 304.356 460.7 299.856C465.9 295.956 471.1 291.856 476.3 287.956C479.8 285.356 483.3 282.756 486.7 280.356C497.5 272.456 507.7 265.456 515.8 261.356C524.9 256.756 538.7 252.256 553.4 247.856C552.8 242.856 552.1 237.656 551.4 232.356C551.3 231.556 551.2 230.756 551.1 229.956C551 229.356 551 228.856 550.9 228.256C534.2 233.156 518.3 238.356 507.2 243.956Z" fill="url(#paint12_linear)"/>
<path d="M476.5 287.956C476.4 287.956 476.4 287.956 476.5 287.956C471.2 291.856 465.9 295.856 460.8 299.756L460.9 299.856C462.2 298.856 463.5 297.856 464.8 296.856C468.6 293.956 472.5 290.956 476.5 287.956Z" fill="#A0A0A0"/>
<path d="M476.5 287.956C476.4 287.956 476.4 287.956 476.5 287.956C471.2 291.856 465.9 295.856 460.8 299.756L460.9 299.856C462.2 298.856 463.5 297.856 464.8 296.856C468.6 293.956 472.5 290.956 476.5 287.956Z" fill="url(#paint13_linear)"/>
<path d="M551.2 229.856C551.3 230.656 551.4 231.456 551.5 232.256C552.2 237.556 552.9 242.856 553.5 247.756C554.9 247.356 556.3 246.956 557.7 246.556C557 241.156 556.3 235.356 555.5 229.356C555.4 228.556 555.3 227.756 555.2 226.956C553.8 227.356 552.4 227.756 551 228.156C551.1 228.756 551.2 229.356 551.2 229.856Z" fill="#A0A0A0"/>
<path d="M554.6 122.056C550.5 138.856 547 154.856 546.3 167.156C545.4 183.056 548.1 205.756 551.1 228.256C551.2 228.856 551.2 229.356 551.3 229.956C551.4 230.756 551.5 231.556 551.6 232.356C552.3 237.656 553 242.956 553.6 247.856C553.7 248.456 553.7 248.956 553.8 249.556C554.8 257.856 555.6 265.356 555.8 271.156C556.3 283.856 549.8 293.756 541.7 300.356C551.5 293.956 560.4 282.956 559.7 268.256C559.5 262.456 558.7 254.956 557.7 246.656C557 241.256 556.3 235.456 555.5 229.456C555.4 228.656 555.3 227.856 555.2 227.056C552.2 204.056 549.3 180.556 550.2 164.256C550.9 153.056 553.8 138.556 557.5 123.256C556.6 122.856 555.6 122.456 554.6 122.056Z" fill="url(#paint14_linear)"/>
<path d="M372.4 227.856C366.4 225.356 360.2 222.956 354.2 220.456C353.9 221.856 353.5 223.156 353.2 224.556C358.3 226.556 363.4 228.656 368.5 230.756C369.5 231.156 370.5 231.556 371.4 231.956C371.7 230.656 372 229.256 372.4 227.856Z" fill="#A0A0A0"/>
<path d="M409.2 245.756C400.4 239.956 386.8 233.856 372.3 227.856C366.3 225.356 360.1 222.956 354.1 220.456C339.5 214.656 325.6 209.056 316.2 204.256C279.2 185.256 278 130.556 308.4 106.256C274 128.856 273.7 187.356 312.2 207.156C321.6 211.956 335.5 217.456 350.1 223.356C351.1 223.756 352.1 224.156 353 224.556C358.1 226.556 363.2 228.656 368.3 230.756C369.3 231.156 370.3 231.556 371.2 231.956C384.6 237.556 397 243.256 405.1 248.656C416.5 256.156 431.9 271.256 446.7 285.956C447.8 285.156 448.9 284.256 450 283.456C450.2 283.256 450.4 283.156 450.6 282.956C435.9 268.256 420.6 253.256 409.2 245.756Z" fill="url(#paint15_linear)"/>
<path d="M615.4 126.556C606 121.756 592.1 116.256 577.5 110.356C571.5 107.956 565.3 105.456 559.3 102.956C544.8 96.9563 531.2 90.8563 522.4 85.0563C511.1 77.5563 495.7 62.5563 480.9 47.7563C477 50.7563 473.1 53.7563 469.2 56.6563C485.5 72.9563 502.2 89.4563 515.7 98.3563C526.4 105.356 542 112.256 558.5 119.056C564 121.256 569.5 123.556 575 125.756C575.6 125.956 576.1 126.256 576.7 126.456C590 131.756 602.4 136.756 610.5 140.856C622.3 146.956 629.3 159.556 629.2 174.656C629.1 186.256 624.5 200.856 611.8 208.656C609.9 210.356 607.7 211.756 605.2 213.056C604.2 213.556 603.2 214.056 602.1 214.456C595.1 217.156 585.2 220.156 574.2 223.256C575 229.356 575.8 235.356 576.5 241.056C590.6 237.056 603.8 233.256 613 229.656C614.7 229.056 616.3 228.256 617.9 227.556C619.7 226.656 621.5 225.656 623.2 224.556C653.6 200.256 652.4 145.456 615.4 126.556Z" fill="#A0A0A0"/>
<path d="M560.4 98.856C560.1 100.256 559.7 101.556 559.3 102.956C565.3 105.456 571.5 107.856 577.5 110.356C577.8 108.956 578.2 107.656 578.5 106.256C573.4 104.256 568.3 102.156 563.2 100.056C562.4 99.656 561.4 99.256 560.4 98.856Z" fill="#A0A0A0"/>
<path d="M619.4 123.656C610 118.856 596.1 113.356 581.5 107.456C580.5 107.056 579.5 106.656 578.6 106.256C573.5 104.256 568.4 102.156 563.3 100.056C562.3 99.656 561.3 99.256 560.4 98.856C547 93.256 534.6 87.556 526.5 82.156C515.1 74.656 499.7 59.556 484.9 44.856C483.8 45.656 482.7 46.556 481.6 47.356C481.4 47.556 481.2 47.656 481 47.856C477.1 50.856 473.2 53.856 469.3 56.756C485.6 73.056 502.3 89.556 515.8 98.456C526.5 105.456 542.1 112.356 558.6 119.156C564.1 121.356 569.6 123.656 575.1 125.856C575.7 126.056 576.2 126.356 576.8 126.556C590.1 131.856 602.5 136.856 610.6 140.956C622.4 147.056 629.4 159.656 629.3 174.756C629.2 186.356 624.6 200.956 611.9 208.756C611.1 209.256 610.2 209.756 609.3 210.256C608.3 210.756 607.3 211.256 606.2 211.656C598.3 214.656 586.7 218.056 574.1 221.656C574.2 222.256 574.2 222.756 574.3 223.356C575.1 229.456 575.9 235.456 576.6 241.156C590.7 237.156 603.9 233.356 613.1 229.756C614.8 229.156 616.4 228.356 618 227.656C619.8 226.756 621.6 225.756 623.3 224.656C657.6 201.956 658 143.356 619.4 123.656Z" fill="url(#paint16_linear)"/>
<path d="M571.1 128.656C571.7 128.856 572.2 129.156 572.8 129.356C573.8 129.756 574.8 130.156 575.8 130.556C576.1 129.156 576.4 127.856 576.8 126.456C576.2 126.256 575.7 125.956 575.1 125.756C569.6 123.556 564 121.356 558.6 119.056C558.3 120.456 557.9 121.756 557.6 123.156C562.1 125.056 566.6 126.856 571.1 128.656Z" fill="#A0A0A0"/>
<path d="M610.5 140.956C602.5 136.856 590 131.856 576.7 126.556C576.1 126.356 575.6 126.056 575 125.856C569.5 123.656 563.9 121.456 558.5 119.156C542 112.356 526.4 105.456 515.7 98.4563C502.2 89.5563 485.5 73.0563 469.2 56.7563C467.9 57.7563 466.6 58.7563 465.3 59.7563C481.6 76.0563 498.3 92.5563 511.7 101.356C522.4 108.356 538 115.256 554.5 122.056C555.5 122.456 556.5 122.856 557.5 123.256C562 125.056 566.5 126.856 571 128.656C571.6 128.856 572.1 129.156 572.7 129.356C573.7 129.756 574.7 130.156 575.7 130.556C587.8 135.456 599 139.956 606.5 143.756C618.3 149.856 625.3 162.456 625.2 177.556C625.1 187.856 621.5 200.456 611.8 208.656C624.5 200.856 629.1 186.256 629.2 174.656C629.3 159.556 622.3 146.956 610.5 140.956Z" fill="url(#paint17_linear)"/>
<path d="M574.3 223.256C572.9 223.656 571.5 224.056 570.1 224.456C571 231.156 571.8 237.756 572.6 243.956C574 243.556 575.4 243.156 576.8 242.756C576.7 242.156 576.7 241.656 576.6 241.056C575.9 235.356 575.1 229.356 574.3 223.256Z" fill="#A0A0A0"/>
<path d="M575.2 270.256C574.9 263.156 573.9 253.956 572.7 243.956C571.9 237.656 571.1 231.056 570.2 224.456C567.5 203.556 564.9 182.056 565.7 168.256C566.3 158.156 569.3 144.156 572.8 129.356C572.2 129.156 571.7 128.856 571.1 128.656C566.6 126.856 562.1 125.056 557.6 123.256C553.9 138.556 550.9 152.956 550.3 164.256C549.3 180.456 552.3 203.956 555.3 227.056C555.4 227.856 555.5 228.656 555.6 229.456C556.4 235.356 557.1 241.156 557.8 246.656C558.8 254.956 559.6 262.456 559.8 268.256C560.4 282.956 551.5 293.956 541.8 300.356C539.1 302.556 536.2 304.356 533.4 305.756C522.2 311.356 505.6 313.656 492.7 302.956C488.2 299.256 482.7 294.056 476.6 288.056C472.7 291.056 468.7 294.056 464.9 296.956C472.1 304.056 478.8 310.456 484.3 314.956C502.5 329.956 526.7 329.856 546.1 320.156C548.6 318.956 550.9 317.556 553.2 315.956C566.8 305.256 575.9 289.056 575.2 270.256Z" fill="#A0A0A0"/>
<path d="M572.8 129.356C572.2 129.156 571.7 128.856 571.1 128.656C566.6 126.856 562.1 125.056 557.6 123.256C553.9 138.556 550.9 152.956 550.3 164.256C549.3 180.456 552.3 203.956 555.3 227.056C555.4 227.856 555.5 228.656 555.6 229.456C556.4 235.356 557.1 241.156 557.8 246.656C558.8 254.956 559.6 262.456 559.8 268.256C560.4 282.956 551.5 293.956 541.8 300.356C540.3 301.256 538.9 302.156 537.4 302.856C526.2 308.456 509.6 310.756 496.7 300.056C492.2 296.356 486.7 291.056 480.6 285.156C479.3 286.156 478 287.156 476.7 288.156C472.8 291.156 468.8 294.156 465 297.056C472.2 304.156 478.9 310.556 484.4 315.056C502.6 330.056 526.8 329.956 546.2 320.256C548.7 319.056 551 317.656 553.3 316.056C569.1 305.456 580.2 288.056 579.3 267.456C579 260.756 578.1 252.256 577 242.856C576.9 242.256 576.9 241.756 576.8 241.156C576.1 235.456 575.3 229.456 574.5 223.356C574.4 222.756 574.4 222.256 574.3 221.656C571.6 200.756 569 179.256 569.8 165.456C570.3 156.256 572.8 143.956 576 130.656C574.8 130.156 573.8 129.756 572.8 129.356Z" fill="url(#paint18_linear)"/>
<path d="M462.5 274.056C458.6 276.956 454.7 279.956 450.8 282.956L450.9 283.056C452 282.256 453.1 281.356 454.2 280.556C458.3 277.456 462.4 274.256 466.6 271.156C466.6 271.156 466.6 271.156 466.5 271.056C465.1 272.156 463.8 273.056 462.5 274.056Z" fill="#A0A0A0"/>
<path d="M462.5 274.056C458.6 276.956 454.7 279.956 450.8 282.956L450.9 283.056C452 282.256 453.1 281.356 454.2 280.556C458.3 277.456 462.4 274.256 466.6 271.156C466.6 271.156 466.6 271.156 466.5 271.056C465.1 272.156 463.8 273.056 462.5 274.056Z" fill="url(#paint19_linear)"/>
<path d="M316.3 204.356C325.7 209.156 339.6 214.656 354.2 220.556C360.2 222.956 366.4 225.456 372.4 227.956C386.9 233.956 400.5 240.056 409.3 245.856C420.6 253.356 436 268.356 450.8 283.156C454.7 280.156 458.6 277.156 462.5 274.256C446.2 257.956 429.5 241.456 416 232.556C405.3 225.556 389.7 218.656 373.2 211.856C367.7 209.656 362.2 207.356 356.7 205.156C356.1 204.956 355.6 204.656 355 204.456C341.7 199.156 329.3 194.156 321.2 190.056C309.4 183.956 302.4 171.356 302.5 156.256C302.6 144.656 307.2 130.056 319.9 122.256C321.8 120.556 324 119.156 326.5 117.856C327.5 117.356 328.5 116.856 329.6 116.456C336.6 113.756 346.5 110.756 357.5 107.656C356.7 101.556 355.9 95.556 355.2 89.856C341.1 93.856 327.9 97.656 318.7 101.256C317 101.856 315.4 102.656 313.8 103.356C312 104.256 310.2 105.256 308.5 106.356C278.1 130.656 279.3 185.356 316.3 204.356Z" fill="#A0A0A0"/>
<path d="M357.4 107.556C358.8 107.156 360.2 106.756 361.6 106.356C360.7 99.656 359.9 93.056 359.1 86.856C357.7 87.256 356.3 87.656 354.9 88.056C355 88.656 355 89.156 355.1 89.756C355.8 95.456 356.6 101.556 357.4 107.556Z" fill="#A0A0A0"/>
<path d="M352.6 63.456C352.9 70.156 353.8 78.656 354.9 88.056C355 88.656 355 89.156 355.1 89.756C355.8 95.456 356.6 101.456 357.4 107.556C357.5 108.156 357.5 108.656 357.6 109.256C360.3 130.156 362.9 151.656 362.1 165.456C361.6 174.656 359.1 186.956 355.9 200.256C356.9 200.656 357.9 201.056 358.9 201.456C362.5 186.656 365.4 172.656 366 162.556C366.8 148.756 364.2 127.256 361.5 106.356C360.6 99.656 359.8 93.056 359 86.856C357.8 76.856 356.8 67.756 356.5 60.556C355.7 41.756 364.9 25.556 378.5 14.856C362.8 25.456 351.7 42.856 352.6 63.456Z" fill="url(#paint20_linear)"/>
<path d="M360.6 202.156C360 201.956 359.5 201.656 358.9 201.456C357.9 201.056 356.9 200.656 355.9 200.256C355.6 201.656 355.3 202.956 354.9 204.356C355.5 204.556 356 204.856 356.6 205.056C362.1 207.256 367.7 209.456 373.1 211.756C373.4 210.356 373.8 209.056 374.1 207.656C369.7 205.756 365.2 203.956 360.6 202.156Z" fill="#A0A0A0"/>
<path d="M419.9 229.456C409.2 222.456 393.6 215.556 377.1 208.756C376.1 208.356 375.1 207.956 374.1 207.556C369.6 205.756 365.1 203.956 360.6 202.156C360 201.956 359.5 201.656 358.9 201.456C357.9 201.056 356.9 200.656 355.9 200.256C343.8 195.356 332.6 190.856 325.1 187.056C313.3 180.956 306.3 168.356 306.4 153.256C306.5 142.956 310.1 130.356 319.8 122.156C321.7 120.456 323.9 119.056 326.4 117.756C327.4 117.256 328.4 116.756 329.5 116.356C336.5 113.656 346.4 110.656 357.4 107.556C356.6 101.456 355.8 95.4562 355.1 89.7562C355 89.1562 355 88.6562 354.9 88.0562C342.4 91.6562 330.9 95.0562 322.6 98.2562C320.9 98.8562 319.3 99.6562 317.7 100.356C314.4 102.056 311.3 104.056 308.5 106.256C278.1 130.556 279.3 185.256 316.3 204.256C325.7 209.056 339.6 214.556 354.2 220.456C360.2 222.856 366.4 225.356 372.4 227.856C386.9 233.856 400.5 239.956 409.3 245.756C420.6 253.256 436 268.256 450.8 283.056C454.7 280.056 458.6 277.056 462.5 274.156C463.8 273.156 465.1 272.156 466.4 271.156C450.1 254.856 433.4 238.356 419.9 229.456Z" fill="url(#paint21_linear)"/>
<path d="M484.9 44.8563C490.1 40.9563 495 37.1563 499.6 33.7563C494 37.7563 487.6 42.6563 480.9 47.7563L481 47.8563C481.2 47.6563 481.4 47.5563 481.6 47.3563C482.7 46.5563 483.8 45.6563 484.9 44.8563Z" fill="url(#paint22_linear)"/>
<path d="M465.3 59.6562C462.3 61.8563 459.4 64.0562 456.5 66.2562C459.4 64.1562 462.4 61.9562 465.3 59.6562Z" fill="url(#paint23_linear)"/>
<path d="M477.7 50.2563C473.6 53.3563 469.5 56.5563 465.3 59.6563C465.3 59.6563 465.3 59.6563 465.4 59.7563C466.7 58.7563 468 57.7563 469.3 56.7563C473.2 53.8563 477.1 50.8563 481 47.8563L480.9 47.7563C479.8 48.5563 478.7 49.4563 477.7 50.2563Z" fill="#A0A0A0"/>
<path d="M477.7 50.2563C473.6 53.3563 469.5 56.5563 465.3 59.6563C465.3 59.6563 465.3 59.6563 465.4 59.7563C466.7 58.7563 468 57.7563 469.3 56.7563C473.2 53.8563 477.1 50.8563 481 47.8563L480.9 47.7563C479.8 48.5563 478.7 49.4563 477.7 50.2563Z" fill="url(#paint24_linear)"/>
<path d="M455.3 42.9563C451.8 45.5563 448.3 48.1563 444.9 50.5563C434.1 58.4563 423.9 65.4563 415.8 69.5563C406.7 74.1563 392.9 78.6563 378.2 83.0563C378.8 88.0563 379.5 93.2563 380.2 98.5563C380.3 99.3563 380.4 100.156 380.5 100.956C398.9 95.6563 416.5 90.0563 428.5 84.0563C436.7 79.9563 446.3 73.5563 456.4 66.2563C459.3 64.1563 462.2 61.9563 465.2 59.6563C469.3 56.5563 473.4 53.3563 477.6 50.2563C478.7 49.4563 479.8 48.5563 480.9 47.7563C487.6 42.6563 494 37.7563 499.6 33.7563C504.5 30.1563 509 26.9563 512.7 24.6563C513.7 24.0563 514.7 23.4563 515.7 22.9563C530.2 15.6563 545.9 20.8563 555.7 28.0563C567.9 37.0563 574 50.3563 571.8 63.5563C570.3 72.6563 566.9 85.9563 563.3 100.056C568.3 102.156 573.5 104.156 578.6 106.256C582.2 92.2563 585.5 79.1563 587 69.5563C594.3 24.7563 542.4 -11.3437 503 8.45629C501.4 9.25629 499.9 10.1563 498.3 11.1563C495.2 13.1563 491.8 15.4563 488.1 18.1563C482.7 22.0563 477 26.5563 471 31.0563C465.8 34.9563 460.6 38.9563 455.3 42.9563Z" fill="#A0A0A0"/>
<path d="M507 5.55616C505.4 6.35616 503.9 7.25616 502.3 8.25616C498.1 10.8562 493.3 14.2562 488.1 18.1562C482.7 22.0562 477 26.5562 471 31.0562C465.8 34.9562 460.6 39.0562 455.4 42.9562C451.9 45.5562 448.4 48.1562 445 50.5562C435.7 57.2562 426.9 63.0562 419.9 66.6562C409.9 71.6562 394.4 76.6562 378.1 81.4562C378.2 81.9562 378.2 82.5562 378.3 83.1562C378.9 88.1562 379.6 93.3562 380.3 98.6562C380.4 99.4562 380.5 100.256 380.6 101.056C399 95.7562 416.6 90.1562 428.6 84.1562C436.8 80.0562 446.4 73.6562 456.5 66.3562C459.4 64.2562 462.3 62.0562 465.3 59.7562C469.4 56.6562 473.5 53.4562 477.7 50.3562C478.8 49.5562 479.9 48.6562 481 47.8562C487.7 42.7562 494.1 37.8562 499.7 33.8562C504.6 30.2562 509.1 27.0562 512.8 24.7562C513.8 24.1562 514.8 23.5562 515.8 23.0562C530.3 15.7562 546 20.9562 555.8 28.1562C568 37.1562 574.1 50.4562 571.9 63.6562C570.4 72.7562 567 86.0562 563.4 100.156C568.4 102.256 573.6 104.256 578.7 106.356C579.7 106.756 580.7 107.156 581.6 107.556C585.5 92.1562 589.4 77.3562 591.1 66.7562C598.3 21.8562 546.4 -14.2438 507 5.55616Z" fill="url(#paint25_linear)"/>
<path d="M380.5 100.956C380.4 100.156 380.3 99.3562 380.2 98.5562C379.5 93.2562 378.8 87.9562 378.2 83.0562C376.8 83.4562 375.4 83.8562 374 84.2562C374.7 89.6562 375.4 95.4562 376.2 101.456C376.3 102.256 376.4 103.056 376.5 103.856C377.9 103.456 379.3 103.056 380.7 102.656C380.7 102.056 380.6 101.556 380.5 100.956Z" fill="#A0A0A0"/>
<path d="M455.3 42.8561C460.6 38.9561 465.9 34.9561 471 31.0561L470.9 30.9561C469.6 31.9561 468.3 32.9561 467 33.9561C463.1 36.8561 459.2 39.8561 455.3 42.8561Z" fill="#A0A0A0"/>
<path d="M455.3 42.8561C460.6 38.9561 465.9 34.9561 471 31.0561L470.9 30.9561C469.6 31.9561 468.3 32.9561 467 33.9561C463.1 36.8561 459.2 39.8561 455.3 42.8561Z" fill="url(#paint26_linear)"/>
<path d="M356.6 60.556C356.9 67.656 357.9 76.856 359.1 86.856C359.9 93.156 360.7 99.756 361.6 106.356C364.3 127.256 366.9 148.756 366.1 162.556C365.5 172.656 362.5 186.656 359 201.456C359.6 201.656 360.1 201.956 360.7 202.156C365.2 203.956 369.7 205.756 374.2 207.556C377.9 192.256 380.9 177.856 381.5 166.556C382.5 150.356 379.5 126.856 376.5 103.756C376.4 102.956 376.3 102.156 376.2 101.356C375.4 95.456 374.7 89.656 374 84.156C373 75.856 372.2 68.356 372 62.556C371.4 47.856 380.3 36.856 390 30.456C392.7 28.256 395.6 26.456 398.4 25.056C409.6 19.456 426.2 17.156 439.1 27.856C443.6 31.556 449.1 36.756 455.2 42.756C459.1 39.756 463.1 36.756 466.9 33.856C459.7 26.756 453 20.356 447.5 15.856C429.3 0.856035 405.1 0.956035 385.7 10.656C383.2 11.856 380.9 13.256 378.6 14.856C365 25.556 355.8 41.756 356.6 60.556Z" fill="#A0A0A0"/>
<path d="M451.6 12.9561C433.4 -2.04387 409.2 -1.94387 389.8 7.75613C385.9 9.75613 382.1 12.0561 378.7 14.8561C365.1 25.5561 355.9 41.7561 356.7 60.5561C357 67.6561 358 76.8561 359.2 86.8561C360 93.1561 360.8 99.7561 361.7 106.356C364.4 127.256 367 148.756 366.2 162.556C365.6 172.656 362.6 186.656 359.1 201.456C359.7 201.656 360.2 201.956 360.8 202.156C365.3 203.956 369.8 205.756 374.3 207.556C375.3 207.956 376.3 208.356 377.3 208.756C381.4 191.956 384.9 175.956 385.6 163.656C386.5 147.756 383.8 125.056 380.8 102.556C380.7 101.956 380.7 101.456 380.6 100.856C380.5 100.056 380.4 99.2561 380.3 98.4561C379.6 93.1561 378.9 87.8561 378.3 82.9561C378.2 82.3561 378.2 81.8561 378.1 81.2561C377.1 72.9561 376.3 65.4561 376.1 59.6561C375.6 46.9561 382.1 37.0561 390.2 30.4561C392.9 28.2561 395.8 26.4561 398.6 25.0561C409.8 19.4561 426.4 17.1561 439.3 27.8561C443.8 31.5561 449.3 36.7561 455.4 42.7561C459.3 39.7561 463.3 36.7561 467.1 33.8561C468.4 32.8561 469.7 31.8561 471 30.8561C463.7 23.8561 457.1 17.5561 451.6 12.9561Z" fill="url(#paint27_linear)"/>
<path d="M254.9 162.556L256 164.956L268.1 191.456L269 193.456C269.4 194.656 269.7 195.956 269.7 197.256C269.7 201.656 267.2 205.456 263.7 207.456C263.1 207.756 262.5 207.956 262 208.256C259.6 209.356 257.2 210.356 254.8 211.556L249.9 213.956L245 216.456C241.7 218.056 238.4 219.856 235.2 221.656C222.1 228.756 209.2 236.456 196.5 244.556C172.2 260.356 148.6 277.756 126.1 296.556C150 277.556 175 260.056 200.8 244.356C213.7 236.556 226.8 229.256 240.1 222.556C243.4 220.956 246.7 219.256 250.1 217.656L255.1 215.256L260.1 213.056C262.6 211.956 265 210.956 267.4 209.956C268 209.756 268.6 209.456 269.2 209.156C272.8 207.256 275.4 203.556 275.5 199.156C275.5 197.856 275.3 196.556 274.9 195.356L274 193.256L262.7 166.456L261.7 164.056C259.7 160.656 256.1 158.256 251.9 158.156C251.5 158.156 251.1 158.256 250.7 158.356C252.2 159.256 253.8 160.756 254.9 162.556Z" fill="url(#paint28_linear)"/>
<path d="M121.6 300.056C123 298.956 124.3 297.756 125.7 296.656C124.8 297.356 123.9 298.056 123.1 298.856C122.6 299.256 122.1 299.656 121.6 300.056Z" fill="url(#paint29_linear)"/>
<path d="M283.3 225.956L283.5 226.356L290.9 243.856L291.3 244.756C291.8 246.056 292.1 247.356 292.1 248.856C292.1 253.256 289.6 257.056 286.1 259.056C285.4 259.356 284.7 259.656 284 259.956C282.3 260.756 280.6 261.456 278.9 262.156C273.1 264.856 267.3 267.656 261.5 270.656C249.9 276.556 238.6 283.056 227.3 289.856C204.9 303.456 183.1 318.556 162.1 334.756C161 335.556 160 336.456 158.9 337.356C160.5 336.156 162.2 334.856 163.8 333.656C185.2 318.056 207.5 303.556 230.3 290.556C241.7 284.056 253.3 277.956 265 272.356C270.8 269.556 276.7 266.956 282.6 264.356C284.3 263.656 286 262.956 287.8 262.256C288.5 261.956 289.2 261.656 289.9 261.456C293.5 259.556 296.1 255.856 296.2 251.456C296.2 250.056 296 248.656 295.5 247.356L295.1 246.356L288.2 228.656L288 228.256C286.5 224.756 283.4 222.156 279.5 221.356C281.1 222.556 282.5 224.056 283.3 225.956Z" fill="url(#paint30_linear)"/>
<path d="M340.8 342.056L339.7 339.356L337.9 334.956L336.9 332.556C336.8 332.256 336.5 332.056 336.4 331.856L338 335.656L339.1 338.256C339.4 339.356 339.6 340.356 339.6 341.556C339.6 345.556 337.6 349.156 334.5 351.256L330 353.056C330 353.056 330 353.056 329.9 353.056C325.4 354.856 321 356.756 316.5 358.756C307.6 362.656 298.7 366.856 289.9 371.256C281.1 375.556 272.5 380.256 263.9 385.056C255.4 389.956 246.9 394.956 238.7 400.256C231.3 405.056 224.1 409.956 216.9 415.056C224.1 410.356 231.3 405.656 238.6 401.256C247 396.156 255.6 391.356 264.2 386.756C272.9 382.256 281.7 377.756 290.6 373.656C299.5 369.556 308.5 365.556 317.5 361.956C322 360.156 326.5 358.356 331 356.656C331 356.656 331 356.656 331.1 356.656L335.7 354.956C338.9 352.956 341 349.456 341.1 345.456C341.3 344.256 341.1 343.156 340.8 342.056Z" fill="url(#paint31_linear)"/>
<path d="M308.2 274.656L308.7 275.556C308.8 275.756 308.9 275.956 309 276.256L317.4 293.156L317.1 293.256L317.4 293.756C317.8 294.956 318.1 296.356 318.1 297.756C318.1 301.856 316 305.456 312.7 307.556C311.3 308.056 310 308.656 308.6 309.256C307.9 309.556 307.3 309.756 306.6 310.056C301.3 312.256 296.1 314.556 290.9 316.856C280.4 321.556 270.1 326.556 259.8 331.856C249.5 337.056 239.4 342.656 229.4 348.456C224.4 351.356 219.5 354.356 214.5 357.356C209.7 360.456 205 363.756 200.4 367.156C196.7 369.856 193.1 372.656 189.4 375.456C193.3 372.556 197.2 369.756 201.1 367.056C205.8 363.756 210.6 360.656 215.5 357.656C220.5 354.756 225.5 351.856 230.6 349.156C240.7 343.556 251 338.356 261.4 333.356C271.8 328.356 282.3 323.656 292.9 319.256C298.2 317.056 303.5 314.856 308.8 312.856C309.5 312.556 310.1 312.356 310.8 312.056C312.2 311.556 313.6 311.056 314.9 310.456C318.2 308.456 320.4 304.956 320.5 300.756C320.5 299.356 320.3 298.056 319.9 296.756L319.7 296.256L320 296.156L312.1 279.056C312 278.856 311.9 278.656 311.8 278.356L311.4 277.456C310.3 275.556 308.8 274.056 306.9 272.956C307.4 273.656 307.8 274.156 308.2 274.656Z" fill="url(#paint32_linear)"/>
<path d="M125.7 296.656L125.8 296.556C125.8 296.556 125.8 296.556 125.7 296.656C125.7 296.656 125.8 296.556 125.7 296.656Z" fill="url(#paint33_linear)"/>
<path d="M59.1 359.556C78.9 338.356 99.7001 318.056 121.7 300.056C122.2 299.656 122.6 299.156 123.1 298.756C124 298.056 124.9 297.356 125.7 296.556L125.8 296.456C125.8 296.456 125.8 296.456 125.9 296.456C148.5 277.656 172 260.256 196.3 244.456C209 236.356 221.9 228.556 235 221.556C238.3 219.856 241.5 218.056 244.8 216.356L249.7 213.856L254.6 211.456C257 210.256 259.4 209.256 261.8 208.156C262.4 207.856 263 207.656 263.5 207.356C267.1 205.356 269.5 201.556 269.5 197.156C269.5 195.856 269.2 194.556 268.8 193.356L267.9 191.356L255.8 164.856L254.7 162.456C253.6 160.656 252 159.156 250.1 158.156C249.5 158.256 248.8 158.256 248.2 158.356C248 158.456 247.7 158.456 247.5 158.556C246.5 158.856 245.6 159.256 244.8 159.756V159.656C241.2 161.856 237.6 164.056 234.2 166.256L229 169.656L223.9 173.156C220.5 175.456 217.2 177.856 213.9 180.156C200.7 189.656 188 199.656 175.7 209.956C151.2 230.756 128.2 252.856 106.8 276.156C99.2 284.356 92 292.856 85 301.456C71.4 318.856 58.9 336.856 47 355.056C38.5 368.256 30.3 381.556 22.4 395.056C18.8 401.256 15.3 407.456 11.8 413.656C17.1 407.056 22.6 400.556 28 394.056C38.2 382.456 48.5 370.856 59.1 359.556Z" fill="url(#paint34_linear)"/>
<path d="M269 193.456L268.1 191.456L256 164.956L254.9 162.556C253.8 160.756 252.2 159.256 250.3 158.256C248.7 157.356 246.9 156.856 244.9 156.856C243.8 156.856 242.8 157.056 241.8 157.356C241.6 157.456 241.3 157.456 241.1 157.556C240.1 157.856 239.2 158.256 238.4 158.856V158.756C234.9 161.056 231.3 163.356 228 165.656L222.9 169.156L217.9 172.756C214.5 175.156 211.3 177.656 208.1 180.056C195.2 189.956 182.8 200.256 170.8 210.956C146.9 232.456 124.6 255.156 103.8 279.056C97.4 286.456 91.2 293.956 85.3 301.656C71.7 319.056 59.2 337.056 47.3 355.256C38.8 368.456 30.6 381.756 22.7 395.256C19.1 401.456 15.6 407.656 12.1 413.856C8 421.256 3.9 428.656 0 436.156C9.1 423.556 18.6 411.256 28.4 399.156C38.1 387.056 48.1 375.156 58.3 363.656C78.3 341.056 99.3 319.256 121.8 300.056C122.3 299.656 122.7 299.156 123.2 298.756C124.1 298.056 125 297.356 125.8 296.556L125.9 296.456C125.9 296.456 125.9 296.456 126 296.456C148.6 277.656 172.1 260.256 196.4 244.456C209.1 236.356 222 228.556 235.1 221.556C238.4 219.856 241.6 218.056 244.9 216.356L249.8 213.856L254.7 211.456C257.1 210.256 259.5 209.256 261.9 208.156C262.5 207.856 263.1 207.656 263.6 207.356C267.2 205.356 269.6 201.556 269.6 197.156C269.7 195.956 269.4 194.656 269 193.456Z" fill="url(#paint35_linear)"/>
<path d="M101.2 383.256C111.2 374.456 121.5 365.856 132 357.656C140.9 350.756 149.9 343.956 158.9 337.256C160 336.456 161 335.556 162.1 334.656C183.1 318.456 204.9 303.356 227.3 289.756C238.5 282.956 249.9 276.456 261.5 270.556C267.3 267.556 273.1 264.756 278.9 262.056C280.6 261.356 282.3 260.556 284 259.856C284.7 259.556 285.4 259.256 286.1 258.956C289.7 256.956 292.1 253.156 292.1 248.756C292.1 247.356 291.8 245.956 291.3 244.656L290.9 243.756L283.5 226.256L283.3 225.856C282.5 223.956 281.1 222.456 279.5 221.256C278.8 221.156 278.2 220.956 277.5 220.856C275.3 220.756 273.2 221.356 271.4 222.356C271.2 222.456 271 222.556 270.7 222.756C268.3 224.056 266 225.356 263.6 226.656C257.5 230.256 251.5 233.856 245.6 237.656C233.8 245.156 222.4 253.156 211.3 261.356C189.1 277.856 168 295.656 148 314.356C143.9 318.156 139.9 322.056 135.9 326.056C120.1 342.356 105.4 359.656 91.5001 377.456C83.2001 388.256 75.1001 399.256 67.6001 410.556C64.0001 415.956 60.5001 421.356 57.1001 426.856C62.0001 421.456 67.0001 416.056 72.1001 410.856C81.5001 401.356 91.2001 392.156 101.2 383.256Z" fill="url(#paint36_linear)"/>
<path d="M291.3 244.756L290.9 243.856L283.5 226.356L283.3 225.956C282.5 224.056 281.1 222.556 279.5 221.356C277.6 219.956 275.2 218.956 272.6 218.956C270.4 218.956 268.3 219.556 266.6 220.656C266.4 220.756 266.2 220.956 266 221.056C263.7 222.456 261.4 223.756 259.1 225.156C253.1 228.856 247.2 232.756 241.4 236.656C229.8 244.456 218.7 252.856 207.7 261.356C186 278.556 165.4 296.856 145.9 316.056C142.5 319.356 139.3 322.756 136 326.156C120.2 342.456 105.5 359.756 91.6001 377.556C83.3001 388.356 75.2001 399.356 67.7001 410.656C64.1001 416.056 60.6001 421.456 57.2001 426.956C53.5001 433.056 49.9001 439.156 46.6001 445.456C54.6001 434.656 63.5001 424.456 72.6001 414.656C81.7001 404.856 91.2001 395.356 101 386.156C110.8 377.056 120.8 368.256 131 359.656C140.3 352.056 149.6 344.656 158.9 337.256C160 336.456 161 335.556 162.1 334.656C183.1 318.456 204.9 303.356 227.3 289.756C238.5 282.956 249.9 276.456 261.5 270.556C267.3 267.556 273.1 264.756 278.9 262.056C280.6 261.356 282.3 260.556 284 259.856C284.7 259.556 285.4 259.256 286.1 258.956C289.7 256.956 292.1 253.156 292.1 248.756C292 247.456 291.7 246.056 291.3 244.756Z" fill="url(#paint37_linear)"/>
<path d="M264.1 385.056C272.7 380.256 281.3 375.556 290.1 371.256C298.9 366.856 307.7 362.756 316.7 358.756C321.2 356.856 325.6 354.856 330.1 353.056C330.1 353.056 330.1 353.056 330.2 353.056L334.7 351.256C337.8 349.156 339.8 345.556 339.8 341.556C339.8 340.356 339.6 339.356 339.3 338.256L338.2 335.656L336.6 331.856C334.6 328.656 331.2 326.456 327.2 326.356C325.1 326.256 323.2 326.856 321.5 327.656H321.4L318.9 329.056C314.4 331.456 309.9 333.956 305.4 336.456C296.5 341.556 287.8 346.756 279.1 352.256C270.5 357.656 262 363.456 253.7 369.256C245.4 375.256 237.2 381.256 229.3 387.656C223.1 392.656 217.1 397.856 211.1 403.156C202.2 411.456 193.5 419.856 185.1 428.656C175 439.356 165.2 450.356 156.3 461.856C166.9 452.056 178.2 443.056 189.7 434.356C198.7 427.556 207.9 421.256 217.3 415.056C224.5 409.956 231.8 404.956 239.1 400.256C247.1 394.856 255.6 389.856 264.1 385.056Z" fill="url(#paint38_linear)"/>
<path d="M339.3 338.256L338.2 335.656L336.6 331.856L336.3 331.256L335.3 328.856C333.3 325.356 329.5 322.956 325.2 322.956C323.1 322.956 321.2 323.556 319.6 324.456H319.5L317 325.856C312.5 328.356 308.1 330.956 303.7 333.656C294.9 338.956 286.3 344.456 277.9 350.156C269.4 355.856 261.2 361.756 253 367.856C244.9 374.056 236.9 380.256 229.1 386.956C222.9 392.256 217 397.656 211.1 403.156C202.2 411.456 193.5 419.856 185.1 428.656C175 439.356 165.2 450.356 156.3 461.856C153 466.156 149.7 470.456 146.6 474.956C160.2 460.256 175.2 447.156 190.7 434.756C199.3 427.856 208.2 421.356 217.1 415.056C224.3 409.956 231.6 404.956 238.9 400.256C247.1 394.856 255.6 389.856 264.1 385.056C272.7 380.256 281.3 375.556 290.1 371.256C298.9 366.856 307.7 362.756 316.7 358.756C321.2 356.856 325.6 354.856 330.1 353.056C330.1 353.056 330.1 353.056 330.2 353.056L334.7 351.256C337.8 349.156 339.8 345.556 339.8 341.556C339.8 340.356 339.6 339.356 339.3 338.256Z" fill="url(#paint39_linear)"/>
<path d="M146.6 410.356C160.4 398.056 174.7 386.256 189.4 375.456C193 372.656 196.7 369.856 200.4 367.156C205 363.756 209.7 360.556 214.5 357.356C219.4 354.356 224.3 351.256 229.4 348.456C239.4 342.656 249.5 337.056 259.8 331.856C270.1 326.556 280.4 321.556 290.9 316.856C296.1 314.556 301.4 312.156 306.6 310.056C307.3 309.756 307.9 309.556 308.6 309.256C310 308.656 311.3 308.156 312.7 307.556C315.9 305.456 318.1 301.856 318.1 297.756C318.1 296.356 317.8 295.056 317.4 293.756L317.1 293.256L317.4 293.156L309 276.256C308.9 276.056 308.8 275.856 308.7 275.556L308.2 274.656C307.9 274.056 307.4 273.656 307 273.156C305.4 272.256 303.6 271.656 301.6 271.656C299.9 271.656 298.3 271.956 296.8 272.556C296.7 272.656 296.6 272.656 296.5 272.756C295.9 273.056 295.2 273.356 294.7 273.756C293.4 274.456 292.4 274.956 290.7 276.056C285.5 279.256 280.4 282.456 275.3 285.756C265.1 292.356 255.2 299.256 245.4 306.356C235.6 313.456 226.1 320.756 216.7 328.356C212 332.056 207.4 336.056 202.9 339.956C198.3 343.856 193.6 347.756 189.2 351.856C184 356.656 178.9 361.556 174 366.456C162.1 378.956 150.9 392.056 140.1 405.356C129.4 418.756 119.1 432.356 109.3 446.256C121.3 433.956 133.8 421.856 146.6 410.356Z" fill="url(#paint40_linear)"/>
<path d="M317.3 293.756L317 293.256L317.3 293.156L308.9 276.256C308.8 276.056 308.7 275.856 308.6 275.556L308.1 274.656C307.8 274.056 307.3 273.656 306.9 273.156C304.8 270.656 301.6 268.956 298 268.956C296.3 268.956 294.7 269.356 293.2 269.956C293.1 270.056 293 270.056 292.9 270.156C292.3 270.456 291.7 270.856 291.1 271.256C289.9 271.956 288.9 272.456 287.2 273.656C282.1 276.956 277.1 280.356 272.1 283.856C262.1 290.756 252.4 297.856 242.8 305.256C233.2 312.556 223.9 320.156 214.7 328.056C210.1 331.956 205.7 336.056 201.2 340.056C196.7 344.056 192.2 348.156 187.8 352.356C183 356.956 178.3 361.756 173.8 366.556C161.9 379.056 150.7 392.156 139.9 405.456C129.2 418.856 118.9 432.456 109.1 446.356C105.3 451.656 101.6 457.056 98 462.556C113.6 444.956 130.1 428.156 147.1 412.056C160.8 399.256 174.8 386.956 189.5 375.556C193.1 372.756 196.8 369.956 200.5 367.256C205.1 363.856 209.8 360.656 214.6 357.456C219.5 354.456 224.4 351.356 229.5 348.556C239.5 342.756 249.6 337.156 259.9 331.956C270.2 326.656 280.5 321.656 291 316.956C296.2 314.656 301.5 312.256 306.7 310.156C307.4 309.856 308 309.656 308.7 309.356C310.1 308.756 311.4 308.256 312.8 307.656C316 305.556 318.2 301.956 318.2 297.856C318 296.256 317.8 294.956 317.3 293.756Z" fill="url(#paint41_linear)"/>
<path d="M813.952 121.405C813.952 62.7302 813.952 51.8524 813.293 39.3263C812.634 26.141 808.678 19.5483 800.108 17.5705C795.822 16.252 790.878 15.9223 786.263 15.9223C782.307 15.9223 780 15.263 780 11.9667C780 9.65925 782.967 9 789.23 9C804.063 9 828.126 10.3185 839.334 10.3185C848.893 10.3185 871.968 9 886.472 9C891.416 9 894.712 9.65925 894.712 11.9667C894.712 14.9334 892.405 15.9223 888.449 15.9223C884.494 15.9223 881.527 16.2519 876.912 17.2408C866.364 19.2186 863.397 25.8113 862.738 39.3263C862.079 51.8524 862.079 62.4005 862.079 121.405V189.31C862.079 226.888 862.079 257.214 863.727 274.025C865.045 284.574 867.683 291.496 879.22 292.814C884.494 293.474 893.064 294.463 898.998 294.463C903.283 294.463 905.261 295.781 905.261 297.429C905.261 300.066 902.294 301.385 898.009 301.385C872.627 301.385 848.234 300.066 837.686 300.066C828.786 300.066 804.393 301.385 788.9 301.385C783.956 301.385 781.319 300.066 781.319 297.429C781.319 295.452 782.967 294.463 787.582 294.463C793.515 294.463 798.13 293.803 801.426 292.814C809.008 291.166 811.315 284.574 812.634 273.366C814.612 257.214 814.612 226.558 814.612 188.98V121.405H813.952Z" fill="url(#paint42_linear)"/>
<path d="M994.262 256.885C994.921 282.267 999.206 290.178 1005.8 292.485C1011.73 294.463 1018.33 294.793 1023.6 294.793C1027.55 294.793 1029.53 296.441 1029.53 298.418C1029.53 301.056 1026.57 302.045 1021.95 302.045C999.866 302.045 984.043 300.726 977.78 300.726C974.814 300.726 958.332 302.045 941.191 302.045C936.576 302.045 933.609 301.715 933.609 298.418C933.609 296.441 935.917 294.793 938.884 294.793C943.498 294.793 949.761 294.463 954.376 293.144C963.276 290.837 964.265 281.937 964.925 253.259L967.891 58.4453C967.891 51.8526 970.199 47.2378 973.825 47.2378C978.11 47.2378 982.725 52.1823 988.658 58.1157C992.943 62.4009 1044.04 114.483 1093.48 162.939C1116.56 185.684 1162.05 232.162 1166.99 236.777H1168.64L1165.01 90.7494C1164.68 70.6417 1161.39 64.7083 1153.47 61.7416C1148.53 59.7638 1140.29 59.7638 1135.67 59.7638C1131.39 59.7638 1130.4 58.1156 1130.4 56.1378C1130.4 53.5008 1134.03 53.1712 1138.97 53.1712C1156.77 53.1712 1174.9 53.8305 1182.15 53.8305C1186.11 53.8305 1198.63 53.1712 1215.45 53.1712C1220.06 53.1712 1223.03 53.5008 1223.03 56.1378C1223.03 58.1156 1221.05 59.7638 1217.09 59.7638C1213.47 59.7638 1210.83 59.7638 1206.55 61.0823C1197.32 63.7194 1194.68 69.6529 1194.02 88.1123L1190.06 295.452C1190.06 302.704 1187.43 306 1184.79 306C1178.86 306 1174.24 302.374 1170.95 299.078C1149.85 279.3 1107.33 238.755 1071.73 204.473C1034.48 168.873 998.547 128.987 991.955 123.383H990.636L994.262 256.885Z" fill="url(#paint43_linear)"/>
<path d="M1266.21 85.1444C1258.63 67.0145 1253.35 64.048 1241.16 60.7516C1236.21 59.4331 1230.61 59.433 1227.97 59.433C1225.01 59.433 1224.02 57.7849 1224.02 55.8071C1224.02 53.17 1227.64 52.8403 1232.59 52.8403C1250.72 52.8403 1270.16 53.4996 1282.03 53.4996C1290.6 53.4996 1308.4 52.8403 1325.21 52.8403C1329.5 52.8403 1333.45 53.4997 1333.45 55.8071C1333.45 58.1145 1331.15 59.433 1328.18 59.433C1322.91 59.433 1317.63 59.7627 1314.99 61.7405C1312.69 63.3886 1311.37 65.3664 1311.37 68.3331C1311.37 72.6184 1314.34 81.5185 1318.95 93.0557L1376.31 240.402H1377.63C1392.46 206.45 1435.97 100.308 1444.21 78.8815C1445.86 74.5962 1447.18 69.6517 1447.18 67.0146C1447.18 63.3887 1445.53 62.3997 1442.56 61.0812C1438.61 59.7626 1433.33 59.433 1429.05 59.433C1426.08 59.433 1423.11 58.1145 1423.11 55.8071C1423.11 53.4997 1426.08 52.8403 1432.67 52.8403C1449.82 52.8403 1464.65 53.4996 1468.93 53.4996C1474.87 53.4996 1490.69 52.8403 1500.91 52.8403C1505.19 52.8403 1507.83 53.4997 1507.83 55.8071C1507.83 58.1145 1505.85 59.433 1502.56 59.433C1498.93 59.433 1491.68 59.1034 1486.07 63.3886C1481.79 66.3553 1477.17 71.6294 1468.27 92.3964C1454.76 123.382 1445.86 141.182 1427.4 181.397C1405.64 229.194 1389.82 265.124 1382.24 281.936C1373.67 300.725 1370.7 305.999 1366.09 305.999C1361.47 305.999 1358.84 301.714 1352.24 286.221L1266.21 85.1444Z" fill="url(#paint44_linear)"/>
<path d="M1544.42 148.105C1544.42 98.3302 1544.42 89.1005 1544.09 78.5522C1543.43 67.3446 1540.13 63.7187 1529.26 60.752C1526.62 60.0927 1520.69 59.4334 1515.74 59.4334C1512.12 59.4334 1509.81 58.1149 1509.81 55.8075C1509.81 53.5001 1512.45 52.8407 1517.39 52.8407C1535.19 52.8407 1556.95 53.5 1566.51 53.5C1577.38 53.5 1652.87 53.8296 1659.13 53.5C1665.4 53.1704 1670.67 51.8518 1673.31 51.5222C1675.28 51.1926 1677.26 49.874 1678.58 49.874C1680.56 49.874 1680.89 51.5222 1680.89 52.8407C1680.89 55.1481 1678.91 59.1037 1678.25 74.2669C1677.92 77.8929 1676.93 92.0672 1676.27 96.0228C1675.94 97.671 1674.95 101.297 1672.32 101.297C1670.01 101.297 1669.68 99.6487 1669.68 97.0117C1669.68 94.7042 1669.35 88.7707 1667.37 85.1447C1664.74 79.2113 1662.1 74.5966 1644.96 73.278C1639.02 72.6188 1598.48 71.6299 1591.56 71.6299C1589.91 71.6299 1589.25 72.9484 1589.25 74.5965V155.686C1589.25 157.664 1589.58 159.312 1591.56 159.312C1599.14 159.312 1643.31 159.312 1651.22 158.653C1659.46 157.994 1664.08 156.675 1667.37 153.709C1670.01 151.401 1671.33 149.423 1672.65 149.423C1674.3 149.423 1675.28 151.072 1675.28 153.049C1675.28 155.027 1674.63 160.301 1672.65 177.113C1671.99 183.705 1671 196.891 1671 199.198C1671 201.835 1670.67 206.45 1667.37 206.45C1665.07 206.45 1664.41 205.131 1664.41 203.813C1664.08 200.187 1664.08 196.231 1663.09 191.946C1661.11 185.353 1656.82 180.409 1644.3 179.09C1638.04 178.431 1599.47 177.442 1590.9 177.442C1589.25 177.442 1588.92 179.09 1588.92 181.068V207.439C1588.92 218.646 1588.59 246.336 1588.92 256.225C1589.58 278.64 1600.13 283.584 1635.07 283.584C1643.97 283.584 1658.14 283.255 1667.04 279.299C1675.61 275.343 1679.57 268.421 1681.88 254.906C1682.54 251.28 1683.53 249.961 1685.83 249.961C1688.47 249.961 1688.8 254.247 1688.8 257.543C1688.8 264.795 1686.16 287.21 1684.18 293.803C1681.88 302.373 1678.91 302.373 1666.05 302.373C1640.67 302.373 1619.91 302.044 1603.42 301.055C1586.94 300.725 1574.09 300.396 1563.87 300.396C1559.91 300.396 1552.66 300.725 1544.42 300.725C1536.18 301.055 1527.94 301.384 1520.69 301.384C1516.4 301.384 1514.09 300.066 1514.09 297.758C1514.09 296.11 1515.41 294.132 1519.37 294.132C1524.31 294.132 1528.27 293.803 1531.23 292.814C1538.16 291.166 1540.13 285.232 1541.12 275.343C1542.77 261.499 1542.77 235.458 1542.77 205.461V148.105H1544.42Z" fill="url(#paint45_linear)"/>
<path d="M1748.46 297.429C1743.19 295.122 1741.87 293.473 1741.87 286.221C1741.87 268.421 1743.52 247.984 1743.85 242.38C1743.85 237.436 1745.5 233.81 1748.13 233.81C1751.1 233.81 1751.76 236.776 1751.76 239.084C1751.76 243.369 1753.08 250.291 1754.73 256.225C1761.98 280.618 1787.69 288.859 1808.79 288.859C1838.12 288.859 1855.92 270.399 1855.92 246.995C1855.92 232.821 1852.3 218.317 1822.3 200.517L1802.52 188.98C1762.31 165.246 1749.12 143.49 1749.12 114.482C1749.12 74.2671 1787.69 48.2261 1834.83 48.2261C1856.91 48.2261 1874.38 51.1928 1883.28 53.5002C1886.25 54.1595 1887.9 55.478 1887.9 57.7854C1887.9 62.0707 1886.58 71.3004 1886.58 97.3414C1886.58 104.264 1884.93 107.89 1882.29 107.89C1879.99 107.89 1878.67 105.912 1878.67 101.956C1878.67 98.9897 1877.02 88.7709 1869.77 80.2005C1864.82 73.9374 1853.95 64.7077 1831.86 64.7077C1807.47 64.7077 1785.38 77.5634 1785.38 99.9785C1785.38 114.812 1790.66 126.349 1821.31 143.161L1835.16 150.742C1879.99 175.465 1893.83 200.517 1893.83 230.513C1893.83 254.906 1884.6 274.684 1859.88 291.825C1843.73 303.362 1821.31 305.34 1803.18 305.34C1784.06 306 1763.3 304.022 1748.46 297.429Z" fill="url(#paint46_linear)"/>
<path d="M2021.07 73.2787L1970.31 74.5972C1950.53 74.9268 1942.62 77.2343 1937.34 84.4863C1933.72 89.1012 1932.4 93.3863 1931.41 95.6937C1930.75 98.3308 1929.76 99.9789 1927.45 99.9789C1925.15 99.9789 1924.49 98.0012 1924.49 94.7048C1924.49 89.4307 1931.08 57.4562 1931.74 54.8192C1932.4 50.5339 1933.72 48.5562 1935.69 48.5562C1938.33 48.5562 1941.96 51.1933 1950.53 52.5118C1960.42 53.8303 1973.27 54.16 1984.48 54.16H2122.6C2133.47 54.16 2140.73 53.5007 2145.67 52.5118C2150.95 51.8525 2153.91 50.8636 2154.9 50.8636C2157.21 50.8636 2157.54 52.8413 2157.54 57.7859C2157.54 64.7082 2156.88 89.1012 2156.88 97.6716C2156.55 101.298 2155.56 102.946 2153.91 102.946C2151.28 102.946 2150.29 101.298 2149.96 96.353L2149.63 92.7271C2148.97 84.1567 2140.07 74.2676 2109.41 73.938L2066.56 73.2787V206.121C2066.56 236.118 2066.89 262.159 2068.54 276.333C2069.86 285.563 2071.5 291.826 2081.72 293.474C2086.34 294.133 2094.25 294.792 2099.19 294.792C2103.15 294.792 2104.47 296.77 2104.47 298.418C2104.47 300.726 2101.83 302.044 2097.87 302.044C2075.46 302.044 2052.71 300.726 2042.83 300.726C2035.24 300.726 2011.84 302.044 1998.33 302.044C1994.04 302.044 1991.73 300.726 1991.73 298.418C1991.73 296.77 1993.05 294.792 1997.01 294.792C2001.95 294.792 2006.24 294.463 2008.87 293.474C2015.8 291.826 2017.77 285.892 2018.76 276.003C2020.41 262.159 2020.41 236.118 2020.41 206.121V73.2787H2021.07Z" fill="url(#paint47_linear)"/>
<path d="M2220.83 148.104C2220.83 98.3298 2220.83 89.1001 2220.5 78.5518C2219.84 67.3443 2216.21 63.3886 2208.96 61.0812C2205.01 59.7626 2200.72 59.433 2196.44 59.433C2192.81 59.433 2191.16 58.7738 2191.16 55.4775C2191.16 53.4997 2193.8 52.8403 2199.4 52.8403C2212.26 52.8403 2235.33 53.4996 2244.89 53.4996C2253.46 53.4996 2275.55 52.8403 2288.73 52.8403C2293.02 52.8403 2295.66 53.4997 2295.66 55.4775C2295.66 58.4442 2293.68 59.433 2290.38 59.433C2286.75 59.433 2284.12 59.7627 2280.49 60.7516C2271.26 62.3998 2268.63 67.0146 2267.64 78.5518C2266.98 89.1001 2266.98 98.3298 2266.98 148.104V206.12C2266.98 237.765 2266.98 264.135 2268.63 277.98C2269.94 286.88 2272.25 291.825 2282.14 293.473C2286.75 294.132 2294.67 294.791 2299.61 294.791C2303.57 294.791 2304.88 296.769 2304.88 298.417C2304.88 300.725 2302.25 302.043 2298.29 302.043C2275.88 302.043 2252.8 300.725 2243.24 300.725C2235.66 300.725 2212.26 302.043 2198.74 302.043C2194.46 302.043 2192.15 300.725 2192.15 298.417C2192.15 296.769 2193.47 294.791 2197.42 294.791C2202.37 294.791 2206.32 294.462 2209.29 293.473C2216.21 291.825 2218.19 287.21 2219.18 277.65C2220.83 264.135 2220.83 237.765 2220.83 206.12V148.104V148.104Z" fill="url(#paint48_linear)"/>
<path d="M2378.06 148.104C2378.06 98.3298 2378.06 89.1001 2377.73 78.5518C2377.07 67.3443 2373.78 63.7183 2362.9 60.7516C2360.26 60.0923 2354.33 59.433 2349.39 59.433C2345.76 59.433 2343.45 58.1145 2343.45 55.8071C2343.45 53.4997 2346.09 52.8403 2351.03 52.8403C2368.83 52.8403 2390.59 53.4996 2397.18 53.4996C2414.32 53.4996 2436.74 52.8403 2448.28 52.8403C2509.59 52.8403 2520.46 84.4852 2520.46 101.956C2520.46 127.338 2501.68 147.116 2482.23 159.642C2509.92 168.542 2544.86 192.275 2544.86 230.842C2544.86 266.113 2517.17 302.373 2454.54 302.373C2450.58 302.373 2439.05 302.043 2427.51 301.054C2415.97 300.725 2403.77 300.395 2398.5 300.395C2394.55 300.395 2387.29 300.725 2379.05 300.725C2370.81 301.054 2362.57 301.384 2355.32 301.384C2351.03 301.384 2348.73 300.065 2348.73 297.758C2348.73 296.11 2350.04 294.132 2354 294.132C2358.94 294.132 2362.9 293.802 2365.87 292.813C2372.79 291.165 2374.77 285.232 2375.76 275.343C2377.4 261.498 2377.4 235.457 2377.4 205.461V148.104H2378.06ZM2422.23 153.708C2422.23 156.345 2423.55 156.675 2424.54 157.334C2427.51 157.993 2432.78 158.653 2440.36 158.653C2451.57 158.653 2461.13 157.334 2467.06 152.719C2475.96 145.797 2482.56 133.93 2482.56 117.778C2482.56 95.6927 2469.37 68.3331 2440.03 68.3331C2435.42 68.3331 2428.83 68.3332 2425.2 68.9925C2422.89 69.3221 2422.23 70.9702 2422.23 74.2665V153.708V153.708ZM2422.23 250.291C2422.23 272.047 2423.55 278.639 2434.1 282.924C2443 286.55 2450.58 286.88 2458.49 286.88C2476.62 286.88 2500.36 276.991 2500.36 240.402C2500.36 225.239 2493.76 199.527 2468.38 182.057C2461.46 177.112 2452.23 173.486 2439.05 173.486H2424.21C2422.89 173.486 2422.23 173.816 2422.23 175.794V250.291V250.291Z" fill="url(#paint49_linear)"/>
<path d="M2655.61 206.121C2655.61 248.314 2655.61 269.081 2662.87 275.344C2668.8 280.289 2681.66 282.267 2708.03 282.267C2726.16 282.267 2739.34 281.937 2747.91 273.037C2752.2 268.752 2755.49 259.522 2756.48 253.259C2756.81 250.292 2757.8 248.314 2760.44 248.314C2762.75 248.314 2763.4 251.94 2763.4 255.566C2763.4 259.192 2761.1 283.915 2758.46 293.474C2756.15 300.726 2754.5 302.374 2736.7 302.374C2712.31 302.374 2692.53 302.045 2675.72 301.056C2658.58 300.726 2644.41 300.397 2630.56 300.397C2626.61 300.397 2619.35 300.726 2611.11 300.726C2602.87 301.056 2594.63 301.386 2587.38 301.386C2583.1 301.386 2580.79 300.067 2580.79 297.759C2580.79 296.111 2582.11 294.134 2586.06 294.134C2591.01 294.134 2594.96 293.804 2597.93 292.815C2604.85 291.167 2606.83 285.233 2607.82 275.344C2609.47 261.5 2609.47 235.459 2609.47 205.462V147.447C2609.47 97.672 2609.47 88.4423 2609.14 77.894C2608.48 66.6864 2605.18 63.0605 2594.3 60.0938C2591.67 59.4345 2587.38 58.7753 2583.1 58.7753C2579.14 58.7753 2577.16 57.4567 2577.16 55.1493C2577.16 52.8419 2579.47 52.1826 2584.41 52.1826C2600.24 52.1826 2621.99 52.8418 2631.22 52.8418C2639.46 52.8418 2667.15 52.1826 2680.34 52.1826C2685.28 52.1826 2687.59 52.8419 2687.59 55.1493C2687.59 57.4567 2685.61 58.7753 2681.33 58.7753C2677.37 58.7753 2672.1 59.1049 2668.14 60.0938C2658.91 61.742 2656.27 66.3568 2655.28 77.894C2654.63 88.4423 2654.63 97.672 2654.63 147.447V206.121H2655.61Z" fill="url(#paint50_linear)"/>
<path d="M2823.4 148.105C2823.4 98.3302 2823.4 89.1005 2823.07 78.5522C2822.41 67.3446 2819.11 63.7187 2808.23 60.752C2805.6 60.0927 2799.66 59.4334 2794.72 59.4334C2791.09 59.4334 2788.79 58.1149 2788.79 55.8075C2788.79 53.5001 2791.42 52.8407 2796.37 52.8407C2814.17 52.8407 2835.92 53.5 2845.48 53.5C2856.36 53.5 2931.85 53.8296 2938.11 53.5C2944.37 53.1704 2949.65 51.8518 2952.28 51.5222C2954.26 51.1926 2956.24 49.874 2957.56 49.874C2959.54 49.874 2959.87 51.5222 2959.87 52.8407C2959.87 55.1481 2957.89 59.1037 2957.23 74.2669C2956.9 77.8929 2955.91 92.0672 2955.25 96.0228C2954.92 97.671 2953.93 101.297 2951.3 101.297C2948.99 101.297 2948.66 99.6487 2948.66 97.0117C2948.66 94.7042 2948.33 88.7707 2946.35 85.1447C2943.71 79.2113 2941.08 74.5966 2923.94 73.278C2918 72.6188 2877.46 71.6299 2870.54 71.6299C2868.89 71.6299 2868.23 72.9484 2868.23 74.5965V155.686C2868.23 157.664 2868.56 159.312 2870.54 159.312C2878.12 159.312 2922.29 159.312 2930.2 158.653C2938.44 157.994 2943.05 156.675 2946.35 153.709C2948.99 151.401 2950.31 149.423 2951.63 149.423C2953.27 149.423 2954.26 151.072 2954.26 153.049C2954.26 155.027 2953.6 160.301 2951.63 177.113C2950.97 183.705 2949.98 196.891 2949.98 199.198C2949.98 201.835 2949.65 206.45 2946.35 206.45C2944.04 206.45 2943.38 205.131 2943.38 203.813C2943.05 200.187 2943.05 196.231 2942.07 191.946C2940.09 185.353 2935.8 180.409 2923.28 179.09C2917.01 178.431 2878.45 177.442 2869.88 177.442C2868.23 177.442 2867.9 179.09 2867.9 181.068V207.439C2867.9 218.646 2867.57 246.336 2867.9 256.225C2868.56 278.64 2879.11 283.584 2914.05 283.584C2922.95 283.584 2937.12 283.255 2946.02 279.299C2954.59 275.343 2958.55 268.421 2960.85 254.906C2961.51 251.28 2962.5 249.961 2964.81 249.961C2967.45 249.961 2967.78 254.247 2967.78 257.543C2967.78 264.795 2965.14 287.21 2963.16 293.803C2960.85 302.373 2957.89 302.373 2945.03 302.373C2919.65 302.373 2898.88 302.044 2882.4 301.055C2865.92 300.725 2853.06 300.396 2842.85 300.396C2838.89 300.396 2831.64 300.725 2823.4 300.725C2815.16 301.055 2806.92 301.384 2799.66 301.384C2795.38 301.384 2793.07 300.066 2793.07 297.758C2793.07 296.11 2794.39 294.132 2798.35 294.132C2803.29 294.132 2807.25 293.803 2810.21 292.814C2817.13 291.166 2819.11 285.232 2820.1 275.343C2821.75 261.499 2821.75 235.458 2821.75 205.461V148.105H2823.4Z" fill="url(#paint51_linear)"/>
<defs>
<linearGradient id="paint0_linear" x1="451.979" y1="219.11" x2="474.22" y2="130.483" gradientUnits="userSpaceOnUse">
<stop stop-color="#854310"/>
<stop offset="0.1536" stop-color="#8C4D15"/>
<stop offset="0.4113" stop-color="#A16722"/>
<stop offset="0.7392" stop-color="#C19137"/>
<stop offset="1" stop-color="#DFB74B"/>
</linearGradient>
<linearGradient id="paint1_linear" x1="488.215" y1="115.463" x2="446.786" y2="213.736" gradientUnits="userSpaceOnUse">
<stop stop-color="#854310"/>
<stop offset="0.1536" stop-color="#8C4D15"/>
<stop offset="0.4113" stop-color="#A16722"/>
<stop offset="0.7392" stop-color="#C19137"/>
<stop offset="1" stop-color="#DFB74B"/>
</linearGradient>
<linearGradient id="paint2_linear" x1="417.921" y1="-4.70754" x2="397.08" y2="232.345" gradientUnits="userSpaceOnUse">
<stop stop-color="#854310"/>
<stop offset="0.1536" stop-color="#8C4D15"/>
<stop offset="0.4113" stop-color="#A16722"/>
<stop offset="0.7392" stop-color="#C19137"/>
<stop offset="1" stop-color="#DFB74B"/>
</linearGradient>
<linearGradient id="paint3_linear" x1="619.306" y1="12.9982" x2="598.464" y2="250.05" gradientUnits="userSpaceOnUse">
<stop stop-color="#854310"/>
<stop offset="0.1536" stop-color="#8C4D15"/>
<stop offset="0.4113" stop-color="#A16722"/>
<stop offset="0.7392" stop-color="#C19137"/>
<stop offset="1" stop-color="#DFB74B"/>
</linearGradient>
<linearGradient id="paint4_linear" x1="533.604" y1="5.46326" x2="512.762" y2="242.515" gradientUnits="userSpaceOnUse">
<stop stop-color="#854310"/>
<stop offset="0.1536" stop-color="#8C4D15"/>
<stop offset="0.4113" stop-color="#A16722"/>
<stop offset="0.7392" stop-color="#C19137"/>
<stop offset="1" stop-color="#DFB74B"/>
</linearGradient>
<linearGradient id="paint5_linear" x1="320.877" y1="124.153" x2="356.73" y2="106.192" gradientUnits="userSpaceOnUse">
<stop stop-color="#854310"/>
<stop offset="0.1536" stop-color="#8C4D15"/>
<stop offset="0.4113" stop-color="#A16722"/>
<stop offset="0.7392" stop-color="#C19137"/>
<stop offset="1" stop-color="#DFB74B"/>
</linearGradient>
<linearGradient id="paint6_linear" x1="542.998" y1="6.28941" x2="522.156" y2="243.342" gradientUnits="userSpaceOnUse">
<stop stop-color="#854310"/>
<stop offset="0.1536" stop-color="#8C4D15"/>
<stop offset="0.4113" stop-color="#A16722"/>
<stop offset="0.7392" stop-color="#C19137"/>
<stop offset="1" stop-color="#DFB74B"/>
</linearGradient>
<linearGradient id="paint7_linear" x1="426.247" y1="-3.97519" x2="405.406" y2="233.077" gradientUnits="userSpaceOnUse">
<stop stop-color="#854310"/>
<stop offset="0.1536" stop-color="#8C4D15"/>
<stop offset="0.4113" stop-color="#A16722"/>
<stop offset="0.7392" stop-color="#C19137"/>
<stop offset="1" stop-color="#DFB74B"/>
</linearGradient>
<linearGradient id="paint8_linear" x1="555.987" y1="-28.4699" x2="534.666" y2="54.7266" gradientUnits="userSpaceOnUse">
<stop stop-color="#854310"/>
<stop offset="0.1536" stop-color="#8C4D15"/>
<stop offset="0.4113" stop-color="#A16722"/>
<stop offset="0.7392" stop-color="#C19137"/>
<stop offset="1" stop-color="#DFB74B"/>
</linearGradient>
<linearGradient id="paint9_linear" x1="426.301" y1="-3.97052" x2="405.46" y2="233.082" gradientUnits="userSpaceOnUse">
<stop stop-color="#854310"/>
<stop offset="0.1536" stop-color="#8C4D15"/>
<stop offset="0.4113" stop-color="#A16722"/>
<stop offset="0.7392" stop-color="#C19137"/>
<stop offset="1" stop-color="#DFB74B"/>
</linearGradient>
<linearGradient id="paint10_linear" x1="375.409" y1="344.785" x2="566.337" y2="249.139" gradientUnits="userSpaceOnUse">
<stop stop-color="#854310"/>
<stop offset="0.1536" stop-color="#8C4D15"/>
<stop offset="0.4113" stop-color="#A16722"/>
<stop offset="0.7392" stop-color="#C19137"/>
<stop offset="1" stop-color="#DFB74B"/>
</linearGradient>
<linearGradient id="paint11_linear" x1="372.442" y1="338.861" x2="563.369" y2="243.216" gradientUnits="userSpaceOnUse">
<stop stop-color="#854310"/>
<stop offset="0.1536" stop-color="#8C4D15"/>
<stop offset="0.4113" stop-color="#A16722"/>
<stop offset="0.7392" stop-color="#C19137"/>
<stop offset="1" stop-color="#DFB74B"/>
</linearGradient>
<linearGradient id="paint12_linear" x1="405.154" y1="328.147" x2="541.717" y2="67.5693" gradientUnits="userSpaceOnUse">
<stop stop-color="#854310"/>
<stop offset="0.1536" stop-color="#8C4D15"/>
<stop offset="0.4113" stop-color="#A16722"/>
<stop offset="0.7392" stop-color="#C19137"/>
<stop offset="1" stop-color="#DFB74B"/>
</linearGradient>
<linearGradient id="paint13_linear" x1="373.751" y1="341.474" x2="564.678" y2="245.828" gradientUnits="userSpaceOnUse">
<stop stop-color="#854310"/>
<stop offset="0.1536" stop-color="#8C4D15"/>
<stop offset="0.4113" stop-color="#A16722"/>
<stop offset="0.7392" stop-color="#C19137"/>
<stop offset="1" stop-color="#DFB74B"/>
</linearGradient>
<linearGradient id="paint14_linear" x1="571.505" y1="8.7956" x2="550.664" y2="245.848" gradientUnits="userSpaceOnUse">
<stop stop-color="#854310"/>
<stop offset="0.1536" stop-color="#8C4D15"/>
<stop offset="0.4113" stop-color="#A16722"/>
<stop offset="0.7392" stop-color="#C19137"/>
<stop offset="1" stop-color="#DFB74B"/>
</linearGradient>
<linearGradient id="paint15_linear" x1="386.763" y1="-7.44655" x2="365.921" y2="229.606" gradientUnits="userSpaceOnUse">
<stop stop-color="#854310"/>
<stop offset="0.1536" stop-color="#8C4D15"/>
<stop offset="0.4113" stop-color="#A16722"/>
<stop offset="0.7392" stop-color="#C19137"/>
<stop offset="1" stop-color="#DFB74B"/>
</linearGradient>
<linearGradient id="paint16_linear" x1="441.79" y1="347.347" x2="578.353" y2="86.7688" gradientUnits="userSpaceOnUse">
<stop stop-color="#854310"/>
<stop offset="0.1536" stop-color="#8C4D15"/>
<stop offset="0.4113" stop-color="#A16722"/>
<stop offset="0.7392" stop-color="#C19137"/>
<stop offset="1" stop-color="#DFB74B"/>
</linearGradient>
<linearGradient id="paint17_linear" x1="557.069" y1="7.52661" x2="536.228" y2="244.579" gradientUnits="userSpaceOnUse">
<stop stop-color="#854310"/>
<stop offset="0.1536" stop-color="#8C4D15"/>
<stop offset="0.4113" stop-color="#A16722"/>
<stop offset="0.7392" stop-color="#C19137"/>
<stop offset="1" stop-color="#DFB74B"/>
</linearGradient>
<linearGradient id="paint18_linear" x1="680.26" y1="54.8903" x2="483.776" y2="318.897" gradientUnits="userSpaceOnUse">
<stop stop-color="#854310"/>
<stop offset="0.1536" stop-color="#8C4D15"/>
<stop offset="0.4113" stop-color="#A16722"/>
<stop offset="0.7392" stop-color="#C19137"/>
<stop offset="1" stop-color="#DFB74B"/>
</linearGradient>
<linearGradient id="paint19_linear" x1="365.008" y1="324.023" x2="467.272" y2="272.793" gradientUnits="userSpaceOnUse">
<stop stop-color="#854310"/>
<stop offset="0.1536" stop-color="#8C4D15"/>
<stop offset="0.4113" stop-color="#A16722"/>
<stop offset="0.7392" stop-color="#C19137"/>
<stop offset="1" stop-color="#DFB74B"/>
</linearGradient>
<linearGradient id="paint20_linear" x1="369.886" y1="-8.93077" x2="349.045" y2="228.122" gradientUnits="userSpaceOnUse">
<stop stop-color="#854310"/>
<stop offset="0.1536" stop-color="#8C4D15"/>
<stop offset="0.4113" stop-color="#A16722"/>
<stop offset="0.7392" stop-color="#C19137"/>
<stop offset="1" stop-color="#DFB74B"/>
</linearGradient>
<linearGradient id="paint21_linear" x1="383.144" y1="3.53724" x2="373.948" y2="302.437" gradientUnits="userSpaceOnUse">
<stop stop-color="#854310"/>
<stop offset="0.1536" stop-color="#8C4D15"/>
<stop offset="0.4113" stop-color="#A16722"/>
<stop offset="0.7392" stop-color="#C19137"/>
<stop offset="1" stop-color="#DFB74B"/>
</linearGradient>
<linearGradient id="paint22_linear" x1="378.492" y1="96.8531" x2="569.419" y2="1.20769" gradientUnits="userSpaceOnUse">
<stop stop-color="#854310"/>
<stop offset="0.1536" stop-color="#8C4D15"/>
<stop offset="0.4113" stop-color="#A16722"/>
<stop offset="0.7392" stop-color="#C19137"/>
<stop offset="1" stop-color="#DFB74B"/>
</linearGradient>
<linearGradient id="paint23_linear" x1="381.459" y1="102.775" x2="572.386" y2="7.13022" gradientUnits="userSpaceOnUse">
<stop stop-color="#854310"/>
<stop offset="0.1536" stop-color="#8C4D15"/>
<stop offset="0.4113" stop-color="#A16722"/>
<stop offset="0.7392" stop-color="#C19137"/>
<stop offset="1" stop-color="#DFB74B"/>
</linearGradient>
<linearGradient id="paint24_linear" x1="380.227" y1="100.316" x2="571.154" y2="4.67096" gradientUnits="userSpaceOnUse">
<stop stop-color="#854310"/>
<stop offset="0.1536" stop-color="#8C4D15"/>
<stop offset="0.4113" stop-color="#A16722"/>
<stop offset="0.7392" stop-color="#C19137"/>
<stop offset="1" stop-color="#DFB74B"/>
</linearGradient>
<linearGradient id="paint25_linear" x1="570.222" y1="-27.0043" x2="373.738" y2="237.002" gradientUnits="userSpaceOnUse">
<stop stop-color="#854310"/>
<stop offset="0.1536" stop-color="#8C4D15"/>
<stop offset="0.4113" stop-color="#A16722"/>
<stop offset="0.7392" stop-color="#C19137"/>
<stop offset="1" stop-color="#DFB74B"/>
</linearGradient>
<linearGradient id="paint26_linear" x1="313.986" y1="111.669" x2="471.819" y2="32.6025" gradientUnits="userSpaceOnUse">
<stop stop-color="#854310"/>
<stop offset="0.1536" stop-color="#8C4D15"/>
<stop offset="0.4113" stop-color="#A16722"/>
<stop offset="0.7392" stop-color="#C19137"/>
<stop offset="1" stop-color="#DFB74B"/>
</linearGradient>
<linearGradient id="paint27_linear" x1="292.698" y1="269.212" x2="429.261" y2="8.63369" gradientUnits="userSpaceOnUse">
<stop stop-color="#854310"/>
<stop offset="0.1536" stop-color="#8C4D15"/>
<stop offset="0.4113" stop-color="#A16722"/>
<stop offset="0.7392" stop-color="#C19137"/>
<stop offset="1" stop-color="#DFB74B"/>
</linearGradient>
<linearGradient id="paint28_linear" x1="-1.02207" y1="339.549" x2="267.758" y2="180.156" gradientUnits="userSpaceOnUse">
<stop stop-color="#854310"/>
<stop offset="0.1539" stop-color="#8D4D15"/>
<stop offset="0.4126" stop-color="#A16722"/>
<stop offset="0.7424" stop-color="#C29138"/>
<stop offset="1" stop-color="#DFB74B"/>
</linearGradient>
<linearGradient id="paint29_linear" x1="13.3519" y1="363.788" x2="282.133" y2="204.395" gradientUnits="userSpaceOnUse">
<stop stop-color="#854310"/>
<stop offset="0.1539" stop-color="#8D4D15"/>
<stop offset="0.4126" stop-color="#A16722"/>
<stop offset="0.7424" stop-color="#C29138"/>
<stop offset="1" stop-color="#DFB74B"/>
</linearGradient>
<linearGradient id="paint30_linear" x1="30.2304" y1="392.249" x2="299.01" y2="232.856" gradientUnits="userSpaceOnUse">
<stop stop-color="#854310"/>
<stop offset="0.1539" stop-color="#8D4D15"/>
<stop offset="0.4126" stop-color="#A16722"/>
<stop offset="0.7424" stop-color="#C29138"/>
<stop offset="1" stop-color="#DFB74B"/>
</linearGradient>
<linearGradient id="paint31_linear" x1="88.3944" y1="490.33" x2="357.174" y2="330.936" gradientUnits="userSpaceOnUse">
<stop stop-color="#854310"/>
<stop offset="0.1539" stop-color="#8D4D15"/>
<stop offset="0.4126" stop-color="#A16722"/>
<stop offset="0.7424" stop-color="#C29138"/>
<stop offset="1" stop-color="#DFB74B"/>
</linearGradient>
<linearGradient id="paint32_linear" x1="59.2552" y1="441.193" x2="328.035" y2="281.8" gradientUnits="userSpaceOnUse">
<stop stop-color="#854310"/>
<stop offset="0.1539" stop-color="#8D4D15"/>
<stop offset="0.4126" stop-color="#A16722"/>
<stop offset="0.7424" stop-color="#C29138"/>
<stop offset="1" stop-color="#DFB74B"/>
</linearGradient>
<linearGradient id="paint33_linear" x1="257.487" y1="187.463" x2="71.0887" y2="341.961" gradientUnits="userSpaceOnUse">
<stop stop-color="#854310"/>
<stop offset="0.1539" stop-color="#8D4D15"/>
<stop offset="0.4126" stop-color="#A16722"/>
<stop offset="0.7424" stop-color="#C29138"/>
<stop offset="1" stop-color="#DFB74B"/>
</linearGradient>
<linearGradient id="paint34_linear" x1="9.54593" y1="357.37" x2="278.325" y2="197.976" gradientUnits="userSpaceOnUse">
<stop stop-color="#854310"/>
<stop offset="0.1539" stop-color="#8D4D15"/>
<stop offset="0.4126" stop-color="#A16722"/>
<stop offset="0.7424" stop-color="#C29138"/>
<stop offset="1" stop-color="#DFB74B"/>
</linearGradient>
<linearGradient id="paint35_linear" x1="253.412" y1="183.993" x2="54.3449" y2="348.966" gradientUnits="userSpaceOnUse">
<stop stop-color="#854310"/>
<stop offset="0.1539" stop-color="#8D4D15"/>
<stop offset="0.4126" stop-color="#A16722"/>
<stop offset="0.7424" stop-color="#C29138"/>
<stop offset="1" stop-color="#DFB74B"/>
</linearGradient>
<linearGradient id="paint36_linear" x1="35.403" y1="400.972" x2="304.183" y2="241.578" gradientUnits="userSpaceOnUse">
<stop stop-color="#854310"/>
<stop offset="0.1539" stop-color="#8D4D15"/>
<stop offset="0.4126" stop-color="#A16722"/>
<stop offset="0.7424" stop-color="#C29138"/>
<stop offset="1" stop-color="#DFB74B"/>
</linearGradient>
<linearGradient id="paint37_linear" x1="272.485" y1="251.76" x2="113.02" y2="362.454" gradientUnits="userSpaceOnUse">
<stop stop-color="#854310"/>
<stop offset="0.1539" stop-color="#8D4D15"/>
<stop offset="0.4126" stop-color="#A16722"/>
<stop offset="0.7424" stop-color="#C29138"/>
<stop offset="1" stop-color="#DFB74B"/>
</linearGradient>
<linearGradient id="paint38_linear" x1="85.3948" y1="485.272" x2="354.174" y2="325.878" gradientUnits="userSpaceOnUse">
<stop stop-color="#854310"/>
<stop offset="0.1539" stop-color="#8D4D15"/>
<stop offset="0.4126" stop-color="#A16722"/>
<stop offset="0.7424" stop-color="#C29138"/>
<stop offset="1" stop-color="#DFB74B"/>
</linearGradient>
<linearGradient id="paint39_linear" x1="356.876" y1="311.281" x2="163.802" y2="458.991" gradientUnits="userSpaceOnUse">
<stop stop-color="#854310"/>
<stop offset="0.1539" stop-color="#8D4D15"/>
<stop offset="0.4126" stop-color="#A16722"/>
<stop offset="0.7424" stop-color="#C29138"/>
<stop offset="1" stop-color="#DFB74B"/>
</linearGradient>
<linearGradient id="paint40_linear" x1="60.7126" y1="443.65" x2="329.492" y2="284.257" gradientUnits="userSpaceOnUse">
<stop stop-color="#854310"/>
<stop offset="0.1539" stop-color="#8D4D15"/>
<stop offset="0.4126" stop-color="#A16722"/>
<stop offset="0.7424" stop-color="#C29138"/>
<stop offset="1" stop-color="#DFB74B"/>
</linearGradient>
<linearGradient id="paint41_linear" x1="290.217" y1="295.058" x2="153.283" y2="412.667" gradientUnits="userSpaceOnUse">
<stop stop-color="#854310"/>
<stop offset="0.1539" stop-color="#8D4D15"/>
<stop offset="0.4126" stop-color="#A16722"/>
<stop offset="0.7424" stop-color="#C29138"/>
<stop offset="1" stop-color="#DFB74B"/>
</linearGradient>
<linearGradient id="paint42_linear" x1="-864.111" y1="210.978" x2="3502.18" y2="69.1496" gradientUnits="userSpaceOnUse">
<stop stop-color="#854310"/>
<stop offset="0.1536" stop-color="#8C4D15"/>
<stop offset="0.4113" stop-color="#A16722"/>
<stop offset="0.7392" stop-color="#C19137"/>
<stop offset="1" stop-color="#DFB74B"/>
</linearGradient>
<linearGradient id="paint43_linear" x1="-863.185" y1="239.495" x2="3503.1" y2="97.6664" gradientUnits="userSpaceOnUse">
<stop stop-color="#854310"/>
<stop offset="0.1536" stop-color="#8C4D15"/>
<stop offset="0.4113" stop-color="#A16722"/>
<stop offset="0.7392" stop-color="#C19137"/>
<stop offset="1" stop-color="#DFB74B"/>
</linearGradient>
<linearGradient id="paint44_linear" x1="-862.853" y1="249.711" x2="3503.43" y2="107.883" gradientUnits="userSpaceOnUse">
<stop stop-color="#854310"/>
<stop offset="0.1536" stop-color="#8C4D15"/>
<stop offset="0.4113" stop-color="#A16722"/>
<stop offset="0.7392" stop-color="#C19137"/>
<stop offset="1" stop-color="#DFB74B"/>
</linearGradient>
<linearGradient id="paint45_linear" x1="-862.597" y1="257.565" x2="3503.69" y2="115.737" gradientUnits="userSpaceOnUse">
<stop stop-color="#854310"/>
<stop offset="0.1536" stop-color="#8C4D15"/>
<stop offset="0.4113" stop-color="#A16722"/>
<stop offset="0.7392" stop-color="#C19137"/>
<stop offset="1" stop-color="#DFB74B"/>
</linearGradient>
<linearGradient id="paint46_linear" x1="-862.379" y1="264.321" x2="3503.91" y2="122.493" gradientUnits="userSpaceOnUse">
<stop stop-color="#854310"/>
<stop offset="0.1536" stop-color="#8C4D15"/>
<stop offset="0.4113" stop-color="#A16722"/>
<stop offset="0.7392" stop-color="#C19137"/>
<stop offset="1" stop-color="#DFB74B"/>
</linearGradient>
<linearGradient id="paint47_linear" x1="-862.241" y1="268.584" x2="3504.05" y2="126.756" gradientUnits="userSpaceOnUse">
<stop stop-color="#854310"/>
<stop offset="0.1536" stop-color="#8C4D15"/>
<stop offset="0.4113" stop-color="#A16722"/>
<stop offset="0.7392" stop-color="#C19137"/>
<stop offset="1" stop-color="#DFB74B"/>
</linearGradient>
<linearGradient id="paint48_linear" x1="-861.921" y1="278.392" x2="3504.37" y2="136.563" gradientUnits="userSpaceOnUse">
<stop stop-color="#854310"/>
<stop offset="0.1536" stop-color="#8C4D15"/>
<stop offset="0.4113" stop-color="#A16722"/>
<stop offset="0.7392" stop-color="#C19137"/>
<stop offset="1" stop-color="#DFB74B"/>
</linearGradient>
<linearGradient id="paint49_linear" x1="-861.745" y1="283.834" x2="3504.54" y2="142.005" gradientUnits="userSpaceOnUse">
<stop stop-color="#854310"/>
<stop offset="0.1536" stop-color="#8C4D15"/>
<stop offset="0.4113" stop-color="#A16722"/>
<stop offset="0.7392" stop-color="#C19137"/>
<stop offset="1" stop-color="#DFB74B"/>
</linearGradient>
<linearGradient id="paint50_linear" x1="-861.472" y1="292.223" x2="3504.82" y2="150.394" gradientUnits="userSpaceOnUse">
<stop stop-color="#854310"/>
<stop offset="0.1536" stop-color="#8C4D15"/>
<stop offset="0.4113" stop-color="#A16722"/>
<stop offset="0.7392" stop-color="#C19137"/>
<stop offset="1" stop-color="#DFB74B"/>
</linearGradient>
<linearGradient id="paint51_linear" x1="-861.249" y1="299.063" x2="3505.04" y2="157.234" gradientUnits="userSpaceOnUse">
<stop stop-color="#854310"/>
<stop offset="0.1536" stop-color="#8C4D15"/>
<stop offset="0.4113" stop-color="#A16722"/>
<stop offset="0.7392" stop-color="#C19137"/>
<stop offset="1" stop-color="#DFB74B"/>
</linearGradient>
</defs>
</svg>
