<?xml version="1.0" encoding="utf-8"?>
<!-- Generator: Adobe Illustrator 21.0.2, SVG Export Plug-In . SVG Version: 6.00 Build 0)  -->
<svg version="1.1" id="Layer_1" xmlns="http://www.w3.org/2000/svg" xmlns:xlink="http://www.w3.org/1999/xlink" x="0px" y="0px"
	 viewBox="0 0 690 595.3" style="enable-background:new 0 0 690 595.3;" xml:space="preserve">
<style type="text/css">
	.st0{fill:#202020;}
	.st1{fill:url(#SVGID_1_);}
	.st2{fill:url(#SVGID_2_);}
	.st3{fill:url(#SVGID_3_);}
	.st4{fill:url(#SVGID_4_);}
	.st5{fill:url(#SVGID_5_);}
	.st6{fill:url(#SVGID_6_);}
	.st7{fill:url(#SVGID_7_);}
	.st8{fill:url(#SVGID_8_);}
	.st9{fill:url(#SVGID_9_);}
	.st10{fill:url(#SVGID_10_);}
	.st11{fill:url(#SVGID_11_);}
	.st12{fill:url(#SVGID_12_);}
	.st13{fill:url(#SVGID_13_);}
	.st14{fill:url(#SVGID_14_);}
	.st15{fill:url(#SVGID_15_);}
	.st16{fill:#A0A0A0;}
	.st17{fill:none;}
	.st18{fill:url(#SVGID_16_);}
	.st19{fill:url(#SVGID_17_);}
	.st20{fill:url(#SVGID_18_);}
	.st21{fill:url(#SVGID_19_);}
	.st22{fill:url(#SVGID_20_);}
	.st23{fill:url(#SVGID_21_);}
	.st24{fill:url(#SVGID_22_);}
	.st25{fill:url(#SVGID_23_);}
	.st26{fill:url(#SVGID_24_);}
	.st27{fill:url(#SVGID_25_);}
	.st28{fill:url(#SVGID_26_);}
	.st29{fill:url(#SVGID_27_);}
	.st30{fill:url(#SVGID_28_);}
	.st31{fill:url(#SVGID_29_);}
	.st32{fill:url(#SVGID_30_);}
	.st33{fill:url(#SVGID_31_);}
	.st34{fill:url(#SVGID_32_);}
	.st35{fill:url(#SVGID_33_);}
	.st36{fill:url(#SVGID_34_);}
	.st37{fill:url(#SVGID_35_);}
	.st38{fill:url(#SVGID_36_);}
	.st39{fill:url(#SVGID_37_);}
	.st40{fill:url(#SVGID_38_);}
	.st41{fill:url(#SVGID_39_);}
	.st42{fill:url(#SVGID_40_);}
	.st43{fill:url(#SVGID_41_);}
	.st44{fill:url(#SVGID_42_);}
	.st45{fill:url(#SVGID_43_);}
	.st46{fill:url(#SVGID_44_);}
	.st47{fill:url(#SVGID_45_);}
	.st48{fill:url(#SVGID_46_);}
	.st49{fill:url(#SVGID_47_);}
	.st50{fill:url(#SVGID_48_);}
	.st51{fill:url(#SVGID_49_);}
	.st52{fill:url(#SVGID_50_);}
	.st53{fill:url(#SVGID_51_);}
	.st54{fill:url(#SVGID_52_);}
	.st55{fill:url(#SVGID_53_);}
	.st56{fill:url(#SVGID_54_);}
	.st57{fill:url(#SVGID_55_);}
	.st58{fill:url(#SVGID_56_);}
	.st59{fill:url(#SVGID_57_);}
	.st60{fill:url(#SVGID_58_);}
	.st61{fill:url(#SVGID_59_);}
	.st62{fill:url(#SVGID_60_);}
	.st63{fill:url(#SVGID_61_);}
	.st64{fill:url(#SVGID_62_);}
	.st65{fill:url(#SVGID_63_);}
	.st66{fill:url(#SVGID_64_);}
	.st67{fill:url(#SVGID_65_);}
	.st68{fill:url(#SVGID_66_);}
	.st69{fill:url(#SVGID_67_);}
	.st70{fill:url(#SVGID_68_);}
	.st71{fill:url(#SVGID_69_);}
	.st72{fill:url(#SVGID_70_);}
	.st73{fill:url(#SVGID_71_);}
	.st74{fill:url(#SVGID_72_);}
	.st75{fill:url(#SVGID_73_);}
	.st76{fill:url(#SVGID_74_);}
	.st77{fill:url(#SVGID_75_);}
	.st78{fill:url(#SVGID_76_);}
	.st79{fill:url(#SVGID_77_);}
	.st80{fill:url(#SVGID_78_);}
	.st81{fill:url(#SVGID_79_);}
	.st82{fill:url(#SVGID_80_);}
	.st83{fill:url(#SVGID_81_);}
	.st84{fill:url(#SVGID_82_);}
	.st85{fill:url(#SVGID_83_);}
	.st86{fill:url(#SVGID_84_);}
	.st87{fill:url(#SVGID_85_);}
	.st88{fill:url(#SVGID_86_);}
	.st89{fill:url(#SVGID_87_);}
	.st90{fill:url(#SVGID_88_);}
	.st91{fill:url(#SVGID_89_);}
	.st92{fill:url(#SVGID_90_);}
	.st93{fill:url(#SVGID_91_);}
	.st94{fill:url(#SVGID_92_);}
	.st95{fill:url(#SVGID_93_);}
	.st96{fill:url(#SVGID_94_);}
	.st97{fill:url(#SVGID_95_);}
	.st98{fill:url(#SVGID_96_);}
	.st99{fill:url(#SVGID_97_);}
	.st100{fill:url(#SVGID_98_);}
	.st101{fill:url(#SVGID_99_);}
	.st102{fill:url(#SVGID_100_);}
	.st103{fill:url(#SVGID_101_);}
	.st104{fill:url(#SVGID_102_);}
	.st105{fill:url(#SVGID_103_);}
	.st106{fill:url(#SVGID_104_);}
	.st107{fill:url(#SVGID_105_);}
	.st108{fill:url(#SVGID_106_);}
	.st109{fill:url(#SVGID_107_);}
	.st110{fill:url(#SVGID_108_);}
	.st111{fill:url(#SVGID_109_);}
	.st112{fill:url(#SVGID_110_);}
	.st113{fill:url(#SVGID_111_);}
	.st114{fill:url(#SVGID_112_);}
	.st115{fill:url(#SVGID_113_);}
	.st116{fill:url(#SVGID_114_);}
	.st117{fill:url(#SVGID_115_);}
	.st118{fill:url(#SVGID_116_);}
	.st119{fill:url(#SVGID_117_);}
	.st120{fill:url(#SVGID_118_);}
	.st121{fill:url(#SVGID_119_);}
	.st122{fill:url(#SVGID_120_);}
	.st123{fill:url(#SVGID_121_);}
	.st124{fill:url(#SVGID_122_);}
	.st125{fill:url(#SVGID_123_);}
	.st126{fill:url(#SVGID_124_);}
	.st127{fill:url(#SVGID_125_);}
	.st128{fill:url(#SVGID_126_);}
	.st129{fill:url(#SVGID_127_);}
	.st130{fill:url(#SVGID_128_);}
	.st131{fill:url(#SVGID_129_);}
	.st132{fill:url(#SVGID_130_);}
	.st133{fill:url(#SVGID_131_);}
	.st134{fill:url(#SVGID_132_);}
	.st135{fill:url(#SVGID_133_);}
	.st136{fill:url(#SVGID_134_);}
	.st137{fill:url(#SVGID_135_);}
	.st138{fill:url(#SVGID_136_);}
	.st139{fill:url(#SVGID_137_);}
	.st140{fill:url(#SVGID_138_);}
	.st141{fill:url(#SVGID_139_);}
	.st142{fill:url(#SVGID_140_);}
	.st143{fill:url(#SVGID_141_);}
	.st144{fill:url(#SVGID_142_);}
	.st145{fill:url(#SVGID_143_);}
	.st146{fill:url(#SVGID_144_);}
	.st147{fill:url(#SVGID_145_);}
	.st148{fill:url(#SVGID_146_);}
	.st149{fill:url(#SVGID_147_);}
	.st150{fill:url(#SVGID_148_);}
	.st151{fill:url(#SVGID_149_);}
	.st152{fill:url(#SVGID_150_);}
	.st153{fill:url(#SVGID_151_);}
	.st154{fill:url(#SVGID_152_);}
	.st155{fill:url(#SVGID_153_);}
	.st156{fill:url(#SVGID_154_);}
	.st157{fill:url(#SVGID_155_);}
	.st158{fill:url(#SVGID_156_);}
	.st159{fill:url(#SVGID_157_);}
	.st160{fill:url(#SVGID_158_);}
	.st161{fill:url(#SVGID_159_);}
	.st162{fill:url(#SVGID_160_);}
	.st163{fill:url(#SVGID_161_);}
	.st164{fill:url(#SVGID_162_);}
	.st165{fill:url(#SVGID_163_);}
	.st166{fill:url(#SVGID_164_);}
	.st167{fill:url(#SVGID_165_);}
	.st168{fill:url(#SVGID_166_);}
	.st169{fill:url(#SVGID_167_);}
	.st170{fill:url(#SVGID_168_);}
	.st171{fill:url(#SVGID_169_);}
	.st172{fill:url(#SVGID_170_);}
	.st173{fill:url(#SVGID_171_);}
	.st174{fill:url(#SVGID_172_);}
	.st175{fill:url(#SVGID_173_);}
	.st176{fill:url(#SVGID_174_);}
	.st177{fill:url(#SVGID_175_);}
	.st178{fill:url(#SVGID_176_);}
	.st179{fill:url(#SVGID_177_);}
	.st180{fill:url(#SVGID_178_);}
	.st181{fill:url(#SVGID_179_);}
	.st182{fill:url(#SVGID_180_);}
	.st183{fill:url(#SVGID_181_);}
	.st184{fill:url(#SVGID_182_);}
	.st185{fill:url(#SVGID_183_);}
	.st186{fill:url(#SVGID_184_);}
	.st187{fill:url(#SVGID_185_);}
	.st188{fill:url(#SVGID_186_);}
	.st189{fill:url(#SVGID_187_);}
	.st190{fill:url(#SVGID_188_);}
	.st191{fill:#323232;}
	.st192{fill:#FFFFFF;}
</style>
<g>
	<linearGradient id="SVGID_1_" gradientUnits="userSpaceOnUse" x1="-486.6694" y1="551.7735" x2="837.919" y2="508.7474">
		<stop  offset="0" style="stop-color:#854310"/>
		<stop  offset="0.1536" style="stop-color:#8C4D15"/>
		<stop  offset="0.4113" style="stop-color:#A16722"/>
		<stop  offset="0.7392" style="stop-color:#C19137"/>
		<stop  offset="1" style="stop-color:#DFB74B"/>
	</linearGradient>
	<path class="st1" d="M22.4,524.6c0-17.8,0-21.1-0.2-24.9c-0.2-4-1.4-6-4-6.6c-1.3-0.4-2.8-0.5-4.2-0.5c-1.2,0-1.9-0.2-1.9-1.2
		c0-0.7,0.9-0.9,2.8-0.9c4.5,0,11.8,0.4,15.2,0.4c2.9,0,9.9-0.4,14.3-0.4c1.5,0,2.5,0.2,2.5,0.9c0,0.9-0.7,1.2-1.9,1.2
		s-2.1,0.1-3.5,0.4c-3.2,0.6-4.1,2.6-4.3,6.7c-0.2,3.8-0.2,7-0.2,24.9v20.6c0,11.4,0,20.6,0.5,25.7c0.4,3.2,1.2,5.3,4.7,5.7
		c1.6,0.2,4.2,0.5,6,0.5c1.3,0,1.9,0.4,1.9,0.9c0,0.8-0.9,1.2-2.2,1.2c-7.7,0-15.1-0.4-18.3-0.4c-2.7,0-10.1,0.4-14.8,0.4
		c-1.5,0-2.3-0.4-2.3-1.2c0-0.6,0.5-0.9,1.9-0.9c1.8,0,3.2-0.2,4.2-0.5c2.3-0.5,3-2.5,3.4-5.9c0.6-4.9,0.6-14.2,0.6-25.6V524.6z"/>
	<linearGradient id="SVGID_2_" gradientUnits="userSpaceOnUse" x1="-486.3884" y1="560.4245" x2="838.2" y2="517.3984">
		<stop  offset="0" style="stop-color:#854310"/>
		<stop  offset="0.1536" style="stop-color:#8C4D15"/>
		<stop  offset="0.4113" style="stop-color:#A16722"/>
		<stop  offset="0.7392" style="stop-color:#C19137"/>
		<stop  offset="1" style="stop-color:#DFB74B"/>
	</linearGradient>
	<path class="st2" d="M77.1,565.7c0.2,7.7,1.5,10.1,3.5,10.8c1.8,0.6,3.8,0.7,5.4,0.7c1.2,0,1.8,0.5,1.8,1.1c0,0.8-0.9,1.1-2.3,1.1
		c-6.7,0-11.5-0.4-13.4-0.4c-0.9,0-5.9,0.4-11.1,0.4c-1.4,0-2.3-0.1-2.3-1.1c0-0.6,0.7-1.1,1.6-1.1c1.4,0,3.3-0.1,4.7-0.5
		c2.7-0.7,3-3.4,3.2-12.1l0.9-59.1c0-2,0.7-3.4,1.8-3.4c1.3,0,2.7,1.5,4.5,3.3c1.3,1.3,16.8,17.1,31.8,31.8c7,6.9,20.8,21,22.3,22.4
		h0.5l-1.1-44.3c-0.1-6.1-1.1-7.9-3.5-8.8c-1.5-0.6-4-0.6-5.4-0.6c-1.3,0-1.6-0.5-1.6-1.1c0-0.8,1.1-0.9,2.6-0.9
		c5.4,0,10.9,0.2,13.1,0.2c1.2,0,5-0.2,10.1-0.2c1.4,0,2.3,0.1,2.3,0.9c0,0.6-0.6,1.1-1.8,1.1c-1.1,0-1.9,0-3.2,0.4
		c-2.8,0.8-3.6,2.6-3.8,8.2l-1.2,62.9c0,2.2-0.8,3.2-1.6,3.2c-1.8,0-3.2-1.1-4.2-2.1c-6.4-6-19.3-18.3-30.1-28.7
		c-11.3-10.8-22.2-22.9-24.2-24.6H76L77.1,565.7z"/>
	<linearGradient id="SVGID_3_" gradientUnits="userSpaceOnUse" x1="-486.2878" y1="563.5241" x2="838.3007" y2="520.498">
		<stop  offset="0" style="stop-color:#854310"/>
		<stop  offset="0.1536" style="stop-color:#8C4D15"/>
		<stop  offset="0.4113" style="stop-color:#A16722"/>
		<stop  offset="0.7392" style="stop-color:#C19137"/>
		<stop  offset="1" style="stop-color:#DFB74B"/>
	</linearGradient>
	<path class="st3" d="M159.6,513.6c-2.3-5.5-3.9-6.4-7.6-7.4c-1.5-0.4-3.2-0.4-4-0.4c-0.9,0-1.2-0.5-1.2-1.1c0-0.8,1.1-0.9,2.6-0.9
		c5.5,0,11.4,0.2,15,0.2c2.6,0,8-0.2,13.1-0.2c1.3,0,2.5,0.2,2.5,0.9c0,0.7-0.7,1.1-1.6,1.1c-1.6,0-3.2,0.1-4,0.7
		c-0.7,0.5-1.1,1.1-1.1,2c0,1.3,0.9,4,2.3,7.5l17.4,44.7h0.4c4.5-10.3,17.7-42.5,20.2-49c0.5-1.3,0.9-2.8,0.9-3.6
		c0-1.1-0.5-1.4-1.4-1.8c-1.2-0.4-2.8-0.5-4.1-0.5c-0.9,0-1.8-0.4-1.8-1.1c0-0.7,0.9-0.9,2.9-0.9c5.2,0,9.7,0.2,11,0.2
		c1.8,0,6.6-0.2,9.7-0.2c1.3,0,2.1,0.2,2.1,0.9c0,0.7-0.6,1.1-1.6,1.1c-1.1,0-3.3-0.1-5,1.2c-1.3,0.9-2.7,2.5-5.4,8.8
		c-4.1,9.4-6.8,14.8-12.4,27c-6.6,14.5-11.4,25.4-13.7,30.5c-2.6,5.7-3.5,7.3-4.9,7.3s-2.2-1.3-4.2-6L159.6,513.6z"/>
	<linearGradient id="SVGID_4_" gradientUnits="userSpaceOnUse" x1="-486.2103" y1="565.9067" x2="838.3781" y2="522.8807">
		<stop  offset="0" style="stop-color:#854310"/>
		<stop  offset="0.1536" style="stop-color:#8C4D15"/>
		<stop  offset="0.4113" style="stop-color:#A16722"/>
		<stop  offset="0.7392" style="stop-color:#C19137"/>
		<stop  offset="1" style="stop-color:#DFB74B"/>
	</linearGradient>
	<path class="st4" d="M244,532.7c0-15.1,0-17.9-0.1-21.1c-0.2-3.4-1.2-4.5-4.5-5.4c-0.8-0.2-2.6-0.4-4.1-0.4c-1.1,0-1.8-0.4-1.8-1.1
		c0-0.7,0.8-0.9,2.3-0.9c5.4,0,12,0.2,14.9,0.2c3.3,0,26.2,0.1,28.1,0c1.9-0.1,3.5-0.5,4.3-0.6c0.6-0.1,1.2-0.5,1.6-0.5
		c0.6,0,0.7,0.5,0.7,0.9c0,0.7-0.6,1.9-0.8,6.5c-0.1,1.1-0.4,5.4-0.6,6.6c-0.1,0.5-0.4,1.6-1.2,1.6c-0.7,0-0.8-0.5-0.8-1.3
		c0-0.7-0.1-2.5-0.7-3.6c-0.8-1.8-1.6-3.2-6.8-3.6c-1.8-0.2-14.1-0.5-16.2-0.5c-0.5,0-0.7,0.4-0.7,0.9v24.6c0,0.6,0.1,1.1,0.7,1.1
		c2.3,0,15.7,0,18.1-0.2c2.5-0.2,3.9-0.6,4.9-1.5c0.8-0.7,1.2-1.3,1.6-1.3c0.5,0,0.8,0.5,0.8,1.1c0,0.6-0.2,2.2-0.8,7.3
		c-0.2,2-0.5,6-0.5,6.7c0,0.8-0.1,2.2-1.1,2.2c-0.7,0-0.9-0.4-0.9-0.8c-0.1-1.1-0.1-2.3-0.4-3.6c-0.6-2-1.9-3.5-5.7-3.9
		c-1.9-0.2-13.6-0.5-16.2-0.5c-0.5,0-0.6,0.5-0.6,1.1v8c0,3.4-0.1,11.8,0,14.8c0.2,6.8,3.4,8.3,14,8.3c2.7,0,7-0.1,9.7-1.3
		c2.6-1.2,3.8-3.3,4.5-7.4c0.2-1.1,0.5-1.5,1.2-1.5c0.8,0,0.9,1.3,0.9,2.3c0,2.2-0.8,9-1.4,11c-0.7,2.6-1.6,2.6-5.5,2.6
		c-7.7,0-14-0.1-19-0.4c-5-0.1-8.9-0.2-12-0.2c-1.2,0-3.4,0.1-5.9,0.1c-2.5,0.1-5,0.2-7.2,0.2c-1.3,0-2-0.4-2-1.1
		c0-0.5,0.4-1.1,1.6-1.1c1.5,0,2.7-0.1,3.6-0.4c2.1-0.5,2.7-2.3,3-5.3c0.5-4.2,0.5-12.1,0.5-21.2V532.7z"/>
	<linearGradient id="SVGID_5_" gradientUnits="userSpaceOnUse" x1="-486.1438" y1="567.9561" x2="838.4446" y2="524.9301">
		<stop  offset="0" style="stop-color:#854310"/>
		<stop  offset="0.1536" style="stop-color:#8C4D15"/>
		<stop  offset="0.4113" style="stop-color:#A16722"/>
		<stop  offset="0.7392" style="stop-color:#C19137"/>
		<stop  offset="1" style="stop-color:#DFB74B"/>
	</linearGradient>
	<path class="st5" d="M305.9,578c-1.6-0.7-2-1.2-2-3.4c0-5.4,0.5-11.6,0.6-13.3c0-1.5,0.5-2.6,1.3-2.6c0.9,0,1.1,0.9,1.1,1.6
		c0,1.3,0.4,3.4,0.9,5.2c2.2,7.4,10,9.9,16.4,9.9c8.9,0,14.3-5.6,14.3-12.7c0-4.3-1.1-8.7-10.2-14.1l-6-3.5
		c-12.2-7.2-16.2-13.8-16.2-22.6c0-12.2,11.7-20.1,26-20.1c6.7,0,12,0.9,14.7,1.6c0.9,0.2,1.4,0.6,1.4,1.3c0,1.3-0.4,4.1-0.4,12
		c0,2.1-0.5,3.2-1.3,3.2c-0.7,0-1.1-0.6-1.1-1.8c0-0.9-0.5-4-2.7-6.6c-1.5-1.9-4.8-4.7-11.5-4.7c-7.4,0-14.1,3.9-14.1,10.7
		c0,4.5,1.6,8,10.9,13.1l4.2,2.3c13.6,7.5,17.8,15.1,17.8,24.2c0,7.4-2.8,13.4-10.3,18.6c-4.9,3.5-11.7,4.1-17.2,4.1
		C316.7,580.6,310.4,580,305.9,578z"/>
	<linearGradient id="SVGID_6_" gradientUnits="userSpaceOnUse" x1="-486.1018" y1="569.2493" x2="838.4866" y2="526.2233">
		<stop  offset="0" style="stop-color:#854310"/>
		<stop  offset="0.1536" style="stop-color:#8C4D15"/>
		<stop  offset="0.4113" style="stop-color:#A16722"/>
		<stop  offset="0.7392" style="stop-color:#C19137"/>
		<stop  offset="1" style="stop-color:#DFB74B"/>
	</linearGradient>
	<path class="st6" d="M388.6,510l-15.4,0.4c-6,0.1-8.4,0.8-10,3c-1.1,1.4-1.5,2.7-1.8,3.4c-0.2,0.8-0.5,1.3-1.2,1.3
		c-0.7,0-0.9-0.6-0.9-1.6c0-1.6,2-11.3,2.2-12.1c0.2-1.3,0.6-1.9,1.2-1.9c0.8,0,1.9,0.8,4.5,1.2c3,0.4,6.9,0.5,10.3,0.5h41.9
		c3.3,0,5.5-0.2,7-0.5c1.6-0.2,2.5-0.5,2.8-0.5c0.7,0,0.8,0.6,0.8,2.1c0,2.1-0.2,9.5-0.2,12.1c-0.1,1.1-0.4,1.6-0.9,1.6
		c-0.8,0-1.1-0.5-1.2-2l-0.1-1.1c-0.2-2.6-2.9-5.6-12.2-5.7l-13-0.2v40.3c0,9.1,0.1,17,0.6,21.3c0.4,2.8,0.9,4.7,4,5.2
		c1.4,0.2,3.8,0.4,5.3,0.4c1.2,0,1.6,0.6,1.6,1.1c0,0.7-0.8,1.1-2,1.1c-6.8,0-13.7-0.4-16.7-0.4c-2.3,0-9.4,0.4-13.5,0.4
		c-1.3,0-2-0.4-2-1.1c0-0.5,0.4-1.1,1.6-1.1c1.5,0,2.8-0.1,3.6-0.4c2.1-0.5,2.7-2.3,3-5.3c0.5-4.2,0.5-12.1,0.5-21.2V510z"/>
	<linearGradient id="SVGID_7_" gradientUnits="userSpaceOnUse" x1="-486.0051" y1="572.2249" x2="838.5833" y2="529.1988">
		<stop  offset="0" style="stop-color:#854310"/>
		<stop  offset="0.1536" style="stop-color:#8C4D15"/>
		<stop  offset="0.4113" style="stop-color:#A16722"/>
		<stop  offset="0.7392" style="stop-color:#C19137"/>
		<stop  offset="1" style="stop-color:#DFB74B"/>
	</linearGradient>
	<path class="st7" d="M449.2,532.7c0-15.1,0-17.9-0.1-21.1c-0.2-3.4-1.3-4.6-3.5-5.3c-1.2-0.4-2.5-0.5-3.8-0.5
		c-1.1,0-1.6-0.2-1.6-1.2c0-0.6,0.8-0.8,2.5-0.8c3.9,0,10.9,0.2,13.8,0.2c2.6,0,9.3-0.2,13.3-0.2c1.3,0,2.1,0.2,2.1,0.8
		c0,0.9-0.6,1.2-1.6,1.2c-1.1,0-1.9,0.1-3,0.4c-2.8,0.5-3.6,1.9-3.9,5.4c-0.2,3.2-0.2,6-0.2,21.1v17.6c0,9.6,0,17.6,0.5,21.8
		c0.4,2.7,1.1,4.2,4.1,4.7c1.4,0.2,3.8,0.4,5.3,0.4c1.2,0,1.6,0.6,1.6,1.1c0,0.7-0.8,1.1-2,1.1c-6.8,0-13.8-0.4-16.7-0.4
		c-2.3,0-9.4,0.4-13.5,0.4c-1.3,0-2-0.4-2-1.1c0-0.5,0.4-1.1,1.6-1.1c1.5,0,2.7-0.1,3.6-0.4c2.1-0.5,2.7-1.9,3-4.8
		c0.5-4.1,0.5-12.1,0.5-21.7V532.7z"/>
	<linearGradient id="SVGID_8_" gradientUnits="userSpaceOnUse" x1="-485.9515" y1="573.8758" x2="838.6369" y2="530.8497">
		<stop  offset="0" style="stop-color:#854310"/>
		<stop  offset="0.1536" style="stop-color:#8C4D15"/>
		<stop  offset="0.4113" style="stop-color:#A16722"/>
		<stop  offset="0.7392" style="stop-color:#C19137"/>
		<stop  offset="1" style="stop-color:#DFB74B"/>
	</linearGradient>
	<path class="st8" d="M496.9,532.7c0-15.1,0-17.9-0.1-21.1c-0.2-3.4-1.2-4.5-4.5-5.4c-0.8-0.2-2.6-0.4-4.1-0.4
		c-1.1,0-1.8-0.4-1.8-1.1c0-0.7,0.8-0.9,2.3-0.9c5.4,0,12,0.2,14,0.2c5.2,0,12-0.2,15.5-0.2c18.6,0,21.9,9.6,21.9,14.9
		c0,7.7-5.7,13.7-11.6,17.5c8.4,2.7,19,9.9,19,21.6c0,10.7-8.4,21.7-27.4,21.7c-1.2,0-4.7-0.1-8.2-0.4c-3.5-0.1-7.2-0.2-8.8-0.2
		c-1.2,0-3.4,0.1-5.9,0.1c-2.5,0.1-5,0.2-7.2,0.2c-1.3,0-2-0.4-2-1.1c0-0.5,0.4-1.1,1.6-1.1c1.5,0,2.7-0.1,3.6-0.4
		c2.1-0.5,2.7-2.3,3-5.3c0.5-4.2,0.5-12.1,0.5-21.2V532.7z M510.3,534.4c0,0.8,0.4,0.9,0.7,1.1c0.9,0.2,2.5,0.4,4.8,0.4
		c3.4,0,6.3-0.4,8.1-1.8c2.7-2.1,4.7-5.7,4.7-10.6c0-6.7-4-15-12.9-15c-1.4,0-3.4,0-4.5,0.2c-0.7,0.1-0.9,0.6-0.9,1.6V534.4z
		 M510.3,563.7c0,6.6,0.4,8.6,3.6,9.9c2.7,1.1,5,1.2,7.4,1.2c5.5,0,12.7-3,12.7-14.1c0-4.6-2-12.4-9.7-17.7
		c-2.1-1.5-4.9-2.6-8.9-2.6h-4.5c-0.4,0-0.6,0.1-0.6,0.7V563.7z"/>
	<linearGradient id="SVGID_9_" gradientUnits="userSpaceOnUse" x1="-485.8688" y1="576.4204" x2="838.7196" y2="533.3943">
		<stop  offset="0" style="stop-color:#854310"/>
		<stop  offset="0.1536" style="stop-color:#8C4D15"/>
		<stop  offset="0.4113" style="stop-color:#A16722"/>
		<stop  offset="0.7392" style="stop-color:#C19137"/>
		<stop  offset="1" style="stop-color:#DFB74B"/>
	</linearGradient>
	<path class="st9" d="M581.1,550.3c0,12.8,0,19.1,2.2,21c1.8,1.5,5.7,2.1,13.7,2.1c5.5,0,9.5-0.1,12.1-2.8c1.3-1.3,2.3-4.1,2.6-6
		c0.1-0.9,0.4-1.5,1.2-1.5c0.7,0,0.9,1.1,0.9,2.2s-0.7,8.6-1.5,11.5c-0.7,2.2-1.2,2.7-6.6,2.7c-7.4,0-13.4-0.1-18.5-0.4
		c-5.2-0.1-9.5-0.2-13.7-0.2c-1.2,0-3.4,0.1-5.9,0.1c-2.5,0.1-5,0.2-7.2,0.2c-1.3,0-2-0.4-2-1.1c0-0.5,0.4-1.1,1.6-1.1
		c1.5,0,2.7-0.1,3.6-0.4c2.1-0.5,2.7-2.3,3-5.3c0.5-4.2,0.5-12.1,0.5-21.2v-17.6c0-15.1,0-17.9-0.1-21.1c-0.2-3.4-1.2-4.5-4.5-5.4
		c-0.8-0.2-2.1-0.4-3.4-0.4c-1.2,0-1.8-0.4-1.8-1.1c0-0.7,0.7-0.9,2.2-0.9c4.8,0,11.4,0.2,14.2,0.2c2.5,0,10.9-0.2,14.9-0.2
		c1.5,0,2.2,0.2,2.2,0.9c0,0.7-0.6,1.1-1.9,1.1c-1.2,0-2.8,0.1-4,0.4c-2.8,0.5-3.6,1.9-3.9,5.4c-0.2,3.2-0.2,6-0.2,21.1V550.3z"/>
	<linearGradient id="SVGID_10_" gradientUnits="userSpaceOnUse" x1="-485.8014" y1="578.4957" x2="838.787" y2="535.4696">
		<stop  offset="0" style="stop-color:#854310"/>
		<stop  offset="0.1536" style="stop-color:#8C4D15"/>
		<stop  offset="0.4113" style="stop-color:#A16722"/>
		<stop  offset="0.7392" style="stop-color:#C19137"/>
		<stop  offset="1" style="stop-color:#DFB74B"/>
	</linearGradient>
	<path class="st10" d="M632,532.7c0-15.1,0-17.9-0.1-21.1c-0.2-3.4-1.2-4.5-4.5-5.4c-0.8-0.2-2.6-0.4-4.1-0.4
		c-1.1,0-1.8-0.4-1.8-1.1c0-0.7,0.8-0.9,2.3-0.9c5.4,0,12,0.2,14.9,0.2c3.3,0,26.2,0.1,28.1,0c1.9-0.1,3.5-0.5,4.3-0.6
		c0.6-0.1,1.2-0.5,1.6-0.5c0.6,0,0.7,0.5,0.7,0.9c0,0.7-0.6,1.9-0.8,6.5c-0.1,1.1-0.4,5.4-0.6,6.6c-0.1,0.5-0.4,1.6-1.2,1.6
		c-0.7,0-0.8-0.5-0.8-1.3c0-0.7-0.1-2.5-0.7-3.6c-0.8-1.8-1.6-3.2-6.8-3.6c-1.8-0.2-14.1-0.5-16.2-0.5c-0.5,0-0.7,0.4-0.7,0.9v24.6
		c0,0.6,0.1,1.1,0.7,1.1c2.3,0,15.7,0,18.1-0.2c2.5-0.2,3.9-0.6,4.9-1.5c0.8-0.7,1.2-1.3,1.6-1.3c0.5,0,0.8,0.5,0.8,1.1
		c0,0.6-0.2,2.2-0.8,7.3c-0.2,2-0.5,6-0.5,6.7c0,0.8-0.1,2.2-1.1,2.2c-0.7,0-0.9-0.4-0.9-0.8c-0.1-1.1-0.1-2.3-0.4-3.6
		c-0.6-2-1.9-3.5-5.7-3.9c-1.9-0.2-13.6-0.5-16.2-0.5c-0.5,0-0.6,0.5-0.6,1.1v8c0,3.4-0.1,11.8,0,14.8c0.2,6.8,3.4,8.3,14,8.3
		c2.7,0,7-0.1,9.7-1.3c2.6-1.2,3.8-3.3,4.5-7.4c0.2-1.1,0.5-1.5,1.2-1.5c0.8,0,0.9,1.3,0.9,2.3c0,2.2-0.8,9-1.4,11
		c-0.7,2.6-1.6,2.6-5.5,2.6c-7.7,0-14-0.1-19-0.4c-5-0.1-8.9-0.2-12-0.2c-1.2,0-3.4,0.1-5.9,0.1c-2.5,0.1-5,0.2-7.2,0.2
		c-1.3,0-2-0.4-2-1.1c0-0.5,0.4-1.1,1.6-1.1c1.5,0,2.7-0.1,3.6-0.4c2.1-0.5,2.7-2.3,3-5.3c0.5-4.2,0.5-12.1,0.5-21.2V532.7z"/>
</g>
<g>
	<g>
		
			<linearGradient id="SVGID_11_" gradientUnits="userSpaceOnUse" x1="422.4314" y1="172.4044" x2="447.7838" y2="84.6187" gradientTransform="matrix(0.9994 -3.527506e-02 3.527506e-02 0.9994 47.8197 71.3544)">
			<stop  offset="0" style="stop-color:#854310"/>
			<stop  offset="0.1536" style="stop-color:#8C4D15"/>
			<stop  offset="0.4113" style="stop-color:#A16722"/>
			<stop  offset="0.7392" style="stop-color:#C19137"/>
			<stop  offset="1" style="stop-color:#DFB74B"/>
		</linearGradient>
		<path class="st11" d="M480.7,169.1c-0.6-16.3-0.7-19.2-1-22.7c-0.3-3.6-1.5-5.4-3.8-5.9c-1.2-0.3-2.6-0.3-3.9-0.3
			c-1.1,0-1.5-0.2-1.7-1c-0.4-1.4,0.8-2,2.5-2c4.1-0.1,10.8,1,13.9,0.9c2.7-0.1,9-0.6,13-0.8c1.4,0,3.8-1,3.8-0.4
			c0.1,2.1-2.2,2.3-3.2,2.3s-1.9,0.2-3.2,0.4c-2.9,0.6-3.7,2.5-3.7,6.2c-0.1,3.4,0,6.4,0.6,22.7l0.7,18.8
			c0.4,10.4,0.7,18.8,1.3,23.4c0.4,2.9,1.2,4.8,4.5,5.1c1.5,0.2,3.9,0.3,5.5,0.2c1.2,0,1.7,0.3,1.7,0.8c0,0.7-0.8,1.1-2,1.1
			c-7.1,0.2-13.8,0.2-16.7,0.3c-2.5,0.1-9.2,0.6-13.5,0.8c-1.4,0-2.1-0.2-2.2-1c0-1.3,1-1.9,2.3-2c1.6-0.1,2.3,0.7,3.2,0.5
			c2.1-0.5,2.7-2.3,2.9-5.5c0.4-4.5,0.1-13-0.3-23.3L480.7,169.1z"/>
	</g>
	<g>
		
			<linearGradient id="SVGID_12_" gradientUnits="userSpaceOnUse" x1="462.2994" y1="70.1022" x2="417.4308" y2="166.8503" gradientTransform="matrix(0.9994 -3.527506e-02 3.527506e-02 0.9994 47.8197 71.3544)">
			<stop  offset="0" style="stop-color:#854310"/>
			<stop  offset="0.1536" style="stop-color:#8C4D15"/>
			<stop  offset="0.4113" style="stop-color:#A16722"/>
			<stop  offset="0.7392" style="stop-color:#C19137"/>
			<stop  offset="1" style="stop-color:#DFB74B"/>
		</linearGradient>
		<path class="st12" d="M482.2,167.9c-0.6-16.3-0.7-19.2-1-22.7c-0.3-3.6-1.5-5.4-3.8-5.9c-1.2-0.3-2.6-0.3-3.9-0.3
			c-1.1,0-1.7-0.2-1.7-1c0-0.6,0.8-0.9,2.5-0.9c4.1-0.1,10.8-0.1,13.9-0.2c2.7-0.1,9-0.6,13-0.8c1.4,0,2.3,0.1,2.3,0.8
			c0,0.9-0.6,1.1-1.7,1.1c-1.1,0-1.9,0.2-3.2,0.4c-2.9,0.6-3.7,2.5-3.7,6.2c-0.1,3.4,0,6.4,0.6,22.7l0.7,18.8
			c0.4,10.4,0.7,18.8,1.3,23.4c0.4,2.9,1.2,4.8,4.5,5.1c1.5,0.2,3.9,0.3,5.5,0.2c1.2,0,1.7,0.3,1.7,0.8c0,0.7-0.8,1.1-2,1.1
			c-7.1,0.2-13.8,0.2-16.7,0.3c-2.5,0.1-9.2,0.6-13.5,0.8c-1.4,0-2.1-0.2-2.2-1c0-0.5,0.4-0.9,1.7-0.9c1.6-0.1,2.9-0.3,3.8-0.6
			c2.1-0.5,2.7-2.3,2.9-5.5c0.4-4.5,0.1-13-0.3-23.3L482.2,167.9z"/>
	</g>
</g>
<g>
	
		<linearGradient id="SVGID_13_" gradientUnits="userSpaceOnUse" x1="931.1686" y1="-563.0491" x2="806.3623" y2="-360.4414" gradientTransform="matrix(0.8941 -0.4479 0.4479 0.8941 -138.3473 925.4291)">
		<stop  offset="0" style="stop-color:#854310"/>
		<stop  offset="0.1536" style="stop-color:#8C4D15"/>
		<stop  offset="0.4113" style="stop-color:#A16722"/>
		<stop  offset="0.7392" style="stop-color:#C19137"/>
		<stop  offset="1" style="stop-color:#DFB74B"/>
	</linearGradient>
	<path class="st13" d="M452.8,332c-39.5,19.8-91.3-16.3-84-61.1c1.6-9.6,4.9-22.7,8.4-36.7c-1-0.4-2-0.8-2.9-1.2
		c-3.9,15.4-7.8,30.2-9.5,40.8c-7.3,44.8,44.6,80.9,84,61.1c1.6-0.8,3.1-1.7,4.7-2.7c4.2-2.6,9-6,14.2-9.9c-3.7,2.7-7.2,5-10.2,7
		C456,330.4,454.4,331.2,452.8,332z"/>
	
		<linearGradient id="SVGID_14_" gradientUnits="userSpaceOnUse" x1="1103.2915" y1="-457.0214" x2="978.4852" y2="-254.4137" gradientTransform="matrix(0.8941 -0.4479 0.4479 0.8941 -138.3473 925.4291)">
		<stop  offset="0" style="stop-color:#854310"/>
		<stop  offset="0.1536" style="stop-color:#8C4D15"/>
		<stop  offset="0.4113" style="stop-color:#A16722"/>
		<stop  offset="0.7392" style="stop-color:#C19137"/>
		<stop  offset="1" style="stop-color:#DFB74B"/>
	</linearGradient>
	<path class="st14" d="M637.2,239.3c-9.2,3.5-22.5,7.3-36.5,11.4c0.1,0.6,0.1,1.1,0.2,1.7c12.5-3.6,24-7,32.3-10.2
		c1.7-0.6,3.3-1.4,4.9-2.1c3.3-1.7,6.4-3.7,9.2-5.9c-1.7,1.1-3.4,2.1-5.3,3C640.5,238,638.9,238.7,637.2,239.3z"/>
	
		<linearGradient id="SVGID_15_" gradientUnits="userSpaceOnUse" x1="1030.0421" y1="-502.143" x2="905.2358" y2="-299.5354" gradientTransform="matrix(0.8941 -0.4479 0.4479 0.8941 -138.3473 925.4291)">
		<stop  offset="0" style="stop-color:#854310"/>
		<stop  offset="0.1536" style="stop-color:#8C4D15"/>
		<stop  offset="0.4113" style="stop-color:#A16722"/>
		<stop  offset="0.7392" style="stop-color:#C19137"/>
		<stop  offset="1" style="stop-color:#DFB74B"/>
	</linearGradient>
	<path class="st15" d="M508.2,324.6c-5.5-4.6-12.2-10.9-19.4-18c-1.3,1-2.6,2-3.9,3c7.2,7.1,13.8,13.4,19.3,17.9
		c18.2,15,42.4,14.9,61.8,5.2c3.9-2,7.7-4.3,11.1-7.1c-2.3,1.5-4.7,2.9-7.1,4.2C550.6,339.5,526.4,339.6,508.2,324.6z"/>
	<path class="st16" d="M512.2,27.8c-5.3,3.8-11.1,8.2-17.2,12.8c0,0,0.1,0.1,0.1,0.1C501,36.1,506.8,31.7,512.2,27.8z"/>
	<path class="st17" d="M330.6,162.9c-0.1,15.1,6.9,27.7,18.7,33.8c7.4,3.8,18.6,8.4,30.8,13.2c3.1-13.2,5.6-25.6,6.2-34.8
		c0.8-13.8-1.8-35.3-4.5-56.2c-12.6,3.6-24.2,7-32.1,10c-1.1,0.4-2.1,0.9-3.1,1.4c-0.9,0.5-1.8,0.9-2.6,1.5
		C334.3,140,330.6,152.6,330.6,162.9z"/>
	
		<linearGradient id="SVGID_16_" gradientUnits="userSpaceOnUse" x1="786.6899" y1="-491.3033" x2="826.7889" y2="-491.3033" gradientTransform="matrix(0.8941 -0.4479 0.4479 0.8941 -138.3473 925.4291)">
		<stop  offset="0" style="stop-color:#854310"/>
		<stop  offset="0.1536" style="stop-color:#8C4D15"/>
		<stop  offset="0.4113" style="stop-color:#A16722"/>
		<stop  offset="0.7392" style="stop-color:#C19137"/>
		<stop  offset="1" style="stop-color:#DFB74B"/>
	</linearGradient>
	<path class="st18" d="M349.6,129c7.9-3,19.5-6.4,32.1-10c-0.1-0.6-0.1-1.1-0.2-1.7c-11,3.2-20.9,6.1-27.9,8.8
		c-1.1,0.4-2.1,0.9-3.1,1.4c-2.5,1.2-4.6,2.7-6.6,4.4c0.8-0.5,1.7-1,2.6-1.5C347.5,129.8,348.6,129.4,349.6,129z"/>
	<path class="st17" d="M579.8,280.7c-0.2-5.8-1-13.3-2-21.6c-16.3,4.8-31.8,9.8-41.8,14.8c-7.1,3.5-15.8,9.4-25.1,16.1
		c-2.1,1.5-4.2,3.1-6.4,4.7c6.1,6,11.6,11.2,16.1,14.9c12.9,10.7,29.5,8.4,40.7,2.8c1.5-0.7,2.9-1.6,4.4-2.5
		C573.8,303.3,580.4,293.4,579.8,280.7z"/>
	
		<linearGradient id="SVGID_17_" gradientUnits="userSpaceOnUse" x1="1038.0714" y1="-497.197" x2="913.265" y2="-294.5893" gradientTransform="matrix(0.8941 -0.4479 0.4479 0.8941 -138.3473 925.4291)">
		<stop  offset="0" style="stop-color:#854310"/>
		<stop  offset="0.1536" style="stop-color:#8C4D15"/>
		<stop  offset="0.4113" style="stop-color:#A16722"/>
		<stop  offset="0.7392" style="stop-color:#C19137"/>
		<stop  offset="1" style="stop-color:#DFB74B"/>
	</linearGradient>
	<path class="st19" d="M577.8,259.1c-0.1-0.5-0.1-1.1-0.2-1.7c-14.7,4.4-28.5,9-37.6,13.5c-8.1,4.1-18.3,11.1-29.1,19
		c9.3-6.7,18.1-12.5,25.1-16.1C546,268.8,561.5,263.9,577.8,259.1z"/>
	<path class="st17" d="M575.1,237.9c-2.9-22.5-5.7-45.2-4.8-61.1c0.7-12.2,4.2-28.3,8.3-45.1c-16.5-6.8-32.1-13.7-42.8-20.7
		c-13.4-8.9-30.1-25.4-46.4-41.6c-3,2.2-5.9,4.4-8.9,6.5c-11.6,8.5-22.6,16-31.9,20.7c-11.1,5.6-27,10.7-43.8,15.7
		c2.9,22.5,5.7,45.2,4.8,61.1c-0.7,12.2-4.2,28.3-8.3,45.1c16.5,6.8,32.1,13.7,42.8,20.7c13.4,8.9,30.1,25.4,46.4,41.6
		c3-2.2,5.9-4.4,8.9-6.5c11.6-8.5,22.6-16.1,31.9-20.7C542.4,248,558.3,242.8,575.1,237.9z"/>
	<path class="st16" d="M490.5,280.8c3-2.2,5.9-4.4,8.8-6.6C496.4,276.4,493.5,278.5,490.5,280.8
		C490.5,280.8,490.5,280.8,490.5,280.8z"/>
	
		<linearGradient id="SVGID_18_" gradientUnits="userSpaceOnUse" x1="938.2853" y1="-558.6653" x2="813.4789" y2="-356.0576" gradientTransform="matrix(0.8941 -0.4479 0.4479 0.8941 -138.3473 925.4291)">
		<stop  offset="0" style="stop-color:#854310"/>
		<stop  offset="0.1536" style="stop-color:#8C4D15"/>
		<stop  offset="0.4113" style="stop-color:#A16722"/>
		<stop  offset="0.7392" style="stop-color:#C19137"/>
		<stop  offset="1" style="stop-color:#DFB74B"/>
	</linearGradient>
	<path class="st20" d="M448.7,96.6c9.3-4.7,20.4-12.2,31.9-20.7c-10.1,7.3-19.7,13.7-27.9,17.8c-12,6-29.7,11.6-48,16.9
		c0.1,0.6,0.1,1.1,0.2,1.7C421.7,107.3,437.6,102.1,448.7,96.6z"/>
	<path class="st17" d="M649.4,187.2c0.1-15.1-6.9-27.7-18.7-33.8c-7.4-3.8-18.6-8.4-30.8-13.2c-3.1,13.2-5.6,25.6-6.2,34.8
		c-0.8,13.8,1.8,35.3,4.5,56.2c12.6-3.6,24.2-7,32.1-10c1.1-0.4,2.1-0.9,3.1-1.4c0.9-0.5,1.8-0.9,2.6-1.5
		C645.7,210.2,649.3,197.5,649.4,187.2z"/>
	<path class="st17" d="M429.4,258.3c-8.2-5.4-20.5-11.1-33.9-16.7c-3.2,12.6-6.1,24.2-7.4,32.4c-2.2,13.2,3.9,26.5,16.1,35.5
		c9.8,7.2,25.5,12.4,40,5.1c1-0.5,2-1.1,3-1.7c2.7-1.7,5.8-3.8,9.1-6.2c4.6-3.4,9.6-7.2,14.7-11.1
		C456.1,280.8,440.7,265.8,429.4,258.3z"/>
	<path class="st16" d="M474.2,293.1c-1.1,0.8-2.2,1.7-3.3,2.5c-5.2,3.9-10.1,7.7-14.7,11.1c5.6-4,12-8.9,18.7-14
		c0,0-0.1-0.1-0.1-0.1C474.6,292.8,474.4,293,474.2,293.1z"/>
	<path class="st17" d="M550.6,91.8c8.2,5.4,20.5,11.1,33.9,16.7c3.2-12.6,6.1-24.2,7.4-32.4c2.2-13.2-3.9-26.5-16.1-35.5
		c-9.8-7.2-25.5-12.4-40-5.1c-1,0.5-2,1.1-3,1.7c-2.7,1.7-5.8,3.8-9.1,6.2c-4.6,3.4-9.6,7.2-14.7,11.1
		C523.8,69.3,539.2,84.4,550.6,91.8z"/>
	
		<linearGradient id="SVGID_19_" gradientUnits="userSpaceOnUse" x1="1065.2529" y1="-522.4567" x2="1008.928" y2="-457.6222" gradientTransform="matrix(0.8941 -0.4479 0.4479 0.8941 -138.3473 925.4291)">
		<stop  offset="0" style="stop-color:#854310"/>
		<stop  offset="0.1536" style="stop-color:#8C4D15"/>
		<stop  offset="0.4113" style="stop-color:#A16722"/>
		<stop  offset="0.7392" style="stop-color:#C19137"/>
		<stop  offset="1" style="stop-color:#DFB74B"/>
	</linearGradient>
	<path class="st21" d="M535.8,35.5c14.5-7.3,30.2-2.1,40,5.1c12.2,9,18.3,22.3,16.1,35.5c-1.3,8.2-4.2,19.8-7.4,32.4
		c1,0.4,2,0.8,2.9,1.2c3.6-14.1,7-27.4,8.5-36.5c2.2-13.2-3.9-26.5-16.1-35.5c-9.8-7.2-25.5-12.4-40-5.1c-1,0.5-2,1.1-3,1.7
		c-3.7,2.4-8.2,5.5-13.1,9.1c3.3-2.4,6.4-4.5,9.1-6.2C533.8,36.6,534.8,36,535.8,35.5z"/>
	<path class="st17" d="M400.1,69.4c0.2,5.8,1,13.3,2,21.6c16.3-4.8,31.8-9.8,41.8-14.8c7.1-3.5,15.8-9.4,25.1-16.1
		c2.1-1.5,4.2-3.1,6.4-4.7c-6.1-6-11.6-11.2-16.1-14.9c-12.9-10.7-29.5-8.4-40.7-2.8c-1.5,0.7-2.9,1.6-4.4,2.5
		C406.1,46.8,399.6,56.8,400.1,69.4z"/>
	<path class="st16" d="M469.1,60.2c3.4-2.4,6.9-5,10.4-7.6c0,0,0,0-0.1-0.1c-1.3,1-2.6,2-3.9,3C473.3,57.1,471.2,58.6,469.1,60.2z"
		/>
	
		<linearGradient id="SVGID_20_" gradientUnits="userSpaceOnUse" x1="938.3311" y1="-558.637" x2="813.5248" y2="-356.0293" gradientTransform="matrix(0.8941 -0.4479 0.4479 0.8941 -138.3473 925.4291)">
		<stop  offset="0" style="stop-color:#854310"/>
		<stop  offset="0.1536" style="stop-color:#8C4D15"/>
		<stop  offset="0.4113" style="stop-color:#A16722"/>
		<stop  offset="0.7392" style="stop-color:#C19137"/>
		<stop  offset="1" style="stop-color:#DFB74B"/>
	</linearGradient>
	<path class="st22" d="M459.3,40.5c4.5,3.7,10,9,16.1,14.9c1.3-1,2.6-2,3.9-3c-6.1-5.9-11.6-11.2-16.1-14.9
		c-12.9-10.7-29.5-8.4-40.7-2.8c-2.8,1.4-5.7,3.2-8.4,5.4c1.5-0.9,2.9-1.8,4.4-2.5C429.8,32.1,446.4,29.9,459.3,40.5z"/>
	
		<linearGradient id="SVGID_21_" gradientUnits="userSpaceOnUse" x1="736.6273" y1="-269.6175" x2="950.1688" y2="-269.6175" gradientTransform="matrix(0.8941 -0.4479 0.4479 0.8941 -138.3473 925.4291)">
		<stop  offset="0" style="stop-color:#854310"/>
		<stop  offset="0.1536" style="stop-color:#8C4D15"/>
		<stop  offset="0.4113" style="stop-color:#A16722"/>
		<stop  offset="0.7392" style="stop-color:#C19137"/>
		<stop  offset="1" style="stop-color:#DFB74B"/>
	</linearGradient>
	<path class="st23" d="M467.8,322.4c5.3-3.8,11.1-8.2,17.2-12.8c0,0-0.1-0.1-0.1-0.1C478.9,314,473.1,318.4,467.8,322.4z"/>
	
		<linearGradient id="SVGID_22_" gradientUnits="userSpaceOnUse" x1="736.6273" y1="-276.2437" x2="950.1688" y2="-276.2437" gradientTransform="matrix(0.8941 -0.4479 0.4479 0.8941 -138.3473 925.4291)">
		<stop  offset="0" style="stop-color:#854310"/>
		<stop  offset="0.1536" style="stop-color:#8C4D15"/>
		<stop  offset="0.4113" style="stop-color:#A16722"/>
		<stop  offset="0.7392" style="stop-color:#C19137"/>
		<stop  offset="1" style="stop-color:#DFB74B"/>
	</linearGradient>
	<path class="st24" d="M510.8,289.9c-3.4,2.4-6.9,5-10.4,7.6c0,0,0,0,0.1,0.1c1.3-1,2.6-2,3.9-3
		C506.6,293.1,508.7,291.5,510.8,289.9z"/>
	<path class="st16" d="M500.5,297.6c3.5-2.6,7-5.2,10.4-7.6c10.8-7.9,21-14.9,29.1-19c9.1-4.6,22.9-9.1,37.6-13.5
		c-0.6-5-1.3-10.2-2-15.5c-0.1-0.8-0.2-1.6-0.3-2.4c-18.4,5.3-36,10.9-48,16.9c-8.2,4.1-17.8,10.5-27.9,17.8
		c-2.9,2.1-5.8,4.3-8.8,6.6c-4.1,3.1-8.2,6.3-12.4,9.4c-1.1,0.8-2.2,1.7-3.3,2.5c-6.7,5.1-13.1,10-18.7,14
		c-4.9,3.6-9.4,6.8-13.1,9.1c-1,0.6-2,1.2-3,1.7c-14.5,7.3-30.2,2.1-40-5.1c-12.2-9-18.3-22.3-16.1-35.5c1.5-9.1,4.9-22.4,8.5-36.5
		c-5-2.1-10.2-4.1-15.3-6.2c-3.6,14-6.9,27.1-8.4,36.7c-7.3,44.8,44.6,80.9,84,61.1c1.6-0.8,3.1-1.7,4.7-2.7c3.1-2,6.5-4.3,10.2-7
		c5.4-3.9,11.1-8.4,17.1-12.9C490,305.5,495.3,301.5,500.5,297.6z"/>
	
		<linearGradient id="SVGID_23_" gradientUnits="userSpaceOnUse" x1="770.6731" y1="-271.1704" x2="1009.48" y2="-442.9817" gradientTransform="matrix(0.8941 -0.4479 0.4479 0.8941 -138.3473 925.4291)">
		<stop  offset="0" style="stop-color:#854310"/>
		<stop  offset="0.1536" style="stop-color:#8C4D15"/>
		<stop  offset="0.4113" style="stop-color:#A16722"/>
		<stop  offset="0.7392" style="stop-color:#C19137"/>
		<stop  offset="1" style="stop-color:#DFB74B"/>
	</linearGradient>
	<path class="st25" d="M531.3,253.6c-9.3,4.7-20.4,12.2-31.9,20.7c-2.9,2.1-5.8,4.3-8.8,6.6c-4.1,3.1-8.2,6.3-12.4,9.4
		c-1.1,0.8-2.2,1.7-3.3,2.5c-6.7,5.1-13.1,10-18.7,14c-3.3,2.4-6.4,4.5-9.1,6.2c-1,0.6-2,1.2-3,1.7c-14.5,7.3-30.2,2.1-40-5.1
		c-12.2-9-18.3-22.3-16.1-35.5c1.3-8.2,4.2-19.8,7.4-32.4c-1-0.4-2-0.8-2.9-1.2c-5-2.1-10.2-4.1-15.3-6.2c-3.6,14-6.9,27.1-8.4,36.7
		c-7.3,44.8,44.6,80.9,84,61.1c1.6-0.8,3.1-1.7,4.7-2.7c3.1-2,6.5-4.3,10.2-7c5.4-3.9,11.1-8.4,17.1-12.9c5.2-3.9,10.4-8,15.6-11.9
		c3.5-2.6,7-5.2,10.4-7.6c10.8-7.9,21-14.9,29.1-19c9.1-4.6,22.9-9.1,37.6-13.5c-0.6-5-1.3-10.2-2-15.5c-0.1-0.8-0.2-1.6-0.3-2.4
		c-0.1-0.6-0.1-1.1-0.2-1.7C558.3,242.8,542.4,248,531.3,253.6z"/>
	<path class="st16" d="M500.6,297.6C500.5,297.6,500.5,297.6,500.6,297.6c-5.3,3.9-10.6,7.9-15.7,11.8c0,0,0.1,0.1,0.1,0.1
		c1.3-1,2.6-2,3.9-3C492.7,303.6,496.6,300.6,500.6,297.6z"/>
	
		<linearGradient id="SVGID_24_" gradientUnits="userSpaceOnUse" x1="736.6273" y1="-273.3209" x2="950.1688" y2="-273.3209" gradientTransform="matrix(0.8941 -0.4479 0.4479 0.8941 -138.3473 925.4291)">
		<stop  offset="0" style="stop-color:#854310"/>
		<stop  offset="0.1536" style="stop-color:#8C4D15"/>
		<stop  offset="0.4113" style="stop-color:#A16722"/>
		<stop  offset="0.7392" style="stop-color:#C19137"/>
		<stop  offset="1" style="stop-color:#DFB74B"/>
	</linearGradient>
	<path class="st26" d="M500.6,297.6C500.5,297.6,500.5,297.6,500.6,297.6c-5.3,3.9-10.6,7.9-15.7,11.8c0,0,0.1,0.1,0.1,0.1
		c1.3-1,2.6-2,3.9-3C492.7,303.6,496.6,300.6,500.6,297.6z"/>
	<path class="st16" d="M575.3,239.5c0.1,0.8,0.2,1.6,0.3,2.4c0.7,5.3,1.4,10.6,2,15.5c1.4-0.4,2.8-0.8,4.2-1.2
		c-0.7-5.4-1.4-11.2-2.2-17.2c-0.1-0.8-0.2-1.6-0.3-2.4c-1.4,0.4-2.8,0.8-4.2,1.2C575.2,238.4,575.3,239,575.3,239.5z"/>
	
		<linearGradient id="SVGID_25_" gradientUnits="userSpaceOnUse" x1="1062.4366" y1="-482.188" x2="937.6302" y2="-279.5804" gradientTransform="matrix(0.8941 -0.4479 0.4479 0.8941 -138.3473 925.4291)">
		<stop  offset="0" style="stop-color:#854310"/>
		<stop  offset="0.1536" style="stop-color:#8C4D15"/>
		<stop  offset="0.4113" style="stop-color:#A16722"/>
		<stop  offset="0.7392" style="stop-color:#C19137"/>
		<stop  offset="1" style="stop-color:#DFB74B"/>
	</linearGradient>
	<path class="st27" d="M578.7,131.7c-4.1,16.8-7.6,32.8-8.3,45.1c-0.9,15.9,1.8,38.6,4.8,61.1c0.1,0.6,0.1,1.1,0.2,1.7
		c0.1,0.8,0.2,1.6,0.3,2.4c0.7,5.3,1.4,10.6,2,15.5c0.1,0.6,0.1,1.1,0.2,1.7c1,8.3,1.8,15.8,2,21.6c0.5,12.7-6,22.6-14.1,29.2
		c9.8-6.4,18.7-17.4,18-32.1c-0.2-5.8-1-13.3-2-21.6c-0.7-5.4-1.4-11.2-2.2-17.2c-0.1-0.8-0.2-1.6-0.3-2.4c-3-23-5.9-46.5-5-62.8
		c0.7-11.2,3.6-25.7,7.3-41C580.7,132.5,579.7,132.1,578.7,131.7z"/>
	<path class="st16" d="M396.5,237.5c-6-2.5-12.2-4.9-18.2-7.4c-0.3,1.4-0.7,2.7-1,4.1c5.1,2,10.2,4.1,15.3,6.2c1,0.4,2,0.8,2.9,1.2
		C395.8,240.3,396.1,238.9,396.5,237.5z"/>
	
		<linearGradient id="SVGID_26_" gradientUnits="userSpaceOnUse" x1="904.5379" y1="-579.4536" x2="779.7316" y2="-376.8459" gradientTransform="matrix(0.8941 -0.4479 0.4479 0.8941 -138.3473 925.4291)">
		<stop  offset="0" style="stop-color:#854310"/>
		<stop  offset="0.1536" style="stop-color:#8C4D15"/>
		<stop  offset="0.4113" style="stop-color:#A16722"/>
		<stop  offset="0.7392" style="stop-color:#C19137"/>
		<stop  offset="1" style="stop-color:#DFB74B"/>
	</linearGradient>
	<path class="st28" d="M433.3,255.4c-8.8-5.8-22.4-11.9-36.9-17.9c-6-2.5-12.2-4.9-18.2-7.4c-14.6-5.8-28.5-11.4-37.9-16.2
		c-37-19-38.2-73.7-7.8-98c-34.4,22.6-34.7,81.1,3.8,100.9c9.4,4.8,23.3,10.3,37.9,16.2c1,0.4,2,0.8,2.9,1.2
		c5.1,2,10.2,4.1,15.3,6.2c1,0.4,2,0.8,2.9,1.2c13.4,5.6,25.8,11.3,33.9,16.7c11.4,7.5,26.8,22.6,41.6,37.3c1.1-0.8,2.2-1.7,3.3-2.5
		c0.2-0.2,0.4-0.3,0.6-0.5C460,277.9,444.7,262.9,433.3,255.4z"/>
	<path class="st16" d="M639.5,136.2c-9.4-4.8-23.3-10.3-37.9-16.2c-6-2.4-12.2-4.9-18.2-7.4c-14.5-6-28.1-12.1-36.9-17.9
		c-11.3-7.5-26.7-22.5-41.5-37.3c-3.9,3-7.8,6-11.7,8.9c16.3,16.3,33,32.8,46.5,41.7c10.7,7,26.3,13.9,42.8,20.7
		c5.5,2.2,11,4.5,16.5,6.7c0.6,0.2,1.1,0.5,1.7,0.7c13.3,5.3,25.7,10.3,33.8,14.4c11.8,6.1,18.8,18.7,18.7,33.8
		c-0.1,11.6-4.7,26.2-17.4,34c-1.9,1.7-4.1,3.1-6.6,4.4c-1,0.5-2,1-3.1,1.4c-7,2.7-16.9,5.7-27.9,8.8c0.8,6.1,1.6,12.1,2.3,17.8
		c14.1-4,27.3-7.8,36.5-11.4c1.7-0.6,3.3-1.4,4.9-2.1c1.8-0.9,3.6-1.9,5.3-3C677.7,209.9,676.5,155.1,639.5,136.2z"/>
	<path class="st16" d="M584.5,108.5c-0.3,1.4-0.7,2.7-1.1,4.1c6,2.5,12.2,4.9,18.2,7.4c0.3-1.4,0.7-2.7,1-4.1
		c-5.1-2-10.2-4.1-15.3-6.2C586.5,109.3,585.5,108.9,584.5,108.5z"/>
	
		<linearGradient id="SVGID_27_" gradientUnits="userSpaceOnUse" x1="794.8286" y1="-237.5958" x2="1033.6355" y2="-409.4071" gradientTransform="matrix(0.8941 -0.4479 0.4479 0.8941 -138.3473 925.4291)">
		<stop  offset="0" style="stop-color:#854310"/>
		<stop  offset="0.1536" style="stop-color:#8C4D15"/>
		<stop  offset="0.4113" style="stop-color:#A16722"/>
		<stop  offset="0.7392" style="stop-color:#C19137"/>
		<stop  offset="1" style="stop-color:#DFB74B"/>
	</linearGradient>
	<path class="st29" d="M643.5,133.3c-9.4-4.8-23.3-10.3-37.9-16.2c-1-0.4-2-0.8-2.9-1.2c-5.1-2-10.2-4.1-15.3-6.2
		c-1-0.4-2-0.8-2.9-1.2c-13.4-5.6-25.8-11.3-33.9-16.7c-11.4-7.5-26.8-22.6-41.6-37.3c-1.1,0.8-2.2,1.7-3.3,2.5
		c-0.2,0.2-0.4,0.3-0.6,0.5c-3.9,3-7.8,6-11.7,8.9c16.3,16.3,33,32.8,46.5,41.7c10.7,7,26.3,13.9,42.8,20.7c5.5,2.2,11,4.5,16.5,6.7
		c0.6,0.2,1.1,0.5,1.7,0.7c13.3,5.3,25.7,10.3,33.8,14.4c11.8,6.1,18.8,18.7,18.7,33.8c-0.1,11.6-4.7,26.2-17.4,34
		c-0.8,0.5-1.7,1-2.6,1.5c-1,0.5-2,1-3.1,1.4c-7.9,3-19.5,6.4-32.1,10c0.1,0.6,0.1,1.1,0.2,1.7c0.8,6.1,1.6,12.1,2.3,17.8
		c14.1-4,27.3-7.8,36.5-11.4c1.7-0.6,3.3-1.4,4.9-2.1c1.8-0.9,3.6-1.9,5.3-3C681.7,211.6,682.1,153,643.5,133.3z"/>
	<path class="st16" d="M595.2,138.3c0.6,0.2,1.1,0.5,1.7,0.7c1,0.4,2,0.8,3,1.2c0.3-1.4,0.6-2.7,1-4.1c-0.6-0.2-1.1-0.5-1.7-0.7
		c-5.5-2.2-11.1-4.4-16.5-6.7c-0.3,1.4-0.7,2.7-1,4.1C586.2,134.7,590.7,136.5,595.2,138.3z"/>
	
		<linearGradient id="SVGID_28_" gradientUnits="userSpaceOnUse" x1="1050.0981" y1="-489.7885" x2="925.2918" y2="-287.1808" gradientTransform="matrix(0.8941 -0.4479 0.4479 0.8941 -138.3473 925.4291)">
		<stop  offset="0" style="stop-color:#854310"/>
		<stop  offset="0.1536" style="stop-color:#8C4D15"/>
		<stop  offset="0.4113" style="stop-color:#A16722"/>
		<stop  offset="0.7392" style="stop-color:#C19137"/>
		<stop  offset="1" style="stop-color:#DFB74B"/>
	</linearGradient>
	<path class="st30" d="M634.6,150.6c-8-4.1-20.5-9.1-33.8-14.4c-0.6-0.2-1.1-0.5-1.7-0.7c-5.5-2.2-11.1-4.4-16.5-6.7
		c-16.5-6.8-32.1-13.7-42.8-20.7c-13.5-8.9-30.2-25.4-46.5-41.7c-1.3,1-2.6,2-3.9,3c16.3,16.3,33,32.8,46.4,41.6
		c10.7,7,26.3,13.9,42.8,20.7c1,0.4,2,0.8,3,1.2c4.5,1.8,9,3.6,13.5,5.4c0.6,0.2,1.1,0.5,1.7,0.7c1,0.4,2,0.8,3,1.2
		c12.1,4.9,23.3,9.4,30.8,13.2c11.8,6.1,18.8,18.7,18.7,33.8c-0.1,10.3-3.7,22.9-13.4,31.1c12.7-7.8,17.3-22.4,17.4-34
		C653.4,169.2,646.4,156.6,634.6,150.6z"/>
	<path class="st16" d="M598.4,232.9c-1.4,0.4-2.8,0.8-4.2,1.2c0.9,6.7,1.7,13.3,2.5,19.5c1.4-0.4,2.8-0.8,4.2-1.2
		c-0.1-0.6-0.1-1.1-0.2-1.7C600,245,599.2,239,598.4,232.9z"/>
	<path class="st16" d="M599.3,279.9c-0.3-7.1-1.3-16.3-2.5-26.3c-0.8-6.3-1.6-12.9-2.5-19.5c-2.7-20.9-5.3-42.4-4.5-56.2
		c0.6-10.1,3.6-24.1,7.1-38.9c-0.6-0.2-1.1-0.5-1.7-0.7c-4.5-1.8-9-3.6-13.5-5.4c-3.7,15.3-6.7,29.7-7.3,41c-1,16.2,2,39.7,5,62.8
		c0.1,0.8,0.2,1.6,0.3,2.4c0.8,5.9,1.5,11.7,2.2,17.2c1,8.3,1.8,15.8,2,21.6c0.6,14.7-8.3,25.7-18,32.1c-2.7,2.2-5.6,4-8.4,5.4
		c-11.2,5.6-27.8,7.9-40.7-2.8c-4.5-3.7-10-8.9-16.1-14.9c-3.9,3-7.9,6-11.7,8.9c7.2,7.1,13.9,13.5,19.4,18
		c18.2,15,42.4,14.9,61.8,5.2c2.5-1.2,4.8-2.6,7.1-4.2C590.9,314.9,600,298.7,599.3,279.9z"/>
	
		<linearGradient id="SVGID_29_" gradientUnits="userSpaceOnUse" x1="1139.0264" y1="-392.2662" x2="845.1101" y2="-244.2276" gradientTransform="matrix(0.8941 -0.4479 0.4479 0.8941 -138.3473 925.4291)">
		<stop  offset="0" style="stop-color:#854310"/>
		<stop  offset="0.1536" style="stop-color:#8C4D15"/>
		<stop  offset="0.4113" style="stop-color:#A16722"/>
		<stop  offset="0.7392" style="stop-color:#C19137"/>
		<stop  offset="1" style="stop-color:#DFB74B"/>
	</linearGradient>
	<path class="st31" d="M596.9,139c-0.6-0.2-1.1-0.5-1.7-0.7c-4.5-1.8-9-3.6-13.5-5.4c-3.7,15.3-6.7,29.7-7.3,41
		c-1,16.2,2,39.7,5,62.8c0.1,0.8,0.2,1.6,0.3,2.4c0.8,5.9,1.5,11.7,2.2,17.2c1,8.3,1.8,15.8,2,21.6c0.6,14.7-8.3,25.7-18,32.1
		c-1.5,0.9-2.9,1.8-4.4,2.5c-11.2,5.6-27.8,7.9-40.7-2.8c-4.5-3.7-10-9-16.1-14.9c-1.3,1-2.6,2-3.9,3c-3.9,3-7.9,6-11.7,8.9
		c7.2,7.1,13.9,13.5,19.4,18c18.2,15,42.4,14.9,61.8,5.2c2.5-1.2,4.8-2.6,7.1-4.2c15.8-10.6,26.9-28,26-48.6
		c-0.3-6.7-1.2-15.2-2.3-24.6c-0.1-0.6-0.1-1.1-0.2-1.7c-0.7-5.7-1.5-11.7-2.3-17.8c-0.1-0.6-0.1-1.1-0.2-1.7
		c-2.7-20.9-5.3-42.4-4.5-56.2c0.5-9.2,3-21.5,6.2-34.8C598.9,139.8,597.9,139.4,596.9,139z"/>
	<path class="st16" d="M486.6,283.7c-3.9,2.9-7.8,5.9-11.7,8.9c0,0,0.1,0.1,0.1,0.1c1.1-0.8,2.2-1.7,3.3-2.5
		c4.1-3.1,8.2-6.3,12.4-9.4c0,0,0,0-0.1-0.1C489.2,281.8,487.9,282.7,486.6,283.7z"/>
	
		<linearGradient id="SVGID_30_" gradientUnits="userSpaceOnUse" x1="736.6271" y1="-292.839" x2="851.0034" y2="-292.839" gradientTransform="matrix(0.8941 -0.4479 0.4479 0.8941 -138.3473 925.4291)">
		<stop  offset="0" style="stop-color:#854310"/>
		<stop  offset="0.1536" style="stop-color:#8C4D15"/>
		<stop  offset="0.4113" style="stop-color:#A16722"/>
		<stop  offset="0.7392" style="stop-color:#C19137"/>
		<stop  offset="1" style="stop-color:#DFB74B"/>
	</linearGradient>
	<path class="st32" d="M486.6,283.7c-3.9,2.9-7.8,5.9-11.7,8.9c0,0,0.1,0.1,0.1,0.1c1.1-0.8,2.2-1.7,3.3-2.5
		c4.1-3.1,8.2-6.3,12.4-9.4c0,0,0,0-0.1-0.1C489.2,281.8,487.9,282.7,486.6,283.7z"/>
	<path class="st16" d="M340.4,214c9.4,4.8,23.3,10.3,37.9,16.2c6,2.4,12.2,4.9,18.2,7.4c14.5,6,28.1,12.1,36.9,17.9
		c11.3,7.5,26.7,22.5,41.5,37.3c3.9-3,7.8-6,11.7-8.9c-16.3-16.3-33-32.8-46.5-41.7c-10.7-7-26.3-13.9-42.8-20.7
		c-5.5-2.2-11-4.5-16.5-6.7c-0.6-0.2-1.1-0.5-1.7-0.7c-13.3-5.3-25.7-10.3-33.8-14.4c-11.8-6.1-18.8-18.7-18.7-33.8
		c0.1-11.6,4.7-26.2,17.4-34c1.9-1.7,4.1-3.1,6.6-4.4c1-0.5,2-1,3.1-1.4c7-2.7,16.9-5.7,27.9-8.8c-0.8-6.1-1.6-12.1-2.3-17.8
		c-14.1,4-27.3,7.8-36.5,11.4c-1.7,0.6-3.3,1.4-4.9,2.1c-1.8,0.9-3.6,1.9-5.3,3C302.2,140.3,303.4,195,340.4,214z"/>
	<path class="st16" d="M381.5,117.2c1.4-0.4,2.8-0.8,4.2-1.2c-0.9-6.7-1.7-13.3-2.5-19.5c-1.4,0.4-2.8,0.8-4.2,1.2
		c0.1,0.6,0.1,1.1,0.2,1.7C379.9,105.1,380.7,111.2,381.5,117.2z"/>
	
		<linearGradient id="SVGID_31_" gradientUnits="userSpaceOnUse" x1="890.1133" y1="-588.3392" x2="765.307" y2="-385.7315" gradientTransform="matrix(0.8941 -0.4479 0.4479 0.8941 -138.3473 925.4291)">
		<stop  offset="0" style="stop-color:#854310"/>
		<stop  offset="0.1536" style="stop-color:#8C4D15"/>
		<stop  offset="0.4113" style="stop-color:#A16722"/>
		<stop  offset="0.7392" style="stop-color:#C19137"/>
		<stop  offset="1" style="stop-color:#DFB74B"/>
	</linearGradient>
	<path class="st33" d="M376.7,73.1c0.3,6.7,1.2,15.2,2.3,24.6c0.1,0.6,0.1,1.1,0.2,1.7c0.7,5.7,1.5,11.7,2.3,17.8
		c0.1,0.6,0.1,1.1,0.2,1.7c2.7,20.9,5.3,42.4,4.5,56.2c-0.5,9.2-3,21.5-6.2,34.8c1,0.4,2,0.8,3,1.2c3.6-14.8,6.5-28.8,7.1-38.9
		c0.8-13.8-1.8-35.3-4.5-56.2c-0.9-6.7-1.7-13.3-2.5-19.5c-1.2-10-2.2-19.1-2.5-26.3c-0.8-18.8,8.4-35,22-45.7
		C386.9,35.1,375.8,52.5,376.7,73.1z"/>
	<path class="st16" d="M384.7,211.8c-0.6-0.2-1.1-0.5-1.7-0.7c-1-0.4-2-0.8-3-1.2c-0.3,1.4-0.6,2.7-1,4.1c0.6,0.2,1.1,0.5,1.7,0.7
		c5.5,2.2,11.1,4.4,16.5,6.7c0.3-1.4,0.7-2.7,1-4.1C393.8,215.4,389.3,213.6,384.7,211.8z"/>
	
		<linearGradient id="SVGID_32_" gradientUnits="userSpaceOnUse" x1="896.3827" y1="-571.254" x2="754.2872" y2="-308.1342" gradientTransform="matrix(0.8941 -0.4479 0.4479 0.8941 -138.3473 925.4291)">
		<stop  offset="0" style="stop-color:#854310"/>
		<stop  offset="0.1536" style="stop-color:#8C4D15"/>
		<stop  offset="0.4113" style="stop-color:#A16722"/>
		<stop  offset="0.7392" style="stop-color:#C19137"/>
		<stop  offset="1" style="stop-color:#DFB74B"/>
	</linearGradient>
	<path class="st34" d="M444,239.1c-10.7-7-26.3-13.9-42.8-20.7c-1-0.4-2-0.8-3-1.2c-4.5-1.8-9-3.6-13.5-5.4
		c-0.6-0.2-1.1-0.5-1.7-0.7c-1-0.4-2-0.8-3-1.2c-12.1-4.9-23.3-9.4-30.8-13.2c-11.8-6.1-18.8-18.7-18.7-33.8
		c0.1-10.3,3.7-22.9,13.4-31.1c1.9-1.7,4.1-3.1,6.6-4.4c1-0.5,2-1,3.1-1.4c7-2.7,16.9-5.7,27.9-8.8c-0.8-6.1-1.6-12.1-2.3-17.8
		c-0.1-0.6-0.1-1.1-0.2-1.7c-12.5,3.6-24,7-32.3,10.2c-1.7,0.6-3.3,1.4-4.9,2.1c-3.3,1.7-6.4,3.7-9.2,5.9c-30.4,24.3-29.2,79,7.8,98
		c9.4,4.8,23.3,10.3,37.9,16.2c6,2.4,12.2,4.9,18.2,7.4c14.5,6,28.1,12.1,36.9,17.9c11.3,7.5,26.7,22.5,41.5,37.3
		c3.9-3,7.8-6,11.7-8.9c1.3-1,2.6-2,3.9-3C474.2,264.5,457.5,248,444,239.1z"/>
	
		<linearGradient id="SVGID_33_" gradientUnits="userSpaceOnUse" x1="850.4285" y1="-489.9065" x2="1063.9702" y2="-489.9065" gradientTransform="matrix(0.8941 -0.4479 0.4479 0.8941 -138.3473 925.4291)">
		<stop  offset="0" style="stop-color:#854310"/>
		<stop  offset="0.1536" style="stop-color:#8C4D15"/>
		<stop  offset="0.4113" style="stop-color:#A16722"/>
		<stop  offset="0.7392" style="stop-color:#C19137"/>
		<stop  offset="1" style="stop-color:#DFB74B"/>
	</linearGradient>
	<path class="st35" d="M509,54.5c5.2-3.9,10.1-7.7,14.7-11.1c-5.6,4-12,8.9-18.7,14c0,0,0.1,0.1,0.1,0.1c0.2-0.2,0.4-0.3,0.6-0.5
		C506.8,56.2,507.9,55.3,509,54.5z"/>
	
		<linearGradient id="SVGID_34_" gradientUnits="userSpaceOnUse" x1="850.4285" y1="-483.2827" x2="1063.9702" y2="-483.2827" gradientTransform="matrix(0.8941 -0.4479 0.4479 0.8941 -138.3473 925.4291)">
		<stop  offset="0" style="stop-color:#854310"/>
		<stop  offset="0.1536" style="stop-color:#8C4D15"/>
		<stop  offset="0.4113" style="stop-color:#A16722"/>
		<stop  offset="0.7392" style="stop-color:#C19137"/>
		<stop  offset="1" style="stop-color:#DFB74B"/>
	</linearGradient>
	<path class="st36" d="M489.4,69.3c-3,2.2-5.9,4.4-8.8,6.6C483.5,73.8,486.5,71.6,489.4,69.3C489.4,69.3,489.4,69.3,489.4,69.3z"/>
	<path class="st16" d="M501.8,59.9c-4.1,3.1-8.2,6.3-12.4,9.4c0,0,0,0,0.1,0.1c1.3-1,2.6-2,3.9-3c3.9-2.9,7.8-5.9,11.7-8.9
		c0,0-0.1-0.1-0.1-0.1C503.9,58.2,502.8,59.1,501.8,59.9z"/>
	
		<linearGradient id="SVGID_35_" gradientUnits="userSpaceOnUse" x1="850.4285" y1="-486.033" x2="1063.9702" y2="-486.033" gradientTransform="matrix(0.8941 -0.4479 0.4479 0.8941 -138.3473 925.4291)">
		<stop  offset="0" style="stop-color:#854310"/>
		<stop  offset="0.1536" style="stop-color:#8C4D15"/>
		<stop  offset="0.4113" style="stop-color:#A16722"/>
		<stop  offset="0.7392" style="stop-color:#C19137"/>
		<stop  offset="1" style="stop-color:#DFB74B"/>
	</linearGradient>
	<path class="st37" d="M501.8,59.9c-4.1,3.1-8.2,6.3-12.4,9.4c0,0,0,0,0.1,0.1c1.3-1,2.6-2,3.9-3c3.9-2.9,7.8-5.9,11.7-8.9
		c0,0-0.1-0.1-0.1-0.1C503.9,58.2,502.8,59.1,501.8,59.9z"/>
	<path class="st16" d="M479.4,52.6c-3.5,2.6-7,5.2-10.4,7.6c-10.8,7.9-21,14.9-29.1,19c-9.1,4.6-22.9,9.1-37.6,13.5
		c0.6,5,1.3,10.2,2,15.5c0.1,0.8,0.2,1.6,0.3,2.4c18.4-5.3,36-10.9,48-16.9c8.2-4.1,17.8-10.5,27.9-17.8c2.9-2.1,5.8-4.3,8.8-6.6
		c4.1-3.1,8.2-6.3,12.4-9.4c1.1-0.8,2.2-1.7,3.3-2.5c6.7-5.1,13.1-10,18.7-14c4.9-3.6,9.4-6.8,13.1-9.1c1-0.6,2-1.2,3-1.7
		c14.5-7.3,30.2-2.1,40,5.1c12.2,9,18.3,22.3,16.1,35.5c-1.5,9.1-4.9,22.4-8.5,36.5c5,2.1,10.2,4.1,15.3,6.2
		c3.6-14,6.9-27.1,8.4-36.7c7.3-44.8-44.6-80.9-84-61.1c-1.6,0.8-3.1,1.7-4.7,2.7c-3.1,2-6.5,4.3-10.2,7
		c-5.4,3.9-11.1,8.4-17.1,12.9C489.9,44.6,484.7,48.6,479.4,52.6z"/>
	
		<linearGradient id="SVGID_36_" gradientUnits="userSpaceOnUse" x1="1077.3239" y1="-514.7704" x2="783.4077" y2="-366.7317" gradientTransform="matrix(0.8941 -0.4479 0.4479 0.8941 -138.3473 925.4291)">
		<stop  offset="0" style="stop-color:#854310"/>
		<stop  offset="0.1536" style="stop-color:#8C4D15"/>
		<stop  offset="0.4113" style="stop-color:#A16722"/>
		<stop  offset="0.7392" style="stop-color:#C19137"/>
		<stop  offset="1" style="stop-color:#DFB74B"/>
	</linearGradient>
	<path class="st38" d="M531.1,15.2c-1.6,0.8-3.1,1.7-4.7,2.7c-4.2,2.6-9,6-14.2,9.9c-5.4,3.9-11.1,8.4-17.1,12.9
		c-5.2,3.9-10.4,8-15.6,11.9c-3.5,2.6-7,5.2-10.4,7.6c-9.3,6.7-18.1,12.5-25.1,16.1c-10,5-25.5,10-41.8,14.8
		c0.1,0.5,0.1,1.1,0.2,1.7c0.6,5,1.3,10.2,2,15.5c0.1,0.8,0.2,1.6,0.3,2.4c18.4-5.3,36-10.9,48-16.9c8.2-4.1,17.8-10.5,27.9-17.8
		c2.9-2.1,5.8-4.3,8.8-6.6c4.1-3.1,8.2-6.3,12.4-9.4c1.1-0.8,2.2-1.7,3.3-2.5c6.7-5.1,13.1-10,18.7-14c4.9-3.6,9.4-6.8,13.1-9.1
		c1-0.6,2-1.2,3-1.7c14.5-7.3,30.2-2.1,40,5.1c12.2,9,18.3,22.3,16.1,35.5c-1.5,9.1-4.9,22.4-8.5,36.5c5,2.1,10.2,4.1,15.3,6.2
		c1,0.4,2,0.8,2.9,1.2c3.9-15.4,7.8-30.2,9.5-40.8C622.4,31.5,570.5-4.6,531.1,15.2z"/>
	<path class="st16" d="M404.6,110.6c-0.1-0.8-0.2-1.6-0.3-2.4c-0.7-5.3-1.4-10.6-2-15.5c-1.4,0.4-2.8,0.8-4.2,1.2
		c0.7,5.4,1.4,11.2,2.2,17.2c0.1,0.8,0.2,1.6,0.3,2.4c1.4-0.4,2.8-0.8,4.2-1.2C404.8,111.7,404.7,111.2,404.6,110.6z"/>
	<path class="st16" d="M479.4,52.5C479.4,52.5,479.4,52.5,479.4,52.5c5.3-3.9,10.6-7.9,15.7-11.8c0,0-0.1-0.1-0.1-0.1
		c-1.3,1-2.6,2-3.9,3C487.2,46.5,483.3,49.5,479.4,52.5z"/>
	
		<linearGradient id="SVGID_37_" gradientUnits="userSpaceOnUse" x1="786.1201" y1="-505.5509" x2="962.6468" y2="-505.5509" gradientTransform="matrix(0.8941 -0.4479 0.4479 0.8941 -138.3473 925.4291)">
		<stop  offset="0" style="stop-color:#854310"/>
		<stop  offset="0.1536" style="stop-color:#8C4D15"/>
		<stop  offset="0.4113" style="stop-color:#A16722"/>
		<stop  offset="0.7392" style="stop-color:#C19137"/>
		<stop  offset="1" style="stop-color:#DFB74B"/>
	</linearGradient>
	<path class="st39" d="M479.4,52.5C479.4,52.5,479.4,52.5,479.4,52.5c5.3-3.9,10.6-7.9,15.7-11.8c0,0-0.1-0.1-0.1-0.1
		c-1.3,1-2.6,2-3.9,3C487.2,46.5,483.3,49.5,479.4,52.5z"/>
	<path class="st16" d="M380.7,70.2c0.3,7.1,1.3,16.3,2.5,26.3c0.8,6.3,1.6,12.9,2.5,19.5c2.7,20.9,5.3,42.4,4.5,56.2
		c-0.6,10.1-3.6,24.1-7.1,38.9c0.6,0.2,1.1,0.5,1.7,0.7c4.5,1.8,9,3.6,13.5,5.4c3.7-15.3,6.7-29.7,7.3-41c1-16.2-2-39.7-5-62.8
		c-0.1-0.8-0.2-1.6-0.3-2.4c-0.8-5.9-1.5-11.7-2.2-17.2c-1-8.3-1.8-15.8-2-21.6c-0.6-14.7,8.3-25.7,18-32.1c2.7-2.2,5.6-4,8.4-5.4
		c11.2-5.6,27.8-7.9,40.7,2.8c4.5,3.7,10,8.9,16.1,14.9c3.9-3,7.9-6,11.7-8.9c-7.2-7.1-13.9-13.5-19.4-18
		c-18.2-15-42.4-14.9-61.8-5.2c-2.5,1.2-4.8,2.6-7.1,4.2C389.1,35.2,379.9,51.4,380.7,70.2z"/>
	
		<linearGradient id="SVGID_38_" gradientUnits="userSpaceOnUse" x1="696.5258" y1="-374.2306" x2="935.3326" y2="-546.0419" gradientTransform="matrix(0.8941 -0.4479 0.4479 0.8941 -138.3473 925.4291)">
		<stop  offset="0" style="stop-color:#854310"/>
		<stop  offset="0.1536" style="stop-color:#8C4D15"/>
		<stop  offset="0.4113" style="stop-color:#A16722"/>
		<stop  offset="0.7392" style="stop-color:#C19137"/>
		<stop  offset="1" style="stop-color:#DFB74B"/>
	</linearGradient>
	<path class="st40" d="M475.7,22.6c-18.2-15-42.4-14.9-61.8-5.2c-3.9,2-7.7,4.3-11.1,7.1c-13.6,10.7-22.8,26.9-22,45.7
		c0.3,7.1,1.3,16.3,2.5,26.3c0.8,6.3,1.6,12.9,2.5,19.5c2.7,20.9,5.3,42.4,4.5,56.2c-0.6,10.1-3.6,24.1-7.1,38.9
		c0.6,0.2,1.1,0.5,1.7,0.7c4.5,1.8,9,3.6,13.5,5.4c1,0.4,2,0.8,3,1.2c4.1-16.8,7.6-32.8,8.3-45.1c0.9-15.9-1.8-38.6-4.8-61.1
		c-0.1-0.6-0.1-1.1-0.2-1.7c-0.1-0.8-0.2-1.6-0.3-2.4c-0.7-5.3-1.4-10.6-2-15.5c-0.1-0.6-0.1-1.1-0.2-1.7c-1-8.3-1.8-15.8-2-21.6
		c-0.5-12.7,6-22.6,14.1-29.2c2.7-2.2,5.6-4,8.4-5.4c11.2-5.6,27.8-7.9,40.7,2.8c4.5,3.7,10,8.9,16.1,14.9c3.9-3,7.9-6,11.7-8.9
		c1.3-1,2.6-2,3.9-3C487.8,33.5,481.2,27.2,475.7,22.6z"/>
</g>
<g>
	
		<linearGradient id="SVGID_39_" gradientUnits="userSpaceOnUse" x1="19.1904" y1="388.0372" x2="283.3973" y2="221.1697" gradientTransform="matrix(0.9996 2.803671e-02 -2.803671e-02 0.9996 14.7744 -39.2267)">
		<stop  offset="0" style="stop-color:#854310"/>
		<stop  offset="0.1539" style="stop-color:#8D4D15"/>
		<stop  offset="0.4126" style="stop-color:#A16722"/>
		<stop  offset="0.7424" style="stop-color:#C29138"/>
		<stop  offset="1" style="stop-color:#DFB74B"/>
	</linearGradient>
	<path class="st41" d="M279,172.2l1.1,2.4l12.1,26.5l0.9,2c0.4,1.2,0.7,2.5,0.7,3.8c0,4.4-2.5,8.2-6,10.2c-0.6,0.3-1.2,0.5-1.7,0.8
		c-2.4,1.1-4.8,2.1-7.2,3.3l-4.9,2.4l-4.9,2.5c-3.3,1.6-6.6,3.4-9.8,5.2c-13.1,7.1-26,14.8-38.7,22.9c-24.3,15.8-47.9,33.2-70.4,52
		c23.9-19,48.9-36.5,74.7-52.2c12.9-7.8,26-15.1,39.3-21.8c3.3-1.6,6.6-3.3,10-4.9l5-2.4l5-2.2c2.5-1.1,4.9-2.1,7.3-3.1
		c0.6-0.2,1.2-0.5,1.8-0.8c3.6-1.9,6.2-5.6,6.3-10c0-1.3-0.2-2.6-0.6-3.8l-0.9-2.1l-11.3-26.8l-1-2.4c-2-3.4-5.6-5.8-9.8-5.9
		c-0.4,0-0.8,0.1-1.2,0.2C276.3,168.9,277.9,170.4,279,172.2z"/>
	
		<linearGradient id="SVGID_40_" gradientUnits="userSpaceOnUse" x1="34.2386" y1="411.8634" x2="298.4454" y2="244.9959" gradientTransform="matrix(0.9996 2.803671e-02 -2.803671e-02 0.9996 14.7744 -39.2267)">
		<stop  offset="0" style="stop-color:#854310"/>
		<stop  offset="0.1539" style="stop-color:#8D4D15"/>
		<stop  offset="0.4126" style="stop-color:#A16722"/>
		<stop  offset="0.7424" style="stop-color:#C29138"/>
		<stop  offset="1" style="stop-color:#DFB74B"/>
	</linearGradient>
	<path class="st42" d="M145.7,309.7c1.4-1.1,2.7-2.3,4.1-3.4c-0.9,0.7-1.8,1.4-2.6,2.2C146.7,308.9,146.2,309.3,145.7,309.7z"/>
	
		<linearGradient id="SVGID_41_" gradientUnits="userSpaceOnUse" x1="51.9085" y1="439.8408" x2="316.1153" y2="272.9733" gradientTransform="matrix(0.9996 2.803671e-02 -2.803671e-02 0.9996 14.7744 -39.2267)">
		<stop  offset="0" style="stop-color:#854310"/>
		<stop  offset="0.1539" style="stop-color:#8D4D15"/>
		<stop  offset="0.4126" style="stop-color:#A16722"/>
		<stop  offset="0.7424" style="stop-color:#C29138"/>
		<stop  offset="1" style="stop-color:#DFB74B"/>
	</linearGradient>
	<path class="st43" d="M307.4,235.6l0.2,0.4l7.4,17.5l0.4,0.9c0.5,1.3,0.8,2.6,0.8,4.1c0,4.4-2.5,8.2-6,10.2
		c-0.7,0.3-1.4,0.6-2.1,0.9c-1.7,0.8-3.4,1.5-5.1,2.2c-5.8,2.7-11.6,5.5-17.4,8.5c-11.6,5.9-22.9,12.4-34.2,19.2
		c-22.4,13.6-44.2,28.7-65.2,44.9c-1.1,0.8-2.1,1.7-3.2,2.6c1.6-1.2,3.3-2.5,4.9-3.7c21.4-15.6,43.7-30.1,66.5-43.1
		c11.4-6.5,23-12.6,34.7-18.2c5.8-2.8,11.7-5.4,17.6-8c1.7-0.7,3.4-1.4,5.2-2.1c0.7-0.3,1.4-0.6,2.1-0.8c3.6-1.9,6.2-5.6,6.3-10
		c0-1.4-0.2-2.8-0.7-4.1l-0.4-1l-6.9-17.7l-0.2-0.4c-1.5-3.5-4.6-6.1-8.5-6.9C305.2,232.2,306.6,233.7,307.4,235.6z"/>
	
		<linearGradient id="SVGID_42_" gradientUnits="userSpaceOnUse" x1="112.8" y1="536.2524" x2="377.0069" y2="369.3849" gradientTransform="matrix(0.9996 2.803671e-02 -2.803671e-02 0.9996 14.7744 -39.2267)">
		<stop  offset="0" style="stop-color:#854310"/>
		<stop  offset="0.1539" style="stop-color:#8D4D15"/>
		<stop  offset="0.4126" style="stop-color:#A16722"/>
		<stop  offset="0.7424" style="stop-color:#C29138"/>
		<stop  offset="1" style="stop-color:#DFB74B"/>
	</linearGradient>
	<path class="st44" d="M364.9,351.7l-1.1-2.7l-1.8-4.4l-1-2.4c-0.1-0.3-0.4-0.5-0.5-0.7l1.6,3.8l1.1,2.6c0.3,1.1,0.5,2.1,0.5,3.3
		c0,4-2,7.6-5.1,9.7l-4.5,1.8c0,0,0,0-0.1,0c-4.5,1.8-8.9,3.7-13.4,5.7c-8.9,3.9-17.8,8.1-26.6,12.5c-8.8,4.3-17.4,9-26,13.8
		c-8.5,4.9-17,9.9-25.2,15.2c-7.4,4.8-14.6,9.7-21.8,14.8c7.2-4.7,14.4-9.4,21.7-13.8c8.4-5.1,17-9.9,25.6-14.5
		c8.7-4.5,17.5-9,26.4-13.1c8.9-4.1,17.9-8.1,26.9-11.7c4.5-1.8,9-3.6,13.5-5.3c0,0,0,0,0.1,0l4.6-1.7c3.2-2,5.3-5.5,5.4-9.5
		C365.4,353.9,365.2,352.8,364.9,351.7z"/>
	
		<linearGradient id="SVGID_43_" gradientUnits="userSpaceOnUse" x1="82.2944" y1="487.9518" x2="346.5012" y2="321.0843" gradientTransform="matrix(0.9996 2.803671e-02 -2.803671e-02 0.9996 14.7744 -39.2267)">
		<stop  offset="0" style="stop-color:#854310"/>
		<stop  offset="0.1539" style="stop-color:#8D4D15"/>
		<stop  offset="0.4126" style="stop-color:#A16722"/>
		<stop  offset="0.7424" style="stop-color:#C29138"/>
		<stop  offset="1" style="stop-color:#DFB74B"/>
	</linearGradient>
	<path class="st45" d="M332.3,284.3l0.5,0.9c0.1,0.2,0.2,0.4,0.3,0.7l8.4,16.9l-0.3,0.1l0.3,0.5c0.4,1.2,0.7,2.6,0.7,4
		c0,4.1-2.1,7.7-5.4,9.8c-1.4,0.5-2.7,1.1-4.1,1.7c-0.7,0.3-1.3,0.5-2,0.8c-5.3,2.2-10.5,4.5-15.7,6.8c-10.5,4.7-20.8,9.7-31.1,15
		c-10.3,5.2-20.4,10.8-30.4,16.6c-5,2.9-9.9,5.9-14.9,8.9c-4.8,3.1-9.5,6.4-14.1,9.8c-3.7,2.7-7.3,5.5-11,8.3
		c3.9-2.9,7.8-5.7,11.7-8.4c4.7-3.3,9.5-6.4,14.4-9.4c5-2.9,10-5.8,15.1-8.5c10.1-5.6,20.4-10.8,30.8-15.8
		c10.4-5,20.9-9.7,31.5-14.1c5.3-2.2,10.6-4.4,15.9-6.4c0.7-0.3,1.3-0.5,2-0.8c1.4-0.5,2.8-1,4.1-1.6c3.3-2,5.5-5.5,5.6-9.7
		c0-1.4-0.2-2.7-0.6-4l-0.2-0.5l0.3-0.1l-7.9-17.1c-0.1-0.2-0.2-0.4-0.3-0.7l-0.4-0.9l0,0c-1.1-1.9-2.6-3.4-4.5-4.5
		C331.5,283.3,331.9,283.8,332.3,284.3L332.3,284.3z"/>
	<linearGradient id="SVGID_44_" gradientUnits="userSpaceOnUse" x1="281.599" y1="197.0806" x2="95.1606" y2="351.5875">
		<stop  offset="0" style="stop-color:#854310"/>
		<stop  offset="0.1539" style="stop-color:#8D4D15"/>
		<stop  offset="0.4126" style="stop-color:#A16722"/>
		<stop  offset="0.7424" style="stop-color:#C29138"/>
		<stop  offset="1" style="stop-color:#DFB74B"/>
	</linearGradient>
	<path class="st46" d="M149.8,306.3c0,0,0.1-0.1,0.1-0.1C149.9,306.2,149.9,306.2,149.8,306.3C149.9,306.2,149.8,306.3,149.8,306.3z
		"/>
	
		<linearGradient id="SVGID_45_" gradientUnits="userSpaceOnUse" x1="30.254" y1="405.5545" x2="294.4608" y2="238.687" gradientTransform="matrix(0.9996 2.803671e-02 -2.803671e-02 0.9996 14.7744 -39.2267)">
		<stop  offset="0" style="stop-color:#854310"/>
		<stop  offset="0.1539" style="stop-color:#8D4D15"/>
		<stop  offset="0.4126" style="stop-color:#A16722"/>
		<stop  offset="0.7424" style="stop-color:#C29138"/>
		<stop  offset="1" style="stop-color:#DFB74B"/>
	</linearGradient>
	<path class="st47" d="M83.2,369.2c19.8-21.2,40.6-41.5,62.6-59.5c0.5-0.4,0.9-0.9,1.4-1.3c0.9-0.7,1.8-1.4,2.6-2.2
		c0,0,0.1-0.1,0.1-0.1c0,0,0,0,0.1,0c22.6-18.8,46.1-36.2,70.4-52c12.7-8.1,25.6-15.9,38.7-22.9c3.3-1.7,6.5-3.5,9.8-5.2l4.9-2.5
		l4.9-2.4c2.4-1.2,4.8-2.2,7.2-3.3c0.6-0.3,1.2-0.5,1.7-0.8c3.6-2,6-5.8,6-10.2c0-1.3-0.3-2.6-0.7-3.8l-0.9-2l-12.1-26.5l-1.1-2.4
		c-1.1-1.8-2.7-3.3-4.6-4.3c-0.6,0.1-1.3,0.1-1.9,0.2c-0.2,0.1-0.5,0.1-0.7,0.2c-1,0.3-1.9,0.7-2.7,1.2l0-0.1
		c-3.6,2.2-7.2,4.4-10.6,6.6l-5.2,3.4l-5.1,3.5c-3.4,2.3-6.7,4.7-10,7c-13.2,9.5-25.9,19.5-38.2,29.8
		c-24.5,20.8-47.5,42.9-68.9,66.2c-7.6,8.2-14.8,16.7-21.8,25.3c-13.6,17.4-26.1,35.4-38,53.6c-8.5,13.2-16.7,26.5-24.6,40
		c-3.6,6.2-7.1,12.4-10.6,18.6c5.3-6.6,10.8-13.1,16.2-19.6C62.3,392.1,72.6,380.5,83.2,369.2z"/>
	<linearGradient id="SVGID_46_" gradientUnits="userSpaceOnUse" x1="277.5123" y1="193.6373" x2="78.4449" y2="358.6103">
		<stop  offset="0" style="stop-color:#854310"/>
		<stop  offset="0.1539" style="stop-color:#8D4D15"/>
		<stop  offset="0.4126" style="stop-color:#A16722"/>
		<stop  offset="0.7424" style="stop-color:#C29138"/>
		<stop  offset="1" style="stop-color:#DFB74B"/>
	</linearGradient>
	<path class="st48" d="M293.1,203.1l-0.9-2l-12.1-26.5l-1.1-2.4c-1.1-1.8-2.7-3.3-4.6-4.3c-1.6-0.9-3.4-1.4-5.4-1.4
		c-1.1,0-2.1,0.2-3.1,0.5c-0.2,0.1-0.5,0.1-0.7,0.2c-1,0.3-1.9,0.7-2.7,1.3l0-0.1c-3.5,2.3-7.1,4.6-10.4,6.9l-5.1,3.5l-5,3.6
		c-3.4,2.4-6.6,4.9-9.8,7.3c-12.9,9.9-25.3,20.2-37.3,30.9c-23.9,21.5-46.2,44.2-67,68.1c-6.4,7.4-12.6,14.9-18.5,22.6
		c-13.6,17.4-26.1,35.4-38,53.6c-8.5,13.2-16.7,26.5-24.6,40c-3.6,6.2-7.1,12.4-10.6,18.6c-4.1,7.4-8.2,14.8-12.1,22.3
		c9.1-12.6,18.6-24.9,28.4-37c9.7-12.1,19.7-24,29.9-35.5c20-22.6,41-44.4,63.5-63.6c0.5-0.4,0.9-0.9,1.4-1.3
		c0.9-0.7,1.8-1.4,2.6-2.2c0,0,0.1-0.1,0.1-0.1c0,0,0,0,0.1,0c22.6-18.8,46.1-36.2,70.4-52c12.7-8.1,25.6-15.9,38.7-22.9
		c3.3-1.7,6.5-3.5,9.8-5.2l4.9-2.5l4.9-2.4c2.4-1.2,4.8-2.2,7.2-3.3c0.6-0.3,1.2-0.5,1.7-0.8c3.6-2,6-5.8,6-10.2
		C293.8,205.6,293.5,204.3,293.1,203.1z"/>
	
		<linearGradient id="SVGID_47_" gradientUnits="userSpaceOnUse" x1="57.3235" y1="448.4146" x2="321.5303" y2="281.5471" gradientTransform="matrix(0.9996 2.803671e-02 -2.803671e-02 0.9996 14.7744 -39.2267)">
		<stop  offset="0" style="stop-color:#854310"/>
		<stop  offset="0.1539" style="stop-color:#8D4D15"/>
		<stop  offset="0.4126" style="stop-color:#A16722"/>
		<stop  offset="0.7424" style="stop-color:#C29138"/>
		<stop  offset="1" style="stop-color:#DFB74B"/>
	</linearGradient>
	<path class="st49" d="M125.3,392.9c10-8.8,20.3-17.4,30.8-25.6c8.9-6.9,17.9-13.7,26.9-20.4c1.1-0.8,2.1-1.7,3.2-2.6
		c21-16.2,42.8-31.3,65.2-44.9c11.2-6.8,22.6-13.3,34.2-19.2c5.8-3,11.6-5.8,17.4-8.5c1.7-0.7,3.4-1.5,5.1-2.2
		c0.7-0.3,1.4-0.6,2.1-0.9c3.6-2,6-5.8,6-10.2c0-1.4-0.3-2.8-0.8-4.1l-0.4-0.9l-7.4-17.5l-0.2-0.4c-0.8-1.9-2.2-3.4-3.8-4.6
		c-0.7-0.1-1.3-0.3-2-0.4c-2.2-0.1-4.3,0.5-6.1,1.5c-0.2,0.1-0.4,0.2-0.7,0.4c-2.4,1.3-4.7,2.6-7.1,3.9c-6.1,3.6-12.1,7.2-18,11
		c-11.8,7.5-23.2,15.5-34.3,23.7c-22.2,16.5-43.3,34.3-63.3,53c-4.1,3.8-8.1,7.7-12.1,11.7c-15.8,16.3-30.5,33.6-44.4,51.4
		c-8.3,10.8-16.4,21.8-23.9,33.1c-3.6,5.4-7.1,10.8-10.5,16.3c4.9-5.4,9.9-10.8,15-16C105.6,411,115.3,401.8,125.3,392.9z"/>
	<linearGradient id="SVGID_48_" gradientUnits="userSpaceOnUse" x1="296.5851" y1="261.4036" x2="137.1202" y2="372.0975">
		<stop  offset="0" style="stop-color:#854310"/>
		<stop  offset="0.1539" style="stop-color:#8D4D15"/>
		<stop  offset="0.4126" style="stop-color:#A16722"/>
		<stop  offset="0.7424" style="stop-color:#C29138"/>
		<stop  offset="1" style="stop-color:#DFB74B"/>
	</linearGradient>
	<path class="st50" d="M315.4,254.4l-0.4-0.9l-7.4-17.5l-0.2-0.4c-0.8-1.9-2.2-3.4-3.8-4.6c-1.9-1.4-4.3-2.4-6.9-2.4
		c-2.2,0-4.3,0.6-6,1.7c-0.2,0.1-0.4,0.3-0.6,0.4c-2.3,1.4-4.6,2.7-6.9,4.1c-6,3.7-11.9,7.6-17.7,11.5
		c-11.6,7.8-22.7,16.2-33.7,24.7c-21.7,17.2-42.3,35.5-61.8,54.7c-3.4,3.3-6.6,6.7-9.9,10.1c-15.8,16.3-30.5,33.6-44.4,51.4
		c-8.3,10.8-16.4,21.8-23.9,33.1c-3.6,5.4-7.1,10.8-10.5,16.3c-3.7,6.1-7.3,12.2-10.6,18.5c8-10.8,16.9-21,26-30.8
		c9.1-9.8,18.6-19.3,28.4-28.5c9.8-9.1,19.8-17.9,30-26.5c9.3-7.6,18.6-15,27.9-22.4c1.1-0.8,2.1-1.7,3.2-2.6
		c21-16.2,42.8-31.3,65.2-44.9c11.2-6.8,22.6-13.3,34.2-19.2c5.8-3,11.6-5.8,17.4-8.5c1.7-0.7,3.4-1.5,5.1-2.2
		c0.7-0.3,1.4-0.6,2.1-0.9c3.6-2,6-5.8,6-10.2C316.1,257.1,315.8,255.7,315.4,254.4z"/>
	
		<linearGradient id="SVGID_49_" gradientUnits="userSpaceOnUse" x1="109.6596" y1="531.2802" x2="373.8665" y2="364.4127" gradientTransform="matrix(0.9996 2.803671e-02 -2.803671e-02 0.9996 14.7744 -39.2267)">
		<stop  offset="0" style="stop-color:#854310"/>
		<stop  offset="0.1539" style="stop-color:#8D4D15"/>
		<stop  offset="0.4126" style="stop-color:#A16722"/>
		<stop  offset="0.7424" style="stop-color:#C29138"/>
		<stop  offset="1" style="stop-color:#DFB74B"/>
	</linearGradient>
	<path class="st51" d="M288.2,394.7c8.6-4.8,17.2-9.5,26-13.8c8.8-4.4,17.6-8.5,26.6-12.5c4.5-1.9,8.9-3.9,13.4-5.7c0,0,0,0,0.1,0
		l4.5-1.8c3.1-2.1,5.1-5.7,5.1-9.7c0-1.2-0.2-2.2-0.5-3.3l-1.1-2.6l-1.6-3.8c-2-3.2-5.4-5.4-9.4-5.5c-2.1-0.1-4,0.5-5.7,1.3l-0.1,0
		l-2.5,1.4c-4.5,2.4-9,4.9-13.5,7.4c-8.9,5.1-17.6,10.3-26.3,15.8c-8.6,5.4-17.1,11.2-25.4,17c-8.3,6-16.5,12-24.4,18.4
		c-6.2,5-12.2,10.2-18.2,15.5c-8.9,8.3-17.6,16.7-26,25.5c-10.1,10.7-19.9,21.7-28.8,33.2c10.6-9.8,21.9-18.8,33.4-27.5
		c9-6.8,18.2-13.1,27.6-19.3c7.2-5.1,14.5-10.1,21.8-14.8C271.2,404.5,279.7,399.5,288.2,394.7z"/>
	<linearGradient id="SVGID_50_" gradientUnits="userSpaceOnUse" x1="380.976" y1="320.9249" x2="187.9015" y2="468.6351">
		<stop  offset="0" style="stop-color:#854310"/>
		<stop  offset="0.1539" style="stop-color:#8D4D15"/>
		<stop  offset="0.4126" style="stop-color:#A16722"/>
		<stop  offset="0.7424" style="stop-color:#C29138"/>
		<stop  offset="1" style="stop-color:#DFB74B"/>
	</linearGradient>
	<path class="st52" d="M363.4,347.9l-1.1-2.6l-1.6-3.8l-0.3-0.6l-1-2.4c-2-3.5-5.8-5.9-10.1-5.9c-2.1,0-4,0.6-5.6,1.5l-0.1,0
		l-2.5,1.4c-4.5,2.5-8.9,5.1-13.3,7.8c-8.8,5.3-17.4,10.8-25.8,16.5c-8.5,5.7-16.7,11.6-24.9,17.7c-8.1,6.2-16.1,12.4-23.9,19.1
		c-6.2,5.3-12.1,10.7-18,16.2c-8.9,8.3-17.6,16.7-26,25.5c-10.1,10.7-19.9,21.7-28.8,33.2c-3.3,4.3-6.6,8.6-9.7,13.1
		c13.6-14.7,28.6-27.8,44.1-40.2c8.6-6.9,17.5-13.4,26.4-19.7c7.2-5.1,14.5-10.1,21.8-14.8c8.2-5.4,16.7-10.4,25.2-15.2
		c8.6-4.8,17.2-9.5,26-13.8c8.8-4.4,17.6-8.5,26.6-12.5c4.5-1.9,8.9-3.9,13.4-5.7c0,0,0,0,0.1,0l4.5-1.8c3.1-2.1,5.1-5.7,5.1-9.7
		C363.9,350,363.7,349,363.4,347.9z"/>
	
		<linearGradient id="SVGID_51_" gradientUnits="userSpaceOnUse" x1="83.82" y1="490.3674" x2="348.0269" y2="323.4999" gradientTransform="matrix(0.9996 2.803671e-02 -2.803671e-02 0.9996 14.7744 -39.2267)">
		<stop  offset="0" style="stop-color:#854310"/>
		<stop  offset="0.1539" style="stop-color:#8D4D15"/>
		<stop  offset="0.4126" style="stop-color:#A16722"/>
		<stop  offset="0.7424" style="stop-color:#C29138"/>
		<stop  offset="1" style="stop-color:#DFB74B"/>
	</linearGradient>
	<path class="st53" d="M170.7,420c13.8-12.3,28.1-24.1,42.8-34.9c3.6-2.8,7.3-5.6,11-8.3c4.6-3.4,9.3-6.6,14.1-9.8
		c4.9-3,9.8-6.1,14.9-8.9c10-5.8,20.1-11.4,30.4-16.6c10.3-5.3,20.6-10.3,31.1-15c5.2-2.3,10.5-4.7,15.7-6.8c0.7-0.3,1.3-0.5,2-0.8
		c1.4-0.6,2.7-1.1,4.1-1.7c3.2-2.1,5.4-5.7,5.4-9.8c0-1.4-0.3-2.7-0.7-4l-0.3-0.5l0.3-0.1l-8.4-16.9c-0.1-0.2-0.2-0.4-0.3-0.7
		l-0.5-0.9l0,0c-0.3-0.6-0.8-1-1.2-1.5c-1.6-0.9-3.4-1.5-5.4-1.5c-1.7,0-3.3,0.3-4.8,0.9l0,0c-0.1,0.1-0.2,0.1-0.3,0.2
		c-0.6,0.3-1.3,0.6-1.8,1c-1.3,0.7-2.3,1.2-4,2.3c-5.2,3.2-10.3,6.4-15.4,9.7c-10.2,6.6-20.1,13.5-29.9,20.6
		c-9.8,7.1-19.3,14.4-28.7,22c-4.7,3.7-9.3,7.7-13.8,11.6c-4.6,3.9-9.3,7.8-13.7,11.9c-5.2,4.8-10.3,9.7-15.2,14.6
		c-11.9,12.5-23.1,25.6-33.9,38.9c-10.7,13.4-21,27-30.8,40.9C145.4,443.6,157.9,431.5,170.7,420z"/>
	<linearGradient id="SVGID_52_" gradientUnits="userSpaceOnUse" x1="314.3166" y1="304.7023" x2="177.3827" y2="422.3109">
		<stop  offset="0" style="stop-color:#854310"/>
		<stop  offset="0.1539" style="stop-color:#8D4D15"/>
		<stop  offset="0.4126" style="stop-color:#A16722"/>
		<stop  offset="0.7424" style="stop-color:#C29138"/>
		<stop  offset="1" style="stop-color:#DFB74B"/>
	</linearGradient>
	<path class="st54" d="M341.4,303.4l-0.3-0.5l0.3-0.1l-8.4-16.9c-0.1-0.2-0.2-0.4-0.3-0.7l-0.5-0.9l0,0c-0.3-0.6-0.8-1-1.2-1.5
		c-2.1-2.5-5.3-4.2-8.9-4.2c-1.7,0-3.3,0.4-4.8,1l0,0c-0.1,0.1-0.2,0.1-0.3,0.2c-0.6,0.3-1.2,0.7-1.8,1.1c-1.2,0.7-2.2,1.2-3.9,2.4
		c-5.1,3.3-10.1,6.7-15.1,10.2c-10,6.9-19.7,14-29.3,21.4c-9.6,7.3-18.9,14.9-28.1,22.8c-4.6,3.9-9,8-13.5,12
		c-4.5,4-9,8.1-13.4,12.3c-4.8,4.6-9.5,9.4-14,14.2c-11.9,12.5-23.1,25.6-33.9,38.9c-10.7,13.4-21,27-30.8,40.9
		c-3.8,5.3-7.5,10.7-11.1,16.2c15.6-17.6,32.1-34.4,49.1-50.5c13.7-12.8,27.7-25.1,42.4-36.5c3.6-2.8,7.3-5.6,11-8.3
		c4.6-3.4,9.3-6.6,14.1-9.8c4.9-3,9.8-6.1,14.9-8.9c10-5.8,20.1-11.4,30.4-16.6c10.3-5.3,20.6-10.3,31.1-15
		c5.2-2.3,10.5-4.7,15.7-6.8c0.7-0.3,1.3-0.5,2-0.8c1.4-0.6,2.7-1.1,4.1-1.7c3.2-2.1,5.4-5.7,5.4-9.8
		C342.1,305.9,341.9,304.6,341.4,303.4z"/>
</g>
</svg>
